<svg width="3710" height="3710" viewBox="0 0 3710 3710" fill="none" xmlns="http://www.w3.org/2000/svg">
<g id="11669087_20943705 1" clip-path="url(#clip0_45_184)">
<g id="Background">
<g id="Group">
<g id="Group_2">
<path id="Vector" d="M3710 0H0V3710H3710V0Z" fill="white"/>
</g>
</g>
</g>
<g id="Illustration">
<g id="Group_3">
<path id="Vector_2" d="M3139.4 2331C2873.31 2957.54 2164.5 3308.53 1549.82 3213.85C1449.8 3198.44 1175.6 3152.55 932.822 2936.05C465.467 2519.26 365.52 1693.97 742.521 1112.37C1016.91 689.065 1508.79 449.108 1976.16 461.111C2076.84 463.696 2462.66 479.63 2801.73 759.22C2851.53 800.286 2961.37 897.871 3060.37 1052.68C3292.83 1416.21 3312.81 1922.68 3139.4 2331Z" fill="url(#paint0_linear_45_184)"/>
<g id="Group_4">
<g id="Group_5">
<g id="Group_6">
<path id="Vector_3" d="M1483.18 1374.29C1481.34 1374.15 1479.6 1373.13 1478.62 1371.4C1474.91 1364.86 1471 1358.33 1467 1352C1465.31 1349.33 1466.11 1345.79 1468.78 1344.1C1471.45 1342.42 1474.99 1343.22 1476.68 1345.88C1480.78 1352.37 1484.79 1359.05 1488.59 1365.76C1490.14 1368.51 1489.18 1372 1486.43 1373.56C1485.4 1374.14 1484.28 1374.37 1483.18 1374.29Z" fill="#91B3FA"/>
<path id="Vector_4" d="M1028.3 2092.76C1019.64 2092.22 1010.75 2091.22 1002.11 2090.11C998.973 2089.7 996.76 2086.83 997.165 2083.69C997.57 2080.56 1000.46 2078.42 1003.57 2078.74C1012.01 2079.84 1020.76 2080.68 1029.15 2081.34C1035.36 2081.8 1041.72 2082.14 1048.05 2082.36C1051.29 2082.23 1053.69 2085.11 1053.58 2088.27C1053.48 2091.43 1050.83 2093.91 1047.67 2093.8C1041.18 2093.58 1034.66 2093.23 1028.3 2092.76ZM1120.72 2090.63C1118.04 2090.43 1115.8 2088.36 1115.47 2085.6C1115.09 2082.46 1117.33 2079.61 1120.47 2079.23C1134.74 2077.53 1149.14 2075.14 1163.29 2072.14L1164.52 2071.88C1167.6 2071.22 1170.65 2073.2 1171.3 2076.29C1171.96 2079.38 1169.98 2082.43 1166.89 2083.08L1165.66 2083.34C1151.18 2086.41 1136.44 2088.86 1121.83 2090.6C1121.46 2090.65 1121.08 2090.66 1120.72 2090.63ZM1235.62 2062.43C1233.47 2062.27 1231.5 2060.9 1230.69 2058.76C1229.57 2055.8 1231.05 2052.49 1234.01 2051.37C1247.9 2046.09 1261.67 2040.1 1274.93 2033.58C1277.77 2032.2 1281.2 2033.35 1282.59 2036.19C1283.99 2039.03 1282.82 2042.46 1279.98 2043.86C1266.4 2050.54 1252.3 2056.67 1238.07 2062.07C1237.26 2062.38 1236.43 2062.49 1235.62 2062.43ZM1340.15 2007.13C1338.49 2007 1336.91 2006.17 1335.88 2004.7C1334.07 2002.11 1334.7 1998.54 1337.29 1996.72C1349.42 1988.23 1361.29 1979.06 1372.59 1969.45C1374.99 1967.41 1378.61 1967.7 1380.66 1970.11C1382.71 1972.52 1382.42 1976.13 1380.01 1978.18C1368.44 1988.02 1356.28 1997.41 1343.85 2006.11C1342.73 2006.89 1341.42 2007.22 1340.15 2007.13ZM1427.96 1927.9C1426.77 1927.81 1425.61 1927.36 1424.64 1926.52C1422.25 1924.45 1421.99 1920.84 1424.06 1918.45C1433.76 1907.26 1443.05 1895.46 1451.68 1883.39C1453.51 1880.82 1457.08 1880.22 1459.66 1882.07C1462.23 1883.91 1462.83 1887.48 1460.99 1890.05C1452.16 1902.41 1442.64 1914.48 1432.71 1925.94C1431.48 1927.36 1429.7 1928.03 1427.96 1927.9ZM1493.92 1829.7C1493.19 1829.64 1492.46 1829.45 1491.76 1829.09C1488.94 1827.67 1487.82 1824.22 1489.24 1821.4C1495.95 1808.17 1502.11 1794.47 1507.54 1780.69C1508.7 1777.74 1512.03 1776.32 1514.97 1777.47C1517.91 1778.63 1519.35 1781.95 1518.19 1784.89C1512.63 1799 1506.33 1813.03 1499.46 1826.58C1498.38 1828.7 1496.16 1829.86 1493.92 1829.7ZM1534.08 1718.43C1533.8 1718.41 1533.52 1718.36 1533.24 1718.3C1530.15 1717.6 1528.22 1714.54 1528.92 1711.45C1532.2 1696.97 1534.83 1682.18 1536.73 1667.5C1537.13 1664.36 1540.01 1662.06 1543.14 1662.56C1546.27 1662.96 1548.49 1665.83 1548.08 1668.97C1546.14 1684 1543.45 1699.15 1540.09 1713.98C1539.45 1716.78 1536.86 1718.63 1534.08 1718.43ZM1545.77 1600.66C1542.87 1600.44 1540.55 1598.06 1540.48 1595.1C1540.11 1580.28 1539.03 1565.31 1537.27 1550.58C1536.9 1547.44 1539.14 1544.59 1542.28 1544.21C1545.43 1543.83 1548.27 1546.08 1548.64 1549.22C1550.44 1564.3 1551.55 1579.64 1551.93 1594.81C1552.01 1597.97 1549.51 1600.6 1546.35 1600.68C1546.15 1600.68 1545.96 1600.68 1545.77 1600.66ZM1528.39 1483.61C1526.05 1483.44 1523.96 1481.83 1523.3 1479.43C1519.34 1465.09 1514.68 1450.82 1509.44 1437C1508.32 1434.05 1509.81 1430.75 1512.76 1429.62C1515.71 1428.51 1519.03 1429.98 1520.15 1432.95C1525.51 1447.08 1530.28 1461.7 1534.34 1476.38C1535.18 1479.43 1533.39 1482.58 1530.34 1483.42C1529.69 1483.6 1529.03 1483.66 1528.39 1483.61Z" fill="#91B3FA"/>
<path id="Vector_5" d="M930.344 2075.14C929.953 2075.11 929.561 2075.04 929.168 2074.93C921.809 2072.79 914.381 2070.45 907.09 2067.96C904.097 2066.94 902.498 2063.69 903.52 2060.69C904.54 2057.69 907.799 2056.06 910.787 2057.12C917.911 2059.55 925.169 2061.85 932.36 2063.93C935.395 2064.81 937.143 2067.99 936.263 2071.02C935.497 2073.67 932.987 2075.34 930.344 2075.14Z" fill="#91B3FA"/>
</g>
<g id="Group_7">
<path id="Vector_6" d="M636.32 1834.27C634.405 1834.12 632.608 1833.03 631.658 1831.19C628.146 1824.42 624.725 1817.42 621.485 1810.38C620.163 1807.51 621.423 1804.11 624.294 1802.79C627.177 1801.46 630.567 1802.73 631.889 1805.6C635.05 1812.48 638.392 1819.31 641.823 1825.92C643.279 1828.73 642.183 1832.18 639.378 1833.64C638.401 1834.15 637.343 1834.34 636.32 1834.27Z" fill="#91B3FA"/>
<path id="Vector_7" d="M601.148 1746.03C598.829 1745.86 596.755 1744.27 596.074 1741.91C592.833 1730.65 589.95 1719.13 587.513 1707.65C586.844 1704.49 586.207 1701.34 585.598 1698.18C585 1695.08 587.035 1692.08 590.138 1691.48C593.261 1690.87 596.246 1692.92 596.844 1696.02C597.435 1699.1 598.06 1702.19 598.713 1705.27C601.094 1716.48 603.91 1727.74 607.075 1738.74C607.95 1741.77 606.196 1744.95 603.16 1745.82C602.486 1746.02 601.809 1746.08 601.148 1746.03ZM582.474 1631.13C579.614 1630.91 577.307 1628.58 577.189 1625.65C576.582 1610.73 576.669 1595.59 577.449 1580.68C577.612 1577.52 580.305 1575.09 583.463 1575.26C586.504 1575.45 589.05 1578.11 588.882 1581.27C588.122 1595.84 588.037 1610.62 588.629 1625.18C588.757 1628.34 586.302 1631.01 583.141 1631.14C582.916 1631.15 582.695 1631.14 582.474 1631.13ZM591.947 1515.08C591.702 1515.06 591.455 1515.02 591.209 1514.98C588.111 1514.34 586.12 1511.31 586.758 1508.21C589.773 1493.58 593.511 1478.92 597.868 1464.64C598.789 1461.61 602.008 1459.92 605.015 1460.83C608.038 1461.75 609.745 1464.95 608.821 1467.98C604.567 1481.93 600.917 1496.24 597.972 1510.53C597.384 1513.38 594.774 1515.29 591.947 1515.08ZM629.078 1404.75C628.386 1404.7 627.696 1404.53 627.036 1404.21C624.183 1402.85 622.974 1399.43 624.336 1396.58C630.775 1383.1 637.915 1369.77 645.559 1356.94C647.175 1354.22 650.685 1353.32 653.408 1354.95C656.124 1356.57 657.014 1360.08 655.393 1362.8C647.929 1375.32 640.958 1388.35 634.672 1401.51C633.622 1403.7 631.361 1404.92 629.078 1404.75ZM691.497 1306.51C690.365 1306.42 689.247 1306 688.301 1305.23C685.855 1303.22 685.496 1299.62 687.501 1297.17C696.952 1285.63 707.064 1274.39 717.556 1263.74C719.773 1261.5 723.397 1261.47 725.651 1263.69C727.905 1265.91 727.928 1269.53 725.708 1271.79C715.466 1282.18 705.588 1293.16 696.357 1304.43C695.128 1305.93 693.295 1306.64 691.497 1306.51ZM775.576 1226.04C773.981 1225.92 772.448 1225.14 771.415 1223.76C769.521 1221.23 770.039 1217.64 772.571 1215.75C784.507 1206.82 797.021 1198.33 809.765 1190.53C812.464 1188.88 815.986 1189.72 817.638 1192.42C819.29 1195.11 818.444 1198.64 815.747 1200.29C803.303 1207.91 791.085 1216.2 779.428 1224.92C778.276 1225.78 776.906 1226.14 775.576 1226.04ZM876.537 1168.19C874.46 1168.03 872.543 1166.75 871.682 1164.7C870.455 1161.79 871.822 1158.43 874.737 1157.2C888.494 1151.41 902.689 1146.19 916.93 1141.69C919.954 1140.73 923.161 1142.41 924.113 1145.43C925.068 1148.44 923.396 1151.66 920.381 1152.61C906.474 1157.01 892.612 1162.1 879.179 1167.76C878.314 1168.12 877.413 1168.25 876.537 1168.19ZM988.459 1136.26C985.875 1136.07 983.665 1134.12 983.237 1131.45C982.738 1128.33 984.866 1125.39 987.99 1124.9C1002.74 1122.54 1017.78 1120.84 1032.67 1119.85C1035.8 1119.65 1038.55 1122.02 1038.77 1125.18C1038.98 1128.33 1036.59 1131.06 1033.43 1131.27C1018.89 1132.25 1004.2 1133.9 989.793 1136.2C989.343 1136.27 988.897 1136.29 988.459 1136.26ZM1148.86 1137.72C1148.66 1137.7 1148.46 1137.68 1148.27 1137.65C1133.89 1135.07 1119.24 1133.14 1104.74 1131.91C1101.59 1131.65 1099.25 1128.88 1099.51 1125.73C1099.78 1122.6 1102.52 1120.27 1105.64 1120.5C1105.66 1120.5 1105.68 1120.5 1105.7 1120.5C1120.56 1121.76 1135.56 1123.74 1150.28 1126.37C1153.4 1126.93 1155.47 1129.91 1154.91 1133.02C1154.39 1135.93 1151.75 1137.94 1148.86 1137.72Z" fill="#91B3FA"/>
<path id="Vector_8" d="M1240.46 1163.73C1239.9 1163.69 1239.34 1163.56 1238.78 1163.35C1231.83 1160.6 1224.69 1157.98 1217.56 1155.55C1214.57 1154.53 1212.97 1151.28 1213.99 1148.28C1215.01 1145.29 1218.27 1143.66 1221.25 1144.71C1228.55 1147.2 1235.87 1149.88 1242.99 1152.7C1245.93 1153.86 1247.38 1157.18 1246.22 1160.13C1245.27 1162.52 1242.9 1163.91 1240.46 1163.73Z" fill="#91B3FA"/>
</g>
<g id="Group_8">
<path id="Vector_9" d="M1242.31 1281.82C1240.29 1280.41 1237.59 1280.44 1235.6 1281.9L1178.75 1323.4C1148.2 1311.27 1115.5 1303.92 1081.72 1302.13L1047.42 1240.72C1046.22 1238.56 1043.78 1237.41 1041.36 1237.85L958.255 1252.73C955.826 1253.17 953.941 1255.1 953.56 1257.53L942.715 1327.03C911.657 1340.43 883.539 1358.67 859.102 1380.66L791.383 1361.47C789.009 1360.8 786.471 1361.71 785.061 1363.73L736.825 1433.02C735.414 1435.04 735.445 1437.74 736.9 1439.73L778.4 1496.58C766.267 1527.13 758.919 1559.83 757.132 1593.61L695.72 1627.9C693.566 1629.11 692.412 1631.54 692.847 1633.97L707.733 1717.07C708.168 1719.5 710.096 1721.39 712.534 1721.77L782.032 1732.61C795.434 1763.67 813.676 1791.79 835.66 1816.23L816.473 1883.95C815.801 1886.32 816.709 1888.86 818.733 1890.27L888.02 1938.5C890.045 1939.91 892.742 1939.88 894.735 1938.43L951.582 1896.93C982.13 1909.06 1014.83 1916.41 1048.61 1918.2L1082.91 1979.61C1084.11 1981.76 1086.55 1982.92 1088.97 1982.48L1172.08 1967.6C1174.51 1967.16 1176.39 1965.23 1176.77 1962.8L1187.62 1893.3C1218.68 1879.9 1246.79 1861.65 1271.23 1839.67L1338.95 1858.86C1341.32 1859.53 1343.86 1858.62 1345.27 1856.6L1393.51 1787.31C1394.92 1785.28 1394.89 1782.59 1393.43 1780.59L1351.93 1723.75C1364.07 1693.2 1371.42 1660.49 1373.2 1626.72L1434.61 1592.42C1436.77 1591.22 1437.92 1588.78 1437.49 1586.35L1422.6 1503.25C1422.16 1500.82 1420.24 1498.94 1417.8 1498.56L1348.3 1487.71C1334.9 1456.65 1316.66 1428.54 1294.67 1404.1L1313.86 1336.38C1314.53 1334.01 1313.63 1331.47 1311.6 1330.06L1242.31 1281.82Z" fill="#91B3FA"/>
<g id="Group_9">
<path id="Vector_10" d="M1059.06 1693.53C1051.15 1692.94 1043.29 1691.21 1035.66 1688.34C1014.79 1680.45 998.225 1664.91 989.035 1644.58C979.842 1624.24 979.117 1601.54 986.997 1580.66C994.877 1559.78 1010.41 1543.22 1030.75 1534.03C1051.09 1524.84 1073.79 1524.12 1094.67 1531.99C1115.55 1539.88 1132.11 1555.41 1141.3 1575.75C1150.5 1596.09 1151.22 1618.79 1143.34 1639.67C1135.46 1660.55 1119.92 1677.11 1099.58 1686.3C1086.67 1692.14 1072.8 1694.56 1059.06 1693.53ZM1070.02 1543.93C1059.1 1543.12 1048.09 1545.04 1037.83 1549.68C1004.48 1564.75 989.611 1604.15 1004.68 1637.5C1011.99 1653.66 1025.14 1666 1041.73 1672.27C1058.32 1678.53 1076.35 1677.96 1092.51 1670.65C1108.66 1663.35 1121.01 1650.19 1127.27 1633.6C1133.53 1617.01 1132.96 1598.98 1125.65 1582.82C1118.35 1566.67 1105.19 1554.32 1088.6 1548.06C1082.55 1545.78 1076.3 1544.4 1070.02 1543.93Z" fill="#BDD0FB"/>
</g>
<path id="Vector_11" d="M1048.09 1823.49C1010.68 1820.7 974.561 1807.95 942.967 1785.95C896.428 1753.55 865.291 1704.97 855.292 1649.15C852.079 1631.22 851.173 1613.23 852.495 1595.52C855.29 1558.12 868.038 1522.01 890.028 1490.42C922.427 1443.88 971.012 1412.74 1026.83 1402.74C1028.29 1402.48 1029.75 1402.23 1031.21 1402.01C1043.22 1400.11 1055.36 1399.24 1067.41 1399.4C1068.91 1399.42 1070.41 1399.46 1071.91 1399.51L1071.31 1416.68C1057.53 1416.19 1043.58 1417.19 1029.86 1419.65C981.287 1428.35 938.675 1454.47 909.005 1493.52C907.336 1495.72 905.708 1497.96 904.125 1500.23C883.913 1529.27 872.198 1562.46 869.629 1596.83C868.411 1613.11 869.246 1629.64 872.198 1646.12C881.387 1697.42 910.006 1742.08 952.782 1771.85C995.555 1801.64 1047.37 1812.98 1098.67 1803.78C1188.08 1787.77 1252.42 1712.86 1258.88 1626.19C1260.07 1610.2 1259.29 1593.81 1256.33 1577.31C1250.1 1542.49 1234.58 1510.08 1211.45 1483.56L1224.39 1472.27C1249.57 1501.13 1266.46 1536.4 1273.24 1574.28C1276.46 1592.23 1277.3 1610.06 1276.01 1627.46C1268.98 1721.76 1198.98 1803.26 1101.7 1820.69C1083.78 1823.9 1065.79 1824.81 1048.09 1823.49Z" fill="#BDD0FB"/>
</g>
</g>
<g id="Group_10">
<g id="Group_11">
<path id="Vector_12" d="M2105.56 1152.17C2102.99 1151.98 2100.58 1150.49 2099.33 1148.02C2094.83 1139.19 2089.88 1130.48 2084.6 1122.13C2082.35 1118.58 2083.41 1113.87 2086.97 1111.62C2090.53 1109.38 2095.24 1110.44 2097.49 1113.99C2103.02 1122.73 2108.21 1131.86 2112.92 1141.11C2114.83 1144.87 2113.33 1149.45 2109.58 1151.36C2108.29 1152.02 2106.91 1152.27 2105.56 1152.17Z" fill="#91B3FA"/>
<path id="Vector_13" d="M1834.88 1630.65C1831.17 1630.37 1828.12 1627.41 1827.85 1623.59C1827.55 1619.39 1830.71 1615.74 1834.91 1615.44C1849.67 1614.39 1864.57 1612.28 1879.2 1609.17C1884.36 1608.08 1889.46 1606.86 1894.5 1605.54C1898.58 1604.46 1902.75 1606.9 1903.82 1610.98C1904.89 1615.05 1902.45 1619.22 1898.38 1620.28C1893.1 1621.68 1887.77 1622.93 1882.36 1624.09C1867.05 1627.34 1851.45 1629.55 1836 1630.65C1835.62 1630.68 1835.25 1630.68 1834.88 1630.65ZM1987.77 1580.61C1985.45 1580.44 1983.23 1579.21 1981.89 1577.08C1979.64 1573.52 1980.7 1568.81 1984.26 1566.56C2001.25 1555.84 2017.32 1543.42 2032.03 1529.67C2035.1 1526.79 2039.92 1526.95 2042.81 1530.03C2045.68 1533.11 2045.52 1537.94 2042.44 1540.81C2027.04 1555.21 2010.2 1568.21 1992.4 1579.46C1990.97 1580.37 1989.34 1580.73 1987.77 1580.61ZM2098.66 1464.12C2097.57 1464.04 2096.48 1463.73 2095.47 1463.15C2091.81 1461.08 2090.52 1456.43 2092.59 1452.76C2102.52 1435.23 2110.84 1416.69 2117.31 1397.66C2118.67 1393.67 2122.98 1391.52 2126.99 1392.9C2130.98 1394.26 2133.11 1398.58 2131.75 1402.57C2124.97 1422.5 2116.26 1441.92 2105.86 1460.28C2104.36 1462.93 2101.51 1464.33 2098.66 1464.12ZM2141.38 1309.04C2137.37 1308.74 2134.24 1305.35 2134.33 1301.28C2134.75 1281.22 2133.27 1260.95 2129.92 1241.05C2129.22 1236.89 2132.02 1232.96 2136.17 1232.26C2140.32 1231.53 2144.26 1234.36 2144.96 1238.51C2148.47 1259.36 2150.02 1280.59 2149.58 1301.59C2149.49 1305.81 2146 1309.14 2141.8 1309.06C2141.65 1309.06 2141.52 1309.05 2141.38 1309.04Z" fill="#91B3FA"/>
<path id="Vector_14" d="M1734.68 1622.35C1734.27 1622.32 1733.86 1622.26 1733.45 1622.16C1723.36 1619.73 1713.28 1616.8 1703.5 1613.45C1699.52 1612.08 1697.4 1607.75 1698.76 1603.76C1700.12 1599.78 1704.45 1597.66 1708.44 1599.01C1717.78 1602.21 1727.39 1605.01 1737.03 1607.33C1741.12 1608.32 1743.64 1612.44 1742.65 1616.53C1741.76 1620.21 1738.34 1622.62 1734.68 1622.35Z" fill="#91B3FA"/>
</g>
<g id="Group_12">
<path id="Vector_15" d="M1519.2 1453.77C1516.65 1453.58 1514.26 1452.12 1512.99 1449.68C1508.24 1440.51 1503.84 1430.97 1499.93 1421.33C1498.35 1417.43 1500.23 1412.98 1504.13 1411.4C1508.03 1409.82 1512.48 1411.7 1514.06 1415.61C1517.79 1424.8 1521.99 1433.9 1526.53 1442.66C1528.47 1446.39 1527.01 1450.99 1523.27 1452.93C1521.97 1453.61 1520.56 1453.87 1519.2 1453.77Z" fill="#91B3FA"/>
<path id="Vector_16" d="M1483.35 1330.22C1479.69 1329.94 1476.66 1327.05 1476.33 1323.28C1474.75 1305.26 1474.63 1286.98 1475.97 1268.95C1476.17 1266.31 1476.4 1263.68 1476.66 1261.05C1477.08 1256.87 1480.92 1254.06 1485 1254.22C1489.19 1254.63 1492.25 1258.37 1491.83 1262.56C1491.59 1265.06 1491.37 1267.56 1491.18 1270.08C1489.9 1287.29 1490.01 1304.74 1491.52 1321.95C1491.89 1326.14 1488.79 1329.84 1484.59 1330.21C1484.17 1330.25 1483.75 1330.25 1483.35 1330.22ZM1507.96 1173.92C1507.16 1173.86 1506.35 1173.67 1505.56 1173.33C1501.68 1171.7 1499.87 1167.23 1501.5 1163.35C1509.55 1144.27 1519.42 1125.84 1530.83 1108.53C1533.15 1105.02 1537.88 1104.05 1541.4 1106.37C1544.91 1108.68 1545.88 1113.42 1543.56 1116.93C1532.67 1133.45 1523.24 1151.07 1515.55 1169.28C1514.25 1172.37 1511.14 1174.15 1507.96 1173.92ZM1602.51 1047.07C1600.51 1046.92 1598.57 1045.98 1597.19 1044.31C1594.51 1041.06 1594.98 1036.25 1598.24 1033.58C1614.23 1020.42 1631.54 1008.67 1649.71 998.673C1653.4 996.648 1658.03 997.995 1660.07 1001.68C1662.09 1005.37 1660.75 1010 1657.06 1012.04C1639.72 1021.58 1623.19 1032.79 1607.92 1045.35C1606.35 1046.65 1604.4 1047.21 1602.51 1047.07ZM1745.29 978.973C1741.98 978.726 1739.1 976.323 1738.39 972.91C1737.54 968.785 1740.2 964.75 1744.33 963.9C1764.7 959.701 1785.49 957.371 1806.12 956.969C1810.42 956.715 1813.81 960.224 1813.89 964.441C1813.98 968.651 1810.63 972.127 1806.42 972.209C1786.72 972.597 1766.87 974.826 1747.4 978.838C1746.69 978.988 1745.98 979.025 1745.29 978.973Z" fill="#91B3FA"/>
<path id="Vector_17" d="M1932.49 995.061C1931.74 995.005 1930.99 994.837 1930.25 994.551C1921.05 990.914 1911.58 987.669 1902.09 984.914C1898.05 983.739 1895.72 979.503 1896.9 975.462C1898.07 971.42 1902.29 969.084 1906.35 970.269C1916.29 973.161 1926.22 976.553 1935.86 980.364C1939.78 981.911 1941.7 986.34 1940.15 990.256C1938.89 993.44 1935.73 995.303 1932.49 995.061Z" fill="#91B3FA"/>
</g>
<g id="Group_13">
<path id="Vector_18" d="M1934.03 1072.15C1932.65 1071.18 1930.8 1071.2 1929.44 1072.2L1890.55 1100.59C1869.65 1092.29 1847.28 1087.26 1824.17 1086.04L1800.71 1044.03C1799.89 1042.55 1798.22 1041.76 1796.56 1042.06L1739.71 1052.24C1738.05 1052.54 1736.76 1053.86 1736.5 1055.53L1729.08 1103.07C1707.83 1112.24 1688.59 1124.72 1671.88 1139.76L1625.55 1126.63C1623.93 1126.17 1622.19 1126.79 1621.23 1128.18L1588.23 1175.58C1587.27 1176.97 1587.29 1178.81 1588.28 1180.17L1616.67 1219.06C1608.37 1239.96 1603.34 1262.33 1602.12 1285.44L1560.11 1308.9C1558.64 1309.72 1557.85 1311.39 1558.15 1313.05L1568.33 1369.9C1568.63 1371.56 1569.95 1372.85 1571.61 1373.11L1619.16 1380.53C1628.32 1401.78 1640.8 1421.02 1655.84 1437.73L1642.72 1484.06C1642.26 1485.68 1642.88 1487.42 1644.26 1488.38L1691.66 1521.38C1693.05 1522.35 1694.89 1522.33 1696.26 1521.33L1735.14 1492.94C1756.04 1501.24 1778.41 1506.27 1801.52 1507.49L1824.98 1549.5C1825.81 1550.97 1827.47 1551.76 1829.14 1551.46L1885.99 1541.28C1887.65 1540.99 1888.94 1539.66 1889.19 1538L1896.62 1490.45C1917.86 1481.29 1937.1 1468.81 1953.81 1453.77L2000.14 1466.89C2001.76 1467.35 2003.5 1466.73 2004.47 1465.35L2037.46 1417.95C2038.43 1416.56 2038.41 1414.72 2037.41 1413.35L2009.02 1374.46C2017.32 1353.57 2022.35 1331.2 2023.57 1308.09L2065.58 1284.62C2067.06 1283.8 2067.85 1282.13 2067.55 1280.47L2057.36 1223.63C2057.07 1221.96 2055.75 1220.67 2054.08 1220.41L2006.54 1212.99C1997.37 1191.75 1984.89 1172.51 1969.85 1155.79L1982.98 1109.47C1983.44 1107.84 1982.81 1106.11 1981.43 1105.14L1934.03 1072.15Z" fill="#91B3FA"/>
<g id="Group_14">
<path id="Vector_19" d="M1808.28 1359.3C1786.11 1357.65 1765.48 1344.24 1755.7 1322.6C1741.45 1291.09 1755.5 1253.86 1787.01 1239.61H1787.01C1818.53 1225.37 1855.76 1239.42 1870 1270.93C1884.24 1302.44 1870.19 1339.67 1838.68 1353.92C1828.82 1358.37 1818.39 1360.06 1808.28 1359.3ZM1796.44 1260.46C1776.41 1269.5 1767.49 1293.16 1776.54 1313.18C1785.59 1333.19 1809.23 1342.13 1829.26 1333.07C1849.28 1324.02 1858.2 1300.37 1849.16 1280.35C1840.11 1260.34 1816.46 1251.4 1796.44 1260.46Z" fill="#BDD0FB"/>
</g>
<path id="Vector_20" d="M1800.74 1448.24C1774.17 1446.27 1748.51 1437.21 1726.07 1421.58C1693.01 1398.57 1670.9 1364.06 1663.79 1324.42C1661.51 1311.68 1660.87 1298.9 1661.81 1286.32C1663.79 1259.76 1672.85 1234.11 1688.47 1211.67C1711.48 1178.61 1745.99 1156.49 1785.64 1149.39C1796.23 1147.49 1807 1146.72 1817.66 1147.1L1816.85 1169.96C1807.82 1169.64 1798.67 1170.29 1789.68 1171.9C1757.51 1177.67 1729.33 1195.09 1709.85 1221.12C1709.56 1221.51 1709.27 1221.9 1708.98 1222.3C1708.39 1223.11 1707.81 1223.91 1707.24 1224.74C1693.99 1243.77 1686.31 1265.53 1684.62 1288.07C1683.82 1298.73 1684.37 1309.58 1686.31 1320.38C1692.33 1354.02 1711.1 1383.29 1739.14 1402.81C1767.19 1422.35 1801.15 1429.8 1834.78 1423.74C1868.42 1417.72 1897.69 1398.96 1917.22 1370.92C1930.47 1351.88 1938.15 1330.12 1939.83 1307.59C1940.63 1296.92 1940.08 1286.08 1938.15 1275.28C1934.05 1252.45 1923.88 1231.19 1908.73 1213.82L1925.96 1198.78C1943.84 1219.28 1955.84 1244.33 1960.66 1271.24C1962.94 1283.98 1963.59 1296.76 1962.65 1309.33C1960.66 1335.89 1951.61 1361.55 1935.99 1383.98C1912.97 1417.04 1878.46 1439.16 1838.81 1446.27C1826.09 1448.54 1813.31 1449.18 1800.74 1448.24Z" fill="#BDD0FB"/>
</g>
</g>
</g>
<g id="Group_15">
<g id="Group_16">
<path id="Vector_21" d="M1605.94 2682.6C1407.72 2638.89 1557.04 2344.84 1564.08 2333.46L1208.86 2458.2C1208.86 2458.2 1177.14 2629.14 1398.19 2786.46C1454.11 2826.26 1510.69 2843.42 1564.04 2846.92C1560.4 2778.3 1580.72 2723.44 1605.94 2682.6Z" fill="url(#paint1_linear_45_184)"/>
<path id="Vector_22" d="M2009.41 2696.13C1951.16 2624.96 1854.52 2652.06 1854.52 2652.06C1739.36 2687.92 1659.84 2694.49 1605.94 2682.6C1580.72 2723.44 1560.4 2778.3 1564.05 2846.92C1679.47 2854.49 1779.69 2797.92 1825.01 2767.15C1841.32 2756.08 1863.59 2759.68 1875.14 2775.67C1886.86 2791.91 1896.89 2812.44 1889.33 2828.89C1874.42 2861.33 1910.73 2883.32 1917.2 2871.86C1923.67 2860.4 1928 2782.76 1928 2782.76C1928 2782.76 1984.21 2884.37 2006.3 2923.55C2028.38 2962.73 2075.7 2943.3 2075.7 2943.3C2075.7 2943.3 2067.65 2767.31 2009.41 2696.13Z" fill="url(#paint2_linear_45_184)"/>
<path id="Vector_23" d="M815.279 1935.65C815.279 1935.65 1064.7 1739.17 1718.85 2018.64C1718.85 2018.64 1789.6 2096.68 1765.5 2191.78C1741.4 2286.88 1400.72 2816.01 1402.36 3053.32C1402.36 3053.32 929.254 3180.15 586 3053.32C586 3053.32 658.067 3199.53 648.5 3073.33C629.128 2817.8 553.353 2162.48 815.279 1935.65Z" fill="#FFD476"/>
<path id="Vector_24" d="M1344.5 1670L1255 1879.74C1246.12 1900.56 1249.94 1924.76 1265.24 1941.45C1296.16 1975.17 1358.9 2019.05 1458.23 1981.17C1487.78 1969.91 1509.19 1943.77 1514.36 1912.57L1552.44 1682.71L1344.5 1670Z" fill="url(#paint3_linear_45_184)"/>
<path id="Vector_25" d="M803.229 2722.67C799.701 2723.7 795.784 2722.26 793.848 2718.93C720.029 2592.13 956.393 2206.88 966.485 2190.54C968.857 2186.71 973.892 2185.5 977.759 2187.88C981.606 2190.26 982.794 2195.31 980.424 2199.15C977.998 2203.07 739.091 2592.32 808.005 2710.69C810.279 2714.6 808.954 2719.61 805.044 2721.89C804.466 2722.22 803.852 2722.48 803.229 2722.67Z" fill="url(#paint4_linear_45_184)"/>
<g id="Group_17">
<path id="Vector_26" d="M1634.55 1373.56C1634.55 1373.56 1691.07 1556.6 1685.95 1648.79C1680.84 1740.98 1693.95 1802.64 1585.95 1809.27C1477.95 1815.9 1394.59 1753.17 1356.42 1656.52C1356.42 1656.52 1296.36 1507.44 1319.77 1451.74C1343.19 1396.04 1634.55 1373.56 1634.55 1373.56Z" fill="url(#paint5_linear_45_184)"/>
<path id="Vector_27" d="M1399.95 1594.94L1413.34 1596.43C1413.34 1596.43 1370.78 1477.09 1421.48 1462.61C1472.19 1448.13 1668.61 1430.39 1717.65 1366.86C1764.93 1305.62 1738.77 1216.78 1688.11 1187.09C1684.91 1185.21 1680.76 1186.35 1678.67 1189.42L1673.32 1197.29C1669.66 1202.67 1661.3 1200.86 1660.2 1194.44C1659.15 1188.36 1651.34 1186.18 1647.52 1191.03C1632.56 1210 1594.52 1239.31 1500.5 1246.03C1367.09 1255.58 1274.78 1298.84 1262.58 1388.94C1261.81 1394.65 1255.34 1397.12 1250.78 1393.6C1241.79 1386.64 1226.65 1382.16 1204.08 1397.21C1164.82 1423.39 1170.77 1503.31 1242.27 1576.49C1245.67 1579.97 1244.99 1585.8 1240.64 1587.98C1225.34 1595.68 1201.62 1615.4 1253.43 1651C1306.43 1687.41 1340.15 1687.85 1353.1 1686.03C1356.58 1685.54 1359.21 1682.71 1359.38 1679.19L1363.36 1598.59C1363.57 1594.42 1367.25 1591.29 1371.4 1591.75L1399.95 1594.94Z" fill="url(#paint6_linear_45_184)"/>
<path id="Vector_28" d="M1401.37 1612.05C1401.37 1612.05 1384.82 1497.31 1331.33 1523C1277.85 1548.69 1343.34 1650.83 1383.07 1659.49L1401.37 1612.05Z" fill="url(#paint7_linear_45_184)"/>
</g>
<path id="Vector_29" d="M1225.83 3056.83C1226.52 3056.86 1227.22 3056.86 1227.92 3056.85L2136.09 3042.8C2158.54 3042.45 2176.38 3024.9 2175.94 3003.58C2175.5 2982.26 2156.87 2964.91 2134.49 2965.62L1226.32 2979.67C1203.87 2980.01 1186.03 2997.57 1186.47 3018.88C1186.9 3039.53 1204.33 3056.13 1225.83 3056.83Z" fill="url(#paint8_linear_45_184)"/>
</g>
<g id="Group_18">
<g id="Group_19">
<g id="Group_20">
<path id="Vector_30" d="M1579.33 1727.24C1417.52 1740.96 1285.14 1614.26 1284.21 1612.36V1583.8C1285.1 1585.62 1424.59 1726.43 1578.4 1713.38L1579.33 1727.24Z" fill="url(#paint9_linear_45_184)"/>
</g>
<path id="Vector_31" d="M1645.29 1720.22C1645.29 1730.99 1637.52 1739.71 1627.93 1739.71H1581.63C1572.04 1739.71 1564.26 1730.99 1564.26 1720.22C1564.26 1709.45 1572.04 1700.72 1581.63 1700.72H1627.93C1637.52 1700.72 1645.29 1709.45 1645.29 1720.22Z" fill="#FFD476"/>
</g>
<g id="Group_21">
<path id="Vector_32" d="M1366.87 1440.12C1366.87 1440.12 1329.92 1242.95 1557.86 1241.85C1561.01 1241.83 1561.54 1237.31 1558.46 1236.6C1496.02 1222.21 1314.78 1200.9 1312.05 1437.51C1346.78 1450.01 1366.87 1440.12 1366.87 1440.12Z" fill="url(#paint10_linear_45_184)"/>
<path id="Vector_33" d="M1325.1 1416.07C1236.16 1434.12 1247.09 1546.61 1247.09 1546.61C1240.68 1628.24 1264.51 1668.71 1295.04 1687.99C1315.89 1701.16 1342.15 1702.38 1364.18 1691.27C1386.2 1680.16 1400.78 1658.31 1402.6 1633.71C1404.24 1611.49 1406.12 1590.37 1407.77 1582.87C1411.77 1564.7 1414.06 1398.01 1325.1 1416.07Z" fill="url(#paint11_linear_45_184)"/>
</g>
<path id="Vector_34" d="M1333.28 1444.51C1314.81 1441.3 1296.6 1451.11 1289.17 1468.32C1236.01 1591.47 1301.28 1671.58 1333.33 1673.26C1367.1 1675.01 1366.42 1512.53 1359.25 1470.88C1356.24 1453.42 1345.15 1446.57 1333.28 1444.51Z" fill="url(#paint12_linear_45_184)"/>
</g>
</g>
<g id="Group_22">
<path id="Vector_35" d="M497.233 3087.88C495.717 3076.67 497.781 3065.07 502.858 3056.25C507.935 3047.44 515.497 3042.34 523.475 3042.34H3226.16C3236.66 3042.34 3246.42 3050 3252.08 3062.65C3257.73 3075.31 3258.49 3091.22 3254.09 3104.86L3224.8 3195.63C3218.09 3216.42 3203.56 3229.73 3187.57 3229.73H542.021C527.146 3229.73 514.36 3214.62 511.536 3193.71L497.233 3087.88Z" fill="url(#paint13_linear_45_184)"/>
<path id="Vector_36" d="M3187.57 3233.08H542.02C525.481 3233.08 511.263 3216.71 508.216 3194.16L493.913 3088.33C492.298 3076.35 494.502 3064.05 499.959 3054.59C505.665 3044.67 514.236 3038.99 523.476 3038.99H3226.16C3238.07 3038.99 3248.9 3047.32 3255.14 3061.29C3261.15 3074.75 3261.95 3091.42 3257.28 3105.89L3227.99 3196.66C3220.85 3218.78 3204.99 3233.08 3187.57 3233.08ZM500.551 3087.44L514.854 3193.26C517.444 3212.45 528.872 3226.38 542.021 3226.38H3187.57C3202.03 3226.38 3215.39 3213.91 3221.61 3194.61L3250.91 3103.83C3255.08 3090.89 3254.38 3076.01 3249.02 3064.02C3243.9 3052.54 3235.35 3045.69 3226.17 3045.69H523.476C516.697 3045.69 510.239 3050.15 505.76 3057.93C501.025 3066.14 499.128 3076.9 500.551 3087.44Z" fill="#91B3FA"/>
</g>
<g id="Group_23">
<path id="Vector_37" d="M1926.39 2010.94C1911.13 2135.68 1842.45 2642.5 1822.79 2787.31C1820.03 2807.68 1836.2 2825.59 1856.75 2825L3021.77 2791.66C3037.01 2791.23 3050.01 2780.49 3053.32 2765.6L3234.55 1949.44C3239.34 1927.86 3222.16 1907.69 3200.1 1908.98L1957.49 1981.76C1941.43 1982.7 1928.35 1994.97 1926.39 2010.94Z" fill="url(#paint14_linear_45_184)"/>
<g id="Group_24">
<path id="Vector_38" d="M2394.69 2522.76L2222.51 3011.47L2622.87 3019.95L2656.21 2525.69C2657.77 2502.5 2638.54 2483.24 2615.34 2484.78L2428.37 2497.2C2413.04 2498.22 2399.79 2508.27 2394.69 2522.76Z" fill="url(#paint15_linear_45_184)"/>
<path id="Vector_39" d="M2626 3023.37L2622.8 3023.3L2217.81 3014.72L2391.53 2521.65C2397.08 2505.88 2411.46 2494.97 2428.15 2493.86L2615.12 2481.44C2627.17 2480.67 2638.91 2485.07 2647.43 2493.59C2655.94 2502.12 2660.36 2513.9 2659.55 2525.92L2626 3023.37ZM2227.2 3008.22L2619.75 3016.54L2652.87 2525.47C2653.55 2515.38 2649.84 2505.48 2642.69 2498.33C2635.54 2491.17 2625.66 2487.47 2615.56 2488.13L2428.59 2500.54C2414.58 2501.47 2402.51 2510.63 2397.85 2523.87L2227.2 3008.22Z" fill="#91B3FA"/>
</g>
<g id="Group_25">
<path id="Vector_40" d="M2060.19 3018.43C2055.78 3031.88 2065.79 3045.71 2079.95 3045.71H2706.95C2718.43 3045.71 2727.74 3036.4 2727.74 3024.91V2998.02C2727.74 2986.19 2717.88 2976.74 2706.05 2977.25L2079.06 3004.14C2070.41 3004.51 2062.89 3010.2 2060.19 3018.43Z" fill="url(#paint16_linear_45_184)"/>
<path id="Vector_41" d="M2706.95 3049.06H2079.95C2072.12 3049.06 2064.99 3045.42 2060.39 3039.07C2055.8 3032.73 2054.57 3024.83 2057.01 3017.39C2060.12 3007.89 2068.92 3001.22 2078.91 3000.79L2705.91 2973.9C2712.56 2973.61 2718.85 2975.99 2723.65 2980.59C2728.45 2985.18 2731.09 2991.38 2731.09 2998.02V3024.91C2731.09 3038.23 2720.26 3049.06 2706.95 3049.06ZM2706.97 2980.57C2706.71 2980.57 2706.46 2980.58 2706.2 2980.59L2079.2 3007.48C2071.98 3007.79 2065.62 3012.61 2063.37 3019.47C2061.61 3024.85 2062.5 3030.56 2065.82 3035.15C2069.14 3039.73 2074.29 3042.36 2079.95 3042.36H2706.95C2716.57 3042.36 2724.39 3034.53 2724.39 3024.91V2998.02C2724.39 2993.22 2722.48 2988.74 2719.01 2985.42C2715.73 2982.28 2711.48 2980.57 2706.97 2980.57Z" fill="#91B3FA"/>
</g>
<path id="Vector_42" d="M1908.79 2526.54L1900.53 2525.49L1957.77 2074.07C1961.32 2046.07 1984.34 2024.52 2012.51 2022.82L3086.32 1957.97L3086.82 1966.28L2013.02 2031.13C1988.84 2032.59 1969.08 2051.09 1966.04 2075.12L1908.79 2526.54Z" fill="#91B3FA"/>
<path id="Vector_43" d="M1884.14 2654.28L1871.81 2752.01L1880.08 2753.06L1892.4 2655.32L1884.14 2654.28Z" fill="#91B3FA"/>
</g>
<g id="shop">
<path id="Vector_44" d="M2280.61 811.979V1063.31C2280.61 1093.17 2304.07 1117.77 2333.9 1119.17L2648.2 1133.93C2680.08 1135.43 2706.74 1109.99 2706.74 1078.08V811.979C2706.74 781.097 2681.71 756.062 2650.82 756.062H2336.53C2305.64 756.063 2280.61 781.097 2280.61 811.979Z" fill="url(#paint17_linear_45_184)"/>
<g id="Group_26">
<g id="Group_27">
<g id="Group_28">
<g id="Group_29">
<g id="Group_30">
<g id="Group_31">
<path id="Vector_45" d="M2400.56 879.623L2388.29 834.267L2352.49 814.764L2347.72 823.494L2379.76 840.788L2417.94 980.785L2419.12 984.944H2574.9C2590.08 984.944 2604.04 977.497 2612.28 964.748L2619.26 955.529C2626.78 943.883 2631.73 930.495 2631.73 916.631V879.623H2400.56ZM2620.45 916.631C2620.45 928.559 2616.69 940.166 2610.21 950.184L2604.04 960.564C2597.66 970.44 2586.67 977.421 2574.9 977.421H2426.77L2418.66 947.497L2403.3 890.908H2620.45V916.631Z" fill="white"/>
</g>
<g id="Group_32">
<path id="Vector_46" d="M2610.74 1035.73C2610.74 1038.49 2608.49 1041.37 2605.73 1041.37H2422.95C2420.17 1041.37 2417.33 1037.04 2417.33 1034.28V948.093C2417.33 947.144 2417.89 947.341 2418.36 946.584L2426.77 977.421H2428.62V1030.08H2605.73C2608.49 1030.08 2610.74 1032.96 2610.74 1035.73Z" fill="white"/>
</g>
</g>
<g id="Group_33">
<path id="Vector_47" d="M2515.94 884.634H2509.26V978.457H2515.94V884.634Z" fill="white"/>
<g id="Group_34">
<path id="Vector_48" d="M2457 884.634H2450.33V978.457H2457V884.634Z" fill="white"/>
<path id="Vector_49" d="M2573.48 884.634H2566.81V978.457H2573.48V884.634Z" fill="white"/>
</g>
</g>
<g id="Group_35">
<path id="Vector_50" d="M2622.84 912.233H2405.83V918.199H2622.84V912.233Z" fill="white"/>
<path id="Vector_51" d="M2617.4 944.892H2415.3V950.859H2617.4V944.892Z" fill="white"/>
</g>
</g>
<path id="Vector_52" d="M2446.35 1047.8C2434.45 1047.8 2424.8 1057.45 2424.8 1069.35C2424.8 1081.26 2434.45 1090.91 2446.35 1090.91C2458.26 1090.91 2467.91 1081.26 2467.91 1069.35C2467.91 1057.45 2458.26 1047.8 2446.35 1047.8ZM2446.35 1082.36C2439.17 1082.36 2433.35 1076.54 2433.35 1069.35C2433.35 1062.17 2439.17 1056.35 2446.35 1056.35C2453.54 1056.35 2459.36 1062.17 2459.36 1069.35C2459.36 1076.54 2453.54 1082.36 2446.35 1082.36Z" fill="white"/>
<path id="Vector_53" d="M2580.28 1047.8C2568.38 1047.8 2558.73 1057.45 2558.73 1069.35C2558.73 1081.26 2568.38 1090.91 2580.28 1090.91C2592.18 1090.91 2601.83 1081.26 2601.83 1069.35C2601.83 1057.45 2592.18 1047.8 2580.28 1047.8ZM2580.28 1082.36C2573.1 1082.36 2567.27 1076.54 2567.27 1069.35C2567.27 1062.17 2573.1 1056.35 2580.28 1056.35C2587.46 1056.35 2593.29 1062.17 2593.29 1069.35C2593.29 1076.54 2587.46 1082.36 2580.28 1082.36Z" fill="white"/>
</g>
<path id="Vector_54" d="M2374.7 823.461C2374.7 829.053 2370.16 833.586 2364.57 833.586H2330.88C2325.29 833.586 2320.76 829.053 2320.76 823.461C2320.76 817.869 2325.29 813.336 2330.88 813.336H2364.57C2370.16 813.336 2374.7 817.869 2374.7 823.461Z" fill="white"/>
</g>
</g>
</g>
<g id="msg">
<path id="Vector_55" d="M1599.28 521.417V791.017C1599.28 823.049 1624.45 849.429 1656.45 850.931L1993.59 866.772C2027.78 868.378 2056.39 841.087 2056.39 806.856V521.417C2056.39 488.29 2029.53 461.436 1996.41 461.436H1659.26C1626.14 461.436 1599.28 488.29 1599.28 521.417Z" fill="url(#paint18_linear_45_184)"/>
<g id="Group_36">
<path id="Vector_56" d="M1944.54 786.125H1712.21C1694.79 786.125 1680.63 771.959 1680.63 754.548V584.641C1680.63 567.23 1694.79 553.064 1712.21 553.064H1944.54C1961.95 553.064 1976.12 567.23 1976.12 584.641V754.548C1976.12 771.959 1961.95 786.125 1944.54 786.125ZM1712.21 573.872C1706.27 573.872 1701.44 578.702 1701.44 584.64V754.547C1701.44 760.485 1706.27 765.315 1712.21 765.315H1944.54C1950.48 765.315 1955.31 760.484 1955.31 754.547V584.641C1955.31 578.703 1950.48 573.873 1944.54 573.873L1712.21 573.872Z" fill="white"/>
<path id="Vector_57" d="M1828.58 673.343C1826.47 673.343 1824.36 672.705 1822.56 671.424L1692.37 579.098C1687.68 575.776 1686.57 569.281 1689.9 564.593C1693.23 559.907 1699.72 558.803 1704.41 562.126L1828.57 650.18L1951.12 563.136C1955.81 559.807 1962.3 560.903 1965.63 565.593C1968.96 570.279 1967.86 576.774 1963.18 580.101L1834.6 671.421C1832.8 672.703 1830.69 673.343 1828.58 673.343Z" fill="white"/>
<path id="Vector_58" d="M1699.99 778.858L1696.98 758.268L1698.39 768.577L1689.67 762.909C1692.08 759.034 1739.03 676.909 1770.01 622.653C1772.85 617.664 1779.2 615.916 1784.2 618.775C1789.19 621.622 1790.93 627.979 1788.08 632.968C1788.08 632.968 1767.99 668.15 1747.87 703.339C1737.8 720.937 1727.73 738.538 1720.15 751.74C1705.04 778.069 1705.04 778.069 1699.99 778.858Z" fill="white"/>
<path id="Vector_59" d="M1956.37 778.853C1951.34 778.054 1951.34 778.054 1936.23 751.741C1928.65 738.536 1918.58 720.938 1908.52 703.34C1888.39 668.152 1868.31 632.969 1868.31 632.969C1865.46 627.98 1867.19 621.623 1872.18 618.774C1877.17 615.925 1883.53 617.665 1886.38 622.654C1917.35 676.904 1964.3 759.026 1966.72 762.908L1958 768.578L1956.37 778.853Z" fill="white"/>
</g>
</g>
<g id="settings">
<path id="Vector_60" d="M2670.86 1358.09V1595.23C2670.86 1623.41 2693 1646.61 2721.14 1647.93L3017.68 1661.86C3047.76 1663.28 3072.92 1639.27 3072.92 1609.16V1358.1C3072.92 1328.96 3049.3 1305.34 3020.16 1305.34H2723.62C2694.48 1305.34 2670.86 1328.96 2670.86 1358.09Z" fill="url(#paint19_linear_45_184)"/>
<path id="Vector_61" d="M2746.74 1643.05C2742.43 1643.05 2738.49 1641.74 2735.5 1639L2726.92 1631.13C2722.77 1627.32 2721.04 1621.46 2722.07 1614.64C2723.03 1608.21 2726.37 1601.6 2731.47 1596.04L2737.19 1589.8C2737.6 1589.36 2738.01 1588.93 2738.43 1588.5L2845.39 1481.55C2846.42 1480.52 2848.08 1480.52 2849.11 1481.55C2850.14 1482.58 2850.14 1484.25 2849.11 1485.28L2742.16 1592.23C2741.79 1592.6 2741.43 1592.97 2741.08 1593.36L2735.35 1599.6C2730.96 1604.39 2728.09 1610.01 2727.27 1615.43C2726.52 1620.46 2727.66 1624.65 2730.48 1627.25L2739.06 1635.12C2745.1 1640.65 2757.52 1637.34 2766.19 1627.88L2771.91 1621.64C2772.27 1621.26 2772.61 1620.87 2772.95 1620.47L2858.36 1518.88C2859.29 1517.77 2860.96 1517.62 2862.07 1518.56C2863.18 1519.49 2863.33 1521.15 2862.39 1522.27L2776.98 1623.86C2776.59 1624.31 2776.2 1624.77 2775.79 1625.21L2770.07 1631.44C2763.18 1638.95 2754.37 1643.05 2746.74 1643.05ZM2749.33 1626.27C2746.41 1626.27 2743.79 1625.39 2741.78 1623.55C2735.83 1618.09 2737.83 1606.55 2746.33 1597.28C2750.22 1593.04 2754.91 1589.94 2759.52 1588.55C2764.61 1587.01 2769.08 1587.7 2772.11 1590.48C2775.14 1593.26 2776.21 1597.65 2775.12 1602.86C2774.13 1607.57 2771.45 1612.5 2767.56 1616.75C2761.93 1622.88 2755.06 1626.27 2749.33 1626.27ZM2764.59 1593.02C2763.25 1593.02 2761.95 1593.31 2761.04 1593.59C2757.32 1594.71 2753.47 1597.28 2750.21 1600.84C2744.03 1607.58 2741.75 1616.38 2745.34 1619.66C2748.53 1622.59 2756.84 1620.64 2763.67 1613.19V1613.18C2766.93 1609.63 2769.17 1605.58 2769.96 1601.78C2770.36 1599.86 2770.71 1596.34 2768.55 1594.36C2767.44 1593.34 2765.99 1593.02 2764.59 1593.02ZM2897.77 1478.73C2897.17 1478.73 2896.57 1478.53 2896.07 1478.11C2894.96 1477.18 2894.82 1475.51 2895.75 1474.4L2926.56 1437.76L2928.5 1438.93C2952.49 1453.54 2981.28 1449.55 3000.12 1429C3012.32 1415.7 3018.25 1398.01 3016.39 1380.45C3016.14 1378.08 3014.63 1376.23 3012.35 1375.47C3010.53 1374.87 3007.9 1374.99 3005.95 1377.12L2972.75 1413.32C2969.85 1416.48 2965.58 1418.14 2961.3 1417.78L2943.44 1416.24C2937.16 1415.7 2932.02 1410.98 2930.94 1404.77L2927.86 1387.1C2927.13 1382.88 2928.42 1378.48 2931.32 1375.32L2964.52 1339.12C2966.47 1337 2966.36 1334.36 2965.61 1332.61C2964.67 1330.4 2962.68 1329.05 2960.31 1329C2942.69 1328.68 2925.53 1336.1 2913.33 1349.4C2894.49 1369.95 2892.99 1398.97 2909.62 1421.61L2910.95 1423.44L2871.03 1463.36C2870 1464.38 2868.34 1464.38 2867.31 1463.36C2866.28 1462.33 2866.28 1460.66 2867.31 1459.63L2904.06 1422.88C2887.31 1398.44 2889.36 1367.74 2909.45 1345.84C2922.67 1331.43 2941.21 1323.34 2960.41 1323.74C2964.85 1323.82 2968.7 1326.43 2970.45 1330.53C2972.24 1334.7 2971.45 1339.36 2968.4 1342.69L2935.2 1378.88C2933.4 1380.84 2932.6 1383.58 2933.05 1386.2L2936.13 1403.86C2936.8 1407.72 2939.99 1410.65 2943.9 1410.99L2961.76 1412.53C2964.41 1412.76 2967.07 1411.72 2968.86 1409.76L3002.06 1373.56C3005.12 1370.24 3009.69 1369.05 3013.99 1370.47C3018.23 1371.87 3021.16 1375.48 3021.63 1379.89C3023.65 1398.95 3017.22 1418.15 3004 1432.56C2983.92 1454.46 2953.51 1459.16 2927.71 1444.58L2899.78 1477.79C2899.26 1478.41 2898.52 1478.73 2897.77 1478.73Z" fill="white"/>
<g id="Group_37">
<path id="Vector_62" d="M2977.94 1644.41C2977.24 1644.41 2976.54 1644.38 2975.83 1644.33C2969.16 1643.76 2963.16 1640.6 2958.93 1635.42L2859.68 1513.9C2855.39 1508.65 2856.03 1501.05 2861.14 1496.59L2880.72 1479.51C2885.83 1475.05 2893.45 1475.45 2898.07 1480.41L3005 1595.22C3009.56 1600.11 3011.88 1606.49 3011.54 1613.17C3011.19 1619.85 3008.22 1625.95 3003.18 1630.35L2993.98 1638.38C2989.47 1642.31 2983.84 1644.41 2977.94 1644.41ZM2885.33 1484.8L2865.76 1501.88C2863.52 1503.83 2863.24 1507.16 2865.12 1509.46L2964.37 1630.97C2967.39 1634.67 2971.67 1636.93 2976.42 1637.33C2981.18 1637.72 2985.77 1636.22 2989.36 1633.09L2998.57 1625.05C3002.16 1621.92 3004.28 1617.57 3004.53 1612.81C3004.77 1608.04 3003.12 1603.5 2999.87 1600.01L2892.93 1485.2C2890.91 1483.03 2887.57 1482.85 2885.33 1484.8Z" fill="white"/>
</g>
<path id="Vector_63" d="M2865.93 1498.76L2779.79 1398.01C2778.43 1397.97 2777.17 1397.54 2776.12 1396.74L2750.29 1376.92C2749.58 1376.38 2749.01 1375.7 2748.61 1374.9L2737.16 1352.24C2735.76 1349.46 2736.61 1345.92 2739.24 1343.63L2745.69 1338C2748.32 1335.71 2751.94 1335.34 2754.51 1337.1L2775.43 1351.54C2776.13 1352.02 2776.71 1352.63 2777.14 1353.36L2793.86 1381.08C2794.74 1382.54 2794.96 1384.3 2794.51 1386.02L2883.26 1485.71L2865.93 1498.76ZM2781.92 1392.4L2866.72 1491.58L2875.52 1484.95L2788.27 1386.93L2789.17 1385.3C2789.49 1384.73 2789.56 1384.14 2789.35 1383.8L2772.63 1356.08C2772.59 1356 2772.52 1355.93 2772.45 1355.88L2751.52 1341.44C2751.05 1341.11 2750.01 1341.23 2749.16 1341.97L2742.71 1347.6C2741.85 1348.34 2741.6 1349.35 2741.86 1349.86L2753.31 1372.52C2753.35 1372.61 2753.42 1372.68 2753.5 1372.75L2779.33 1392.56C2779.56 1392.74 2779.96 1392.79 2780.41 1392.7L2781.92 1392.4Z" fill="white"/>
</g>
<g id="Group_38">
<path id="globe" d="M875.086 692.247V975.801C875.086 1009.49 901.558 1037.24 935.211 1038.82L1289.8 1055.48C1325.77 1057.17 1355.85 1028.46 1355.85 992.461V692.247C1355.85 657.405 1327.6 629.161 1292.76 629.161H938.172C903.331 629.162 875.086 657.406 875.086 692.247Z" fill="url(#paint20_linear_45_184)"/>
<g id="Group_39">
<g id="Group_40">
<g id="Group_41">
<g id="Group_42">
<path id="Vector_64" d="M1128.6 867.287C1128.56 892.485 1126.84 917.734 1122.42 942.574C1121.3 948.78 1120 954.955 1118.45 961.072C1116.9 967.186 1115.11 973.246 1112.91 979.173C1110.7 985.084 1108.14 990.91 1104.65 996.234C1102.9 998.877 1100.91 1001.41 1098.46 1003.49C1097.23 1004.53 1095.88 1005.44 1094.4 1006.12C1092.92 1006.78 1091.3 1007.21 1089.66 1007.24C1088.02 1007.28 1086.38 1006.96 1084.87 1006.35C1083.36 1005.75 1081.98 1004.87 1080.72 1003.87C1078.21 1001.85 1076.17 999.349 1074.39 996.728C1070.85 991.441 1068.24 985.627 1066.01 979.726C1063.79 973.81 1061.98 967.754 1060.41 961.642C1058.85 955.53 1057.54 949.357 1056.41 943.155C1054.16 930.745 1052.62 918.218 1051.58 905.655C1050.55 893.09 1050.04 880.485 1049.97 867.878C1049.94 861.576 1050.11 855.274 1050.34 848.976C1050.57 842.678 1050.92 836.385 1051.38 830.1C1052.31 817.532 1053.7 804.991 1055.76 792.554C1056.79 786.336 1058 780.146 1059.45 774.01C1060.91 767.877 1062.6 761.79 1064.69 755.837C1065.75 752.863 1066.9 749.921 1068.21 747.048C1069.53 744.175 1071 741.366 1072.72 738.709C1074.45 736.064 1076.44 733.54 1078.92 731.519C1080.15 730.517 1081.52 729.645 1083.01 729.056C1084.5 728.457 1086.11 728.155 1087.72 728.216C1089.33 728.262 1090.91 728.664 1092.37 729.31C1093.84 729.959 1095.18 730.843 1096.42 731.844C1098.89 733.859 1100.93 736.323 1102.75 738.91C1106.35 744.121 1109.07 749.866 1111.43 755.713C1113.76 761.575 1115.69 767.59 1117.38 773.666C1119.05 779.746 1120.47 785.893 1121.7 792.076C1126.55 816.833 1128.52 842.085 1128.6 867.287ZM1126.74 867.287C1126.76 854.732 1126.29 842.173 1125.25 829.661C1124.22 817.15 1122.67 804.675 1120.36 792.337C1119.2 786.17 1117.86 780.037 1116.26 773.972C1114.65 767.911 1112.8 761.911 1110.54 756.066C1108.27 750.238 1105.63 744.512 1102.13 739.339C1100.37 736.77 1098.39 734.331 1096.01 732.347C1094.82 731.361 1093.53 730.494 1092.13 729.856C1090.73 729.225 1089.23 728.812 1087.7 728.771C1086.17 728.722 1084.65 729.031 1083.23 729.615C1081.81 730.193 1080.51 731.044 1079.32 732.027C1076.95 734.009 1075.02 736.501 1073.35 739.122C1071.68 741.754 1070.26 744.546 1068.99 747.404C1067.72 750.262 1066.61 753.193 1065.6 756.156C1063.58 762.089 1061.96 768.158 1060.58 774.276C1059.2 780.397 1058.07 786.573 1057.11 792.776C1055.19 805.184 1053.94 817.693 1053.15 830.225C1052.36 842.758 1052.08 855.321 1052.1 867.878C1052.07 880.432 1052.49 892.99 1053.42 905.511C1054.36 918.03 1055.79 930.517 1057.94 942.882C1059.01 949.063 1060.27 955.212 1061.78 961.299C1063.29 967.383 1065.04 973.41 1067.19 979.286C1069.36 985.145 1071.89 990.91 1075.31 996.103C1077.04 998.677 1079 1001.12 1081.37 1003.05C1082.56 1004.01 1083.85 1004.85 1085.25 1005.41C1086.64 1005.99 1088.14 1006.3 1089.63 1006.25C1091.13 1006.21 1092.6 1005.82 1093.97 1005.19C1095.34 1004.55 1096.61 1003.68 1097.77 1002.68C1100.09 1000.68 1102.01 998.209 1103.71 995.613C1107.07 990.379 1109.57 984.601 1111.71 978.731C1113.83 972.845 1115.56 966.813 1117.06 960.725C1118.55 954.636 1119.79 948.483 1120.85 942.3C1122.99 929.934 1124.4 917.445 1125.35 904.926C1126.3 892.405 1126.74 879.846 1126.74 867.287Z" fill="white"/>
</g>
<g id="Group_43">
<path id="Vector_65" d="M1089.3 1010.92C1087.39 1010.92 1085.38 1010.52 1083.51 1009.76C1081.78 1009.07 1080.12 1008.09 1078.45 1006.75C1075.93 1004.73 1073.69 1002.21 1071.37 998.799C1068.14 993.991 1065.36 988.354 1062.59 981.031C1060.5 975.455 1058.63 969.413 1056.87 962.556C1055.36 956.661 1054.04 950.529 1052.81 943.813C1050.65 931.915 1049.06 919.536 1047.94 905.956C1046.92 893.617 1046.38 880.812 1046.32 867.895C1046.28 861.146 1046.48 854.48 1046.68 848.847C1046.92 842.443 1047.27 836.046 1047.73 829.831C1048.74 816.178 1050.19 803.79 1052.15 791.953C1053.27 785.208 1054.5 779.062 1055.89 773.159C1057.53 766.264 1059.28 760.196 1061.24 754.616C1062.44 751.246 1063.63 748.269 1064.89 745.519C1066.42 742.17 1067.98 739.287 1069.65 736.704C1071.92 733.244 1074.13 730.694 1076.61 728.673C1078.26 727.332 1079.96 726.316 1081.67 725.643C1083.63 724.85 1085.78 724.476 1087.86 724.548C1089.84 724.606 1091.87 725.076 1093.85 725.95C1095.51 726.685 1097.1 727.678 1098.72 728.987C1101.19 731.003 1103.41 733.48 1105.74 736.798C1109.03 741.549 1111.91 747.117 1114.82 754.336C1117.04 759.894 1119.02 765.893 1120.9 772.685C1122.53 778.598 1123.96 784.705 1125.28 791.361C1129.9 814.873 1132.18 839.702 1132.26 867.274V867.288C1132.22 895.032 1130.18 919.869 1126.02 943.217C1124.81 949.93 1123.49 956.062 1122 961.976C1120.26 968.825 1118.41 974.867 1116.35 980.454C1113.6 987.793 1110.86 993.446 1107.71 998.25C1105.44 1001.69 1103.25 1004.24 1100.82 1006.3C1099.19 1007.67 1097.59 1008.7 1095.91 1009.46C1093.86 1010.39 1091.78 1010.87 1089.73 1010.91C1089.58 1010.91 1089.44 1010.92 1089.3 1010.92ZM1087.4 732.439C1086.48 732.439 1085.53 732.633 1084.62 733.009C1083.65 733.407 1082.65 734.027 1081.65 734.86C1079.85 736.358 1078.19 738.345 1076.43 741.102C1075 743.362 1073.65 745.915 1072.33 748.899C1071.2 751.438 1070.13 754.202 1069.05 757.35C1067.25 762.658 1065.64 768.464 1064.15 775.086C1062.86 780.82 1061.74 786.791 1060.72 793.342C1058.93 804.953 1057.65 817.095 1056.81 830.453C1056.08 841.873 1055.74 854.112 1055.76 867.868C1055.73 880.565 1056.17 893.131 1057.07 905.237C1058.06 918.522 1059.53 930.632 1061.54 942.251C1062.68 948.748 1063.91 954.69 1065.33 960.413C1066.96 966.986 1068.69 972.742 1070.63 978.014C1073.11 984.722 1075.57 989.829 1078.37 994.075C1080.17 996.768 1081.86 998.722 1083.68 1000.2C1084.68 1001.02 1085.67 1001.63 1086.62 1002.01C1087.63 1002.42 1088.58 1002.57 1089.51 1002.58C1090.47 1002.56 1091.44 1002.31 1092.45 1001.85C1093.41 1001.41 1094.4 1000.74 1095.39 999.892C1097.18 998.35 1098.85 996.352 1100.65 993.602C1103.39 989.335 1105.82 984.203 1108.28 977.469C1110.18 972.18 1111.9 966.411 1113.51 959.844C1114.9 954.153 1116.13 948.208 1117.25 941.671C1119.24 930.156 1120.69 918.047 1121.7 904.65C1122.62 892.572 1123.09 880.004 1123.08 867.288V867.281C1123.1 854.616 1122.61 842.062 1121.6 829.965C1120.51 816.654 1118.93 804.569 1116.76 793.016C1115.56 786.58 1114.24 780.659 1112.72 774.911C1111 768.399 1109.17 762.669 1107.13 757.394C1104.54 750.753 1101.99 745.665 1099.11 741.4C1097.25 738.696 1095.52 736.714 1093.67 735.172C1092.64 734.319 1091.61 733.651 1090.62 733.196C1089.57 732.722 1088.55 732.465 1087.61 732.443C1087.54 732.439 1087.47 732.439 1087.4 732.439Z" fill="white"/>
</g>
</g>
<g id="Group_44">
<g id="Group_45">
<path id="Vector_66" d="M1191.92 867.287C1191.83 883.514 1189.75 899.747 1185.43 915.396C1181.02 931.008 1174.39 946.027 1165.38 959.512C1160.87 966.246 1155.76 972.586 1150.06 978.338C1144.36 984.087 1138.05 989.247 1131.21 993.572C1124.36 997.88 1116.96 1001.33 1109.22 1003.67C1101.47 1006.01 1093.39 1007.23 1085.3 1007.24C1077.22 1007.24 1069.13 1006.03 1061.39 1003.69C1053.64 1001.35 1046.23 997.911 1039.38 993.607C1032.53 989.288 1026.21 984.132 1020.5 978.385C1014.79 972.636 1009.67 966.298 1005.16 959.563C996.129 946.076 989.478 931.051 985.055 915.431C982.878 907.606 981.26 899.627 980.188 891.578C979.122 883.527 978.586 875.408 978.55 867.286C978.591 859.164 979.132 851.045 980.203 842.996C981.281 834.948 982.904 826.971 985.087 819.151C989.52 803.536 996.182 788.52 1005.22 775.049C1009.73 768.32 1014.85 761.989 1020.56 756.248C1026.27 750.508 1032.58 745.358 1039.43 741.052C1046.29 736.76 1053.69 733.343 1061.43 731.01C1069.16 728.668 1077.23 727.447 1085.31 727.439C1093.38 727.454 1101.45 728.682 1109.18 731.03C1116.91 733.367 1124.31 736.792 1131.16 741.089C1138 745.4 1144.3 750.555 1150 756.297C1155.7 762.04 1160.81 768.373 1165.32 775.102C1174.33 788.572 1180.98 803.582 1185.4 819.187C1189.73 834.83 1191.82 851.061 1191.92 867.287ZM1189.79 867.287C1189.76 851.244 1187.77 835.185 1183.56 819.699C1179.32 804.237 1172.93 789.31 1164.15 775.885C1159.75 769.18 1154.77 762.86 1149.18 757.115C1143.59 751.379 1137.42 746.189 1130.66 741.876C1123.9 737.587 1116.6 734.134 1108.95 731.799C1101.3 729.463 1093.31 728.234 1085.31 728.207C1077.3 728.241 1069.32 729.476 1061.67 731.819C1054.02 734.16 1046.73 737.619 1039.97 741.913C1033.23 746.232 1027.07 751.425 1021.49 757.164C1015.91 762.912 1010.93 769.233 1006.55 775.939C997.778 789.361 991.407 804.283 987.188 819.737C985.086 827.472 983.564 835.361 982.533 843.308C981.5 851.256 980.99 859.271 980.972 867.288C980.996 875.306 981.51 883.319 982.549 891.266C983.585 899.212 985.112 907.098 987.22 914.831C991.449 930.279 997.831 945.19 1006.61 958.599C1010.99 965.297 1015.97 971.612 1021.55 977.352C1027.13 983.081 1033.29 988.271 1040.03 992.575C1046.78 996.857 1054.07 1000.29 1061.71 1002.63C1069.34 1004.98 1077.32 1006.22 1085.31 1006.26C1093.3 1006.23 1101.28 1004.99 1108.91 1002.65C1116.55 1000.32 1123.85 996.891 1130.61 992.613C1137.36 988.312 1143.53 983.128 1149.12 977.401C1154.71 971.663 1159.69 965.35 1164.09 958.652C1172.88 945.241 1179.28 930.324 1183.53 914.868C1187.75 899.387 1189.75 883.33 1189.79 867.287Z" fill="white"/>
</g>
<g id="Group_46">
<path id="Vector_67" d="M1085.31 1010.92C1076.9 1010.92 1068.5 1009.67 1060.34 1007.21C1052.44 1004.83 1044.74 1001.3 1037.44 996.721C1030.54 992.372 1023.97 987.078 1017.91 980.979C1012.2 975.231 1006.89 968.714 1002.12 961.615C993.16 948.226 986.235 933.024 981.538 916.437C979.337 908.522 977.665 900.329 976.565 892.067C975.492 883.98 974.932 875.65 974.893 867.306C974.938 858.915 975.503 850.585 976.579 842.51C977.684 834.245 979.363 826.055 981.565 818.162C986.278 801.566 993.214 786.376 1002.18 773.001C1006.94 765.915 1012.25 759.407 1017.98 753.655C1024.04 747.556 1030.61 742.27 1037.49 737.941C1044.75 733.397 1052.45 729.887 1060.38 727.495C1068.52 725.032 1076.9 723.777 1085.3 723.77C1093.72 723.784 1102.11 725.046 1110.24 727.518C1118.16 729.913 1125.85 733.43 1133.1 737.978C1139.98 742.316 1146.54 747.606 1152.59 753.705C1158.31 759.461 1163.61 765.97 1168.35 773.055C1177.31 786.438 1184.23 801.62 1188.92 818.187C1193.24 833.765 1195.48 850.27 1195.58 867.268V867.311C1195.49 884.304 1193.26 900.814 1188.95 916.381C1184.28 932.968 1177.37 948.163 1168.42 961.559C1163.67 968.66 1158.37 975.179 1152.66 980.931C1146.61 987.03 1140.05 992.33 1133.16 996.684C1125.86 1001.27 1118.17 1004.8 1110.27 1007.19C1102.13 1009.65 1093.73 1010.91 1085.31 1010.92ZM1085.3 731.88C1077.71 731.912 1070.12 733.071 1062.74 735.33C1055.61 737.514 1048.61 740.773 1041.93 745.016C1035.75 748.975 1029.74 753.927 1024.1 759.729C1018.85 765.143 1013.97 771.279 1009.6 777.956C1001.38 790.547 995.024 804.93 990.715 820.708C988.735 828.002 987.201 835.768 986.159 843.784C985.161 851.465 984.646 859.375 984.628 867.297C984.652 875.215 985.173 883.125 986.175 890.792C987.218 898.792 988.756 906.555 990.746 913.863C995.065 929.63 1001.43 944.003 1009.66 956.583C1014.02 963.252 1018.9 969.377 1024.16 974.788C1029.81 980.586 1035.81 985.531 1041.99 989.48C1048.62 993.682 1055.61 996.927 1062.77 999.122C1070.14 1001.38 1077.72 1002.55 1085.32 1002.59C1092.9 1002.56 1100.48 1001.4 1107.84 999.143C1115.02 996.949 1122.02 993.707 1128.66 989.508C1134.83 985.573 1140.84 980.632 1146.5 974.831C1151.77 969.423 1156.66 963.298 1161.03 956.632C1169.28 944.057 1175.66 929.677 1180 913.892C1184.03 899.121 1186.1 883.44 1186.13 867.286C1186.1 851.139 1184.05 835.454 1180.03 820.669C1175.7 804.883 1169.33 790.493 1161.09 777.904C1156.72 771.234 1151.83 765.102 1146.56 759.684C1140.92 753.896 1134.91 748.948 1128.7 744.979C1122.03 740.747 1115.02 737.495 1107.89 735.317C1100.5 733.059 1092.9 731.904 1085.3 731.88Z" fill="white"/>
</g>
</g>
<g id="Group_47">
<g id="Group_48">
<path id="Vector_68" d="M960.899 811.906L992.916 811.646L1024.93 811.5L1088.96 811.381L1153 811.511L1185.02 811.672L1217.03 811.953C1217.09 811.953 1217.13 811.996 1217.13 812.048C1217.13 812.048 1217.08 812.141 1217.03 812.142L1185.02 812.422L1153 812.582L1088.96 812.713L1024.93 812.594L992.916 812.447L960.899 812.187C960.823 812.187 960.76 812.123 960.76 812.123C960.761 811.969 960.824 811.907 960.899 811.906Z" fill="white"/>
</g>
<g id="Group_49">
<path id="Vector_69" d="M1088.97 816.385L992.899 816.12L959.347 815.843L957.106 813.602L957.105 811.961L957.189 808.374L960.87 808.234L1024.91 807.825L1088.96 807.708L1185.04 808.001L1220.69 808.314L1220.79 815.718L1217.03 815.812L1153.02 816.252L1088.97 816.385Z" fill="white"/>
</g>
</g>
<g id="Group_50">
<g id="Group_51">
<path id="Vector_70" d="M998.042 758.074C1005.62 757.953 1013.2 757.902 1020.77 757.813L1043.5 757.667C1051.08 757.604 1058.66 757.611 1066.24 757.592L1088.96 757.548L1134.43 757.678L1157.16 757.839C1164.74 757.935 1172.31 757.991 1179.89 758.12C1179.94 758.121 1179.98 758.163 1179.98 758.163C1179.98 758.266 1179.94 758.307 1179.89 758.308C1172.31 758.438 1164.74 758.493 1157.16 758.589L1134.43 758.75L1088.96 758.88L1066.24 758.837C1058.66 758.818 1051.08 758.825 1043.5 758.762L1020.77 758.615C1013.2 758.527 1005.62 758.476 998.042 758.355C997.964 758.354 997.903 758.29 997.904 758.212C997.905 758.136 997.967 758.075 998.042 758.074Z" fill="white"/>
</g>
<g id="Group_52">
<path id="Vector_71" d="M1088.98 762.553L1060.34 762.496C1054.72 762.489 1049.1 762.479 1043.48 762.432L1013.16 762.205C1008.1 762.154 1003.04 762.109 997.985 762.026L994.385 761.969L994.245 754.538L997.984 754.402C1002.88 754.323 1007.78 754.277 1012.67 754.225L1043.48 753.993C1048.82 753.95 1054.16 753.938 1059.49 753.932L1088.96 753.874L1165.46 754.258C1170.29 754.311 1175.12 754.361 1179.95 754.444L1183.68 754.508L1183.51 761.884L1179.89 761.977C1174.89 762.063 1169.83 762.117 1164.77 762.171L1134.45 762.419L1088.98 762.553Z" fill="white"/>
</g>
</g>
<g id="Group_53">
<g id="Group_54">
<path id="Vector_72" d="M949.773 865.739L984.572 865.481L1019.37 865.333L1088.97 865.214L1158.56 865.345L1193.36 865.507L1228.16 865.787C1228.21 865.787 1228.25 865.829 1228.25 865.882C1228.25 865.882 1228.21 865.975 1228.16 865.977L1193.36 866.256L1158.56 866.417L1088.97 866.548L1019.37 866.43L984.572 866.281L949.773 866.022C949.696 866.022 949.633 865.958 949.634 865.881C949.635 865.802 949.697 865.74 949.773 865.739Z" fill="white"/>
</g>
<g id="Group_55">
<path id="Vector_73" d="M1088.97 870.217L984.556 869.952L946.117 869.664L945.977 862.206L949.747 862.067L1019.35 861.661L1088.96 861.543L1193.38 861.834L1229.72 862.123L1231.93 864.379L1231.79 869.554L1228.16 869.647L1158.58 870.088L1088.97 870.217Z" fill="white"/>
</g>
</g>
<g id="Group_56">
<g id="Group_57">
<path id="Vector_74" d="M960.899 919.571L992.916 919.312L1024.93 919.165L1088.96 919.046L1153 919.178L1185.02 919.339L1217.03 919.618C1217.09 919.619 1217.13 919.661 1217.13 919.661C1217.13 919.765 1217.08 919.806 1217.03 919.806L1185.02 920.086L1153 920.248L1088.97 920.379L1024.93 920.26L992.917 920.112L960.9 919.853C960.824 919.852 960.761 919.789 960.761 919.712C960.761 919.634 960.824 919.573 960.899 919.571Z" fill="white"/>
</g>
<g id="Group_58">
<path id="Vector_75" d="M1088.97 924.048L992.899 923.783L959.347 923.514L957.108 921.273L957.105 919.628L957.185 916.038L960.868 915.902L1024.92 915.493L1088.96 915.375L1185.04 915.665L1220.69 915.977L1220.79 923.385L1217.03 923.479L1153.02 923.919L1088.97 924.048Z" fill="white"/>
</g>
</g>
<g id="Group_59">
<g id="Group_60">
<path id="Vector_76" d="M1184.47 974.039H1002.62C1002.35 974.039 1002.13 973.817 1002.13 973.546C1002.13 973.274 1002.35 973.053 1002.62 973.053H1184.47C1184.74 973.053 1184.96 973.274 1184.96 973.546C1184.96 973.817 1184.74 974.039 1184.47 974.039Z" fill="white"/>
</g>
<g id="Group_61">
<path id="Vector_77" d="M1184.47 977.708H1002.63C1000.34 977.708 998.476 975.84 998.476 973.545C998.476 971.25 1000.34 969.382 1002.63 969.382H1184.47C1186.76 969.382 1188.62 971.25 1188.62 973.545C1188.62 975.84 1186.76 977.708 1184.47 977.708Z" fill="white"/>
</g>
</g>
</g>
<g id="Group_62">
<path id="Vector_78" d="M1088.96 1013.8C1006.5 1013.8 939.414 947.451 939.414 865.894C939.414 784.338 1006.5 717.988 1088.96 717.988C1171.41 717.988 1238.5 784.339 1238.5 865.894C1238.5 947.451 1171.41 1013.8 1088.96 1013.8ZM1088.96 731.114C1013.74 731.114 952.539 791.576 952.539 865.894C952.539 940.215 1013.74 1000.68 1088.96 1000.68C1164.18 1000.68 1225.37 940.215 1225.37 865.894C1225.37 791.576 1164.18 731.114 1088.96 731.114Z" fill="white"/>
</g>
</g>
<g id="Group_63">
<path id="Vector_79" d="M1232.72 746.221H1189.78V735.103L1204.02 714.947C1207.92 709.397 1210.61 705.28 1212.07 702.596C1213.53 699.912 1214.61 697.338 1215.3 694.873C1215.99 692.408 1216.34 689.862 1216.34 687.232C1216.34 684.165 1215.65 681.865 1214.29 680.331C1212.92 678.797 1211.14 678.031 1208.95 678.031C1207.01 678.031 1205.2 678.543 1203.52 679.565C1201.84 680.587 1199.8 682.432 1197.39 685.097L1189.06 676.334C1192.9 671.989 1196.46 669.014 1199.74 667.406C1203.03 665.799 1206.59 664.996 1210.42 664.996C1216.89 664.996 1221.93 666.895 1225.57 670.692C1229.2 674.49 1231.02 679.766 1231.02 686.521C1231.02 689.588 1230.69 692.491 1230.03 695.229C1229.38 697.967 1228.38 700.715 1227.05 703.472C1225.71 706.23 1224.04 709.095 1222.04 712.071C1220.03 715.048 1214.84 721.867 1206.48 732.528V732.966H1232.72V746.221Z" fill="white"/>
<path id="Vector_80" d="M1287.93 729.406H1279.82V746.221H1265.8V729.406H1239.67V717.302L1263.88 666.146H1279.82V717.083H1287.93V729.406ZM1265.8 717.083V700.214L1266.07 692.765L1266.46 685.645H1266.02C1264.74 689.625 1263.35 693.222 1261.86 696.435L1252.22 717.083H1265.8Z" fill="white"/>
</g>
</g>
</g>
</g>
<path id="Vector 8" d="M2471 798.5L2518.5 846L2601.5 763" stroke="white" stroke-width="22"/>
<path id="Vector 9" d="M2827 1180C2575.8 1284.4 3065.67 998.5 3342 842.5L3620.5 1375.5" stroke="white" stroke-width="22"/>
</g>
<defs>
<linearGradient id="paint0_linear_45_184" x1="3489.3" y1="3266.61" x2="1430.41" y2="1465.09" gradientUnits="userSpaceOnUse">
<stop stop-color="#DAE3FE"/>
<stop offset="1" stop-color="#E9EFFD"/>
</linearGradient>
<linearGradient id="paint1_linear_45_184" x1="1763.03" y1="3684.83" x2="1562.12" y2="3014.7" gradientUnits="userSpaceOnUse">
<stop stop-color="#4F52FF"/>
<stop offset="1" stop-color="#4042E2"/>
</linearGradient>
<linearGradient id="paint2_linear_45_184" x1="1588.76" y1="2703.06" x2="2102.47" y2="2849.24" gradientUnits="userSpaceOnUse">
<stop stop-color="#FEBBBA"/>
<stop offset="1" stop-color="#FF928E"/>
</linearGradient>
<linearGradient id="paint3_linear_45_184" x1="1037.07" y1="2320.78" x2="1465.66" y2="1751.55" gradientUnits="userSpaceOnUse">
<stop stop-color="#FEBBBA"/>
<stop offset="1" stop-color="#FF928E"/>
</linearGradient>
<linearGradient id="paint4_linear_45_184" x1="1386.14" y1="2167.06" x2="906.203" y2="2443.86" gradientUnits="userSpaceOnUse">
<stop stop-color="#09005D"/>
<stop offset="1" stop-color="#1A0F91"/>
</linearGradient>
<linearGradient id="paint5_linear_45_184" x1="1633.34" y1="1529" x2="1161.85" y2="1812.91" gradientUnits="userSpaceOnUse">
<stop stop-color="#FEBBBA"/>
<stop offset="1" stop-color="#FF928E"/>
</linearGradient>
<linearGradient id="paint6_linear_45_184" x1="1357.42" y1="1232.56" x2="1694.28" y2="1782.93" gradientUnits="userSpaceOnUse">
<stop stop-color="#09005D"/>
<stop offset="1" stop-color="#1A0F91"/>
</linearGradient>
<linearGradient id="paint7_linear_45_184" x1="1587.31" y1="1452.57" x2="1115.82" y2="1736.48" gradientUnits="userSpaceOnUse">
<stop stop-color="#FEBBBA"/>
<stop offset="1" stop-color="#FF928E"/>
</linearGradient>
<linearGradient id="paint8_linear_45_184" x1="1067.26" y1="2829.98" x2="1786.39" y2="3063.2" gradientUnits="userSpaceOnUse">
<stop stop-color="#09005D"/>
<stop offset="1" stop-color="#1A0F91"/>
</linearGradient>
<linearGradient id="paint9_linear_45_184" x1="1563.42" y1="1478.27" x2="1221.88" y2="1938.11" gradientUnits="userSpaceOnUse">
<stop stop-color="#4F52FF"/>
<stop offset="1" stop-color="#4042E2"/>
</linearGradient>
<linearGradient id="paint10_linear_45_184" x1="1924.16" y1="1156.21" x2="474.533" y2="1658.67" gradientUnits="userSpaceOnUse">
<stop stop-color="#4F52FF"/>
<stop offset="1" stop-color="#4042E2"/>
</linearGradient>
<linearGradient id="paint11_linear_45_184" x1="1489.52" y1="1308.84" x2="1322.1" y2="1572.25" gradientUnits="userSpaceOnUse">
<stop stop-color="#4F52FF"/>
<stop offset="1" stop-color="#4042E2"/>
</linearGradient>
<linearGradient id="paint12_linear_45_184" x1="1332.38" y1="1568.69" x2="1033.25" y2="968.214" gradientUnits="userSpaceOnUse">
<stop stop-color="#4F52FF"/>
<stop offset="1" stop-color="#4042E2"/>
</linearGradient>
<linearGradient id="paint13_linear_45_184" x1="1857.58" y1="3507.12" x2="1896.32" y2="2654.93" gradientUnits="userSpaceOnUse">
<stop stop-color="#09005D"/>
<stop offset="1" stop-color="#1A0F91"/>
</linearGradient>
<linearGradient id="paint14_linear_45_184" x1="2407.31" y1="2056.03" x2="2698.85" y2="2801.54" gradientUnits="userSpaceOnUse">
<stop stop-color="#09005D"/>
<stop offset="1" stop-color="#1A0F91"/>
</linearGradient>
<linearGradient id="paint15_linear_45_184" x1="2372.2" y1="2352.41" x2="2538.8" y2="3376.98" gradientUnits="userSpaceOnUse">
<stop stop-color="#09005D"/>
<stop offset="1" stop-color="#1A0F91"/>
</linearGradient>
<linearGradient id="paint16_linear_45_184" x1="2297.2" y1="2948.4" x2="2788.66" y2="3270.48" gradientUnits="userSpaceOnUse">
<stop stop-color="#09005D"/>
<stop offset="1" stop-color="#1A0F91"/>
</linearGradient>
<linearGradient id="paint17_linear_45_184" x1="2620.82" y1="707.506" x2="259.961" y2="5117.79" gradientUnits="userSpaceOnUse">
<stop stop-color="#FF928E"/>
<stop offset="1" stop-color="#FE7062"/>
</linearGradient>
<linearGradient id="paint18_linear_45_184" x1="1986.41" y1="367.901" x2="-374.443" y2="4778.18" gradientUnits="userSpaceOnUse">
<stop stop-color="#FF928E"/>
<stop offset="1" stop-color="#FE7062"/>
</linearGradient>
<linearGradient id="paint19_linear_45_184" x1="3138.9" y1="984.836" x2="778.04" y2="5395.12" gradientUnits="userSpaceOnUse">
<stop stop-color="#FF928E"/>
<stop offset="1" stop-color="#FE7062"/>
</linearGradient>
<linearGradient id="paint20_linear_45_184" x1="1506.86" y1="111.195" x2="-853.992" y2="4521.47" gradientUnits="userSpaceOnUse">
<stop stop-color="#FF928E"/>
<stop offset="1" stop-color="#FE7062"/>
</linearGradient>
<clipPath id="clip0_45_184">
<rect width="3710" height="3710" fill="white"/>
</clipPath>
</defs>
</svg>
