<svg xmlns="http://www.w3.org/2000/svg" xmlns:xlink="http://www.w3.org/1999/xlink" width="794" zoomAndPan="magnify" viewBox="0 0 595.5 842.249979" height="1123" preserveAspectRatio="xMidYMid meet" version="1.0"><defs><clipPath id="64d297f014"><path d="M 0.015625 0 L 594.984375 0 L 594.984375 841.5 L 0.015625 841.5 Z M 0.015625 0 " clip-rule="nonzero"/></clipPath><clipPath id="cf7327cf90"><path d="M 207.386719 401.375 L 387.226562 401.375 L 387.226562 737.824219 L 207.386719 737.824219 Z M 207.386719 401.375 " clip-rule="nonzero"/></clipPath><clipPath id="f44fce0d75"><path d="M 36.59375 59.472656 L 269 59.472656 L 269 297.761719 L 36.59375 297.761719 Z M 36.59375 59.472656 " clip-rule="nonzero"/></clipPath></defs><g clip-path="url(#64d297f014)"><path fill="#ffffff" d="M 0.015625 0 L 594.984375 0 L 594.984375 841.5 L 0.015625 841.5 Z M 0.015625 0 " fill-opacity="1" fill-rule="nonzero"/><path fill="#ffffff" d="M 0.015625 0 L 594.984375 0 L 594.984375 841.5 L 0.015625 841.5 Z M 0.015625 0 " fill-opacity="1" fill-rule="nonzero"/></g><g clip-path="url(#cf7327cf90)"><path fill="#000000" d="M 387.007812 530.085938 L 367.886719 510.953125 L 387.007812 491.816406 C 387.238281 491.585938 387.238281 491.210938 387.007812 490.976562 L 297.734375 401.617188 C 297.507812 401.390625 297.117188 401.390625 296.894531 401.617188 L 207.617188 490.972656 C 207.386719 491.203125 207.386719 491.578125 207.617188 491.808594 L 226.734375 510.945312 L 207.617188 530.085938 C 207.386719 530.320312 207.386719 530.691406 207.617188 530.925781 L 226.734375 550.058594 L 207.617188 569.203125 C 207.386719 569.433594 207.386719 569.808594 207.617188 570.039062 L 226.734375 589.175781 L 207.617188 608.316406 C 207.386719 608.546875 207.386719 608.921875 207.617188 609.152344 L 226.734375 628.289062 L 207.617188 647.429688 C 207.386719 647.664062 207.386719 648.035156 207.617188 648.269531 L 296.890625 737.621094 C 297.003906 737.734375 297.152344 737.796875 297.3125 737.796875 C 297.472656 737.796875 297.621094 737.730469 297.734375 737.621094 L 387.007812 648.269531 C 387.238281 648.035156 387.238281 647.664062 387.007812 647.429688 L 367.886719 628.296875 L 387.007812 609.160156 C 387.238281 608.929688 387.238281 608.554688 387.007812 608.320312 L 367.886719 589.1875 L 387.007812 570.050781 C 387.238281 569.820312 387.238281 569.445312 387.007812 569.214844 L 367.886719 550.078125 L 387.007812 530.941406 C 387.238281 530.710938 387.238281 530.335938 387.007812 530.105469 Z M 208.875 491.394531 L 297.3125 402.878906 L 385.746094 491.394531 L 367.046875 510.113281 L 297.726562 440.734375 C 297.496094 440.5 297.121094 440.5 296.890625 440.734375 L 227.578125 510.113281 Z M 297.3125 658.140625 L 247.957031 608.738281 L 266.65625 590.019531 L 296.894531 620.285156 C 297.007812 620.398438 297.15625 620.457031 297.316406 620.457031 C 297.476562 620.457031 297.625 620.390625 297.738281 620.285156 L 327.976562 590.019531 L 346.679688 608.738281 L 297.324219 658.140625 Z M 347.503906 609.574219 L 366.207031 628.296875 L 297.3125 697.253906 L 228.414062 628.296875 L 247.117188 609.574219 L 296.894531 659.398438 C 297.007812 659.511719 297.15625 659.570312 297.316406 659.570312 C 297.476562 659.570312 297.625 659.507812 297.738281 659.398438 L 347.515625 609.574219 Z M 266.65625 550.902344 L 285.359375 569.625 L 266.65625 588.34375 L 247.957031 569.625 Z M 247.117188 568.78125 L 228.414062 550.058594 L 247.117188 531.339844 L 265.820312 550.058594 Z M 297.3125 579.910156 L 287.035156 569.625 L 297.3125 559.335938 L 307.589844 569.625 Z M 308.433594 570.460938 L 327.136719 589.179688 L 297.316406 619.023438 L 267.5 589.179688 L 286.203125 570.460938 L 296.902344 581.171875 C 297.019531 581.289062 297.167969 581.34375 297.324219 581.34375 C 297.476562 581.34375 297.625 581.28125 297.746094 581.171875 L 308.445312 570.460938 Z M 297.734375 558.070312 C 297.5 557.839844 297.128906 557.839844 296.894531 558.070312 L 286.199219 568.78125 L 267.496094 550.058594 L 297.3125 520.214844 L 327.128906 550.058594 L 308.425781 568.78125 L 297.726562 558.070312 Z M 265.816406 589.175781 L 247.113281 607.894531 L 228.410156 589.175781 L 247.113281 570.457031 Z M 328.808594 589.175781 L 347.511719 570.457031 L 366.214844 589.175781 L 347.511719 607.894531 Z M 327.972656 588.335938 L 309.269531 569.617188 L 327.972656 550.898438 L 346.675781 569.617188 Z M 328.808594 550.066406 L 347.511719 531.347656 L 366.214844 550.066406 L 347.511719 568.785156 Z M 327.972656 549.226562 L 297.734375 518.960938 C 297.507812 518.734375 297.117188 518.734375 296.894531 518.960938 L 266.65625 549.226562 L 247.957031 530.507812 L 297.3125 481.105469 L 346.667969 530.507812 L 327.964844 549.226562 Z M 297.734375 479.847656 C 297.507812 479.621094 297.117188 479.621094 296.894531 479.847656 L 247.117188 529.671875 L 228.414062 510.953125 L 297.3125 441.992188 L 366.207031 510.953125 L 347.503906 529.671875 L 297.726562 479.847656 Z M 208.875 530.507812 L 227.578125 511.789062 L 246.28125 530.507812 L 227.578125 549.226562 Z M 208.875 569.625 L 227.578125 550.902344 L 246.28125 569.625 L 227.578125 588.34375 Z M 208.875 608.738281 L 227.578125 590.019531 L 246.28125 608.738281 L 227.578125 627.457031 Z M 385.746094 647.851562 L 297.3125 736.367188 L 208.875 647.851562 L 227.578125 629.132812 L 296.894531 698.515625 C 297.015625 698.632812 297.164062 698.6875 297.316406 698.6875 C 297.472656 698.6875 297.621094 698.628906 297.738281 698.515625 L 367.058594 629.132812 L 385.757812 647.851562 Z M 385.746094 608.738281 L 367.046875 627.457031 L 348.34375 608.738281 L 367.046875 590.019531 Z M 385.746094 569.625 L 367.046875 588.34375 L 348.34375 569.625 L 367.046875 550.902344 Z M 367.046875 549.226562 L 348.34375 530.507812 L 367.046875 511.789062 L 385.746094 530.507812 Z M 367.046875 549.226562 " fill-opacity="1" fill-rule="nonzero"/></g><g clip-path="url(#f44fce0d75)"><path fill="#bf6727" d="M 251.378906 245.722656 C 245.660156 241.433594 239.179688 238.382812 232.460938 236.191406 L 231.746094 235.90625 L 231.222656 235.667969 L 230.746094 235.382812 L 230.320312 235.097656 L 229.9375 234.808594 L 229.507812 234.429688 C 229.367188 234.285156 229.222656 234.144531 229.078125 234 C 228.9375 233.855469 228.839844 233.714844 228.746094 233.570312 L 228.460938 233.09375 L 228.222656 232.617188 C 228.125 232.429688 228.03125 232.238281 227.984375 232.09375 L 227.792969 231.617188 C 227.507812 230.664062 227.175781 229.710938 226.839844 228.757812 C 224.980469 223.566406 222.886719 217.707031 218.453125 213.703125 C 209.878906 205.890625 196.015625 208.460938 187.34375 214.847656 C 186.199219 215.703125 185.101562 216.609375 184.054688 217.5625 C 183.484375 217.992188 182.910156 218.46875 182.339844 218.898438 C 181.816406 219.277344 181.242188 219.660156 180.71875 220.085938 C 180.101562 220.46875 179.527344 220.851562 178.910156 221.277344 C 178.289062 221.613281 177.671875 221.992188 177.050781 222.328125 C 176.429688 222.660156 175.714844 222.992188 175.050781 223.328125 C 174.429688 223.566406 173.8125 223.851562 173.191406 224.089844 C 172.476562 224.328125 171.761719 224.566406 171 224.804688 C 170.285156 224.996094 169.570312 225.1875 168.855469 225.375 C 168.140625 225.566406 167.332031 225.613281 166.519531 225.757812 L 164.140625 225.996094 L 161.660156 226.042969 L 159.136719 225.902344 C 142.460938 223.660156 125.976562 220.230469 110.585938 213.609375 C 105.488281 211.417969 100.578125 208.796875 95.957031 205.792969 C 96.054688 204.792969 96.148438 203.792969 96.242188 202.792969 C 97.195312 194.167969 99.101562 185.496094 100.960938 177.160156 C 102.296875 171.25 103.628906 165.152344 104.628906 159.054688 C 105.773438 152.191406 106.726562 144.09375 105.058594 136.230469 C 103.4375 128.609375 99.484375 122.269531 94.050781 118.554688 C 93.148438 117.648438 92.195312 116.839844 91.144531 116.125 C 90.242188 115.171875 89.191406 114.363281 88.144531 113.601562 C 87.382812 112.789062 86.523438 112.074219 85.667969 111.410156 C 85.523438 111.3125 85.378906 111.21875 85.238281 111.121094 C 84.667969 110.503906 84 109.882812 83.332031 109.3125 C 82.949219 109.027344 82.617188 108.738281 82.234375 108.453125 C 81.855469 108.027344 81.425781 107.597656 80.996094 107.214844 C 80.425781 106.691406 79.855469 106.214844 79.28125 105.785156 C 79.089844 105.546875 78.902344 105.355469 78.664062 105.117188 C 77.949219 104.355469 77.136719 103.640625 76.328125 103.023438 C 75.421875 101.972656 74.421875 100.972656 73.328125 100.117188 C 72.421875 99.019531 71.421875 97.972656 70.371094 97.019531 C 69.46875 95.828125 68.515625 94.730469 67.464844 93.730469 C 66.609375 92.445312 65.65625 91.253906 64.65625 90.109375 C 63.84375 88.777344 62.988281 87.488281 62.035156 86.25 C 61.320312 84.820312 60.511719 83.394531 59.652344 82.058594 C 58.890625 80.152344 57.984375 78.34375 57.03125 76.53125 C 53.363281 69.671875 48.265625 63.90625 42.070312 59.472656 L 41.929688 59.617188 C 49.503906 65.050781 55.410156 72.433594 59.082031 81.011719 C 57.984375 79.34375 56.792969 77.769531 55.554688 76.246094 C 52.21875 72.148438 47.789062 67.8125 41.691406 62.667969 L 41.546875 62.808594 C 47.644531 67.957031 52.078125 72.292969 55.410156 76.390625 C 56.890625 78.199219 58.269531 80.105469 59.558594 82.105469 C 59.796875 82.679688 59.984375 83.25 60.222656 83.820312 C 59.03125 82.390625 57.652344 80.960938 56.125 79.4375 C 53.886719 77.246094 51.3125 74.960938 48.835938 72.769531 C 46.359375 70.574219 43.644531 68.195312 41.261719 65.859375 L 41.117188 66.003906 C 43.5 68.335938 46.121094 70.671875 48.644531 72.910156 C 51.171875 75.148438 53.695312 77.390625 55.9375 79.582031 C 57.601562 81.199219 59.082031 82.820312 60.367188 84.34375 C 60.605469 85.011719 60.796875 85.632812 60.984375 86.300781 C 59.652344 85.058594 58.175781 83.867188 56.601562 82.582031 C 55.601562 81.773438 54.554688 80.960938 53.410156 80.105469 C 49.21875 76.816406 44.40625 73.101562 40.832031 69.050781 L 40.6875 69.195312 C 44.308594 73.292969 49.121094 77.007812 53.316406 80.296875 C 54.410156 81.199219 55.460938 82.011719 56.507812 82.820312 C 58.175781 84.15625 59.699219 85.441406 61.128906 86.726562 C 61.320312 87.441406 61.511719 88.15625 61.699219 88.871094 C 60.222656 87.824219 58.699219 86.824219 57.175781 85.824219 L 56.792969 85.585938 C 51.410156 82.105469 44.691406 77.769531 40.5 72.242188 L 40.308594 72.386719 C 44.546875 77.914062 51.265625 82.25 56.699219 85.773438 L 57.078125 86.011719 C 58.652344 87.015625 60.222656 88.0625 61.796875 89.15625 C 61.988281 89.921875 62.128906 90.683594 62.273438 91.445312 C 61.082031 90.824219 59.890625 90.160156 58.699219 89.539062 L 57.746094 89.0625 C 51.21875 85.679688 44.070312 81.390625 40.117188 75.484375 L 39.925781 75.578125 C 43.929688 81.535156 51.125 85.824219 57.652344 89.207031 L 58.605469 89.683594 C 59.890625 90.347656 61.128906 91.015625 62.367188 91.683594 C 62.511719 92.445312 62.652344 93.253906 62.75 94.019531 C 61.988281 93.683594 61.175781 93.351562 60.414062 93.066406 C 59.699219 92.777344 59.03125 92.492188 58.316406 92.207031 C 48.882812 88.253906 42.832031 83.820312 39.738281 78.628906 L 39.5 78.769531 C 42.59375 84.011719 48.695312 88.441406 58.175781 92.398438 L 60.273438 93.253906 C 61.082031 93.589844 61.9375 93.921875 62.75 94.253906 C 62.84375 95.066406 62.941406 95.875 63.035156 96.6875 L 61.84375 96.304688 C 60.84375 95.972656 59.84375 95.683594 58.84375 95.351562 C 51.980469 93.207031 43.023438 89.015625 39.261719 81.914062 L 39.070312 82.011719 C 42.832031 89.207031 51.839844 93.398438 58.699219 95.683594 C 59.699219 96.019531 60.75 96.351562 61.699219 96.636719 L 62.988281 97.019531 C 63.035156 97.351562 63.035156 97.6875 63.082031 98.019531 C 63.128906 98.542969 63.128906 99.019531 63.128906 99.542969 L 63.082031 99.542969 C 61.84375 99.257812 60.558594 98.972656 59.269531 98.640625 C 53.363281 97.113281 42.691406 93.351562 38.878906 85.058594 L 38.6875 85.15625 C 42.546875 93.542969 53.269531 97.304688 59.269531 98.828125 C 60.558594 99.164062 61.84375 99.449219 63.082031 99.734375 L 63.179688 99.734375 C 63.179688 100.59375 63.179688 101.496094 63.179688 102.355469 C 62.082031 102.164062 60.984375 101.972656 59.890625 101.785156 C 54.746094 100.832031 42.355469 97.589844 38.496094 88.203125 L 38.308594 88.300781 C 42.167969 97.78125 54.648438 101.070312 59.84375 102.023438 C 60.9375 102.210938 62.082031 102.402344 63.179688 102.59375 C 63.179688 103.5 63.128906 104.40625 63.035156 105.308594 C 62.175781 105.214844 61.273438 105.117188 60.414062 105.023438 C 56.175781 104.453125 41.878906 101.878906 38.117188 91.398438 L 37.925781 91.492188 C 41.738281 102.070312 56.125 104.640625 60.460938 105.214844 C 61.320312 105.308594 62.226562 105.40625 63.082031 105.5 C 63.035156 106.453125 62.941406 107.359375 62.84375 108.3125 C 62.226562 108.261719 61.652344 108.261719 61.035156 108.214844 C 51.648438 107.550781 40.59375 103.59375 37.734375 94.636719 L 37.496094 94.683594 C 40.402344 103.738281 51.550781 107.691406 60.984375 108.40625 C 61.605469 108.453125 62.175781 108.5 62.796875 108.5 C 62.703125 109.453125 62.558594 110.40625 62.414062 111.410156 C 62.128906 111.410156 61.84375 111.410156 61.511719 111.410156 C 52.027344 111.121094 39.976562 107.453125 37.257812 97.828125 L 37.066406 97.875 C 39.832031 107.597656 51.933594 111.3125 61.511719 111.597656 L 62.367188 111.597656 C 62.226562 112.597656 62.082031 113.601562 61.890625 114.554688 C 56.269531 114.601562 50.789062 113.550781 46.503906 111.550781 C 41.308594 109.167969 37.972656 105.5 36.878906 100.972656 L 36.640625 101.070312 C 37.78125 105.691406 41.164062 109.359375 46.40625 111.789062 C 50.742188 113.789062 56.222656 114.839844 61.890625 114.792969 C 61.414062 117.554688 60.9375 120.269531 60.414062 122.984375 C 59.03125 130.226562 57.554688 137.707031 57.601562 145.140625 C 57.652344 156.101562 60.890625 167.011719 67.039062 177.207031 C 67.941406 179.015625 68.894531 180.78125 69.945312 182.542969 C 70.800781 184.304688 71.753906 186.070312 72.800781 187.785156 C 73.707031 189.640625 74.707031 191.453125 75.804688 193.261719 C 76.660156 195.074219 77.664062 196.882812 78.710938 198.648438 C 79.566406 200.410156 80.472656 202.125 81.472656 203.839844 C 82.332031 205.652344 83.238281 207.367188 84.285156 209.082031 C 85.144531 210.890625 86.046875 212.605469 87.046875 214.324219 C 87.859375 215.988281 88.714844 217.65625 89.621094 219.230469 C 90.429688 221.039062 91.382812 222.804688 92.382812 224.519531 C 93.195312 226.28125 94.101562 227.996094 95.101562 229.664062 C 95.910156 231.425781 96.816406 233.191406 97.816406 234.859375 C 98.578125 236.523438 99.4375 238.191406 100.390625 239.765625 C 101.292969 241.863281 102.390625 243.863281 103.582031 245.816406 C 107.632812 252.199219 113.394531 257.296875 120.257812 260.492188 C 127.453125 263.875 134.882812 264.589844 141.699219 262.585938 C 152.988281 259.300781 160.898438 249.246094 166.519531 240.910156 C 167.570312 239.382812 168.617188 237.765625 169.617188 236.238281 C 171.429688 233.429688 173.285156 230.617188 175.289062 227.902344 C 179.097656 228.28125 182.910156 228.664062 186.722656 229.046875 C 191.152344 229.472656 195.726562 229.902344 200.207031 230.378906 C 209.355469 231.332031 219.167969 232.617188 228.554688 235.238281 C 229.792969 240.097656 230.605469 245.007812 231.414062 249.820312 C 232.558594 256.824219 233.75 264.015625 236.226562 270.925781 C 238.5625 277.453125 241.894531 283.503906 245.660156 288.078125 C 250.378906 293.796875 255.570312 297.082031 261.144531 297.796875 L 261.144531 297.605469 C 249.425781 296.082031 240.65625 282.789062 236.417969 270.878906 C 233.988281 264.015625 232.796875 256.824219 231.605469 249.820312 C 230.84375 245.054688 230.03125 240.144531 228.792969 235.335938 L 228.890625 235.335938 C 230.507812 240.195312 231.605469 245.195312 232.796875 250.390625 C 233.128906 251.914062 233.511719 253.488281 233.890625 255.058594 C 234.988281 260.0625 236.417969 265.015625 238.179688 269.828125 C 239.941406 274.453125 242.945312 281.167969 247.375 287.03125 C 251.804688 292.890625 256.476562 296.320312 261.382812 297.417969 L 261.429688 297.226562 C 248.613281 294.414062 240.515625 275.5 238.371094 269.78125 C 236.609375 264.96875 235.179688 260.015625 234.082031 255.011719 C 233.703125 253.441406 233.367188 251.867188 233.035156 250.34375 C 231.890625 245.386719 230.746094 240.335938 229.175781 235.382812 L 229.269531 235.382812 C 231.367188 240.527344 232.890625 245.816406 234.511719 251.296875 C 234.796875 252.296875 235.082031 253.25 235.367188 254.25 C 236.75 258.871094 238.226562 263.777344 240.179688 268.734375 C 243.136719 276.070312 251.140625 293.507812 261.71875 297.035156 L 261.765625 296.84375 C 251.28125 293.414062 243.324219 276.023438 240.371094 268.6875 C 238.417969 263.730469 236.941406 258.824219 235.558594 254.203125 C 235.273438 253.203125 234.988281 252.25 234.703125 251.246094 C 233.082031 245.816406 231.558594 240.574219 229.507812 235.476562 L 229.554688 235.476562 C 232.320312 241.003906 234.417969 246.816406 236.609375 252.867188 L 237.226562 254.628906 C 238.75 258.871094 240.324219 263.300781 242.183594 267.683594 C 246.898438 278.835938 254.140625 292.890625 262.050781 296.703125 L 262.144531 296.511719 C 254.332031 292.699219 247.089844 278.691406 242.371094 267.589844 C 240.515625 263.207031 238.941406 258.777344 237.417969 254.535156 L 236.796875 252.773438 C 234.652344 246.769531 232.558594 241.003906 229.84375 235.523438 L 229.890625 235.523438 C 233.175781 240.957031 235.75 246.769531 238.273438 252.726562 C 238.988281 254.34375 239.65625 256.011719 240.371094 257.726562 C 241.5625 260.632812 242.800781 263.636719 244.136719 266.636719 C 249.1875 278.070312 255.855469 291.792969 262.289062 296.367188 L 262.382812 296.175781 C 255.902344 291.554688 248.949219 277.070312 244.277344 266.542969 C 242.945312 263.539062 241.707031 260.539062 240.515625 257.632812 C 239.800781 255.917969 239.132812 254.296875 238.417969 252.628906 C 235.894531 246.769531 233.367188 241.003906 230.128906 235.621094 C 233.988281 240.957031 236.988281 246.578125 239.65625 251.960938 C 241.132812 254.964844 242.609375 258.109375 244.136719 261.394531 C 244.753906 262.777344 245.421875 264.160156 246.042969 265.589844 L 247.089844 267.828125 C 252.140625 278.738281 257.90625 291.078125 262.527344 295.988281 L 262.667969 295.84375 C 258.046875 290.9375 252.332031 278.597656 247.28125 267.734375 L 246.230469 265.492188 L 244.328125 261.300781 C 242.800781 258.011719 241.371094 254.867188 239.847656 251.867188 C 237.179688 246.578125 234.226562 241.050781 230.507812 235.8125 C 234.128906 240.050781 237.511719 244.957031 241.085938 251.199219 C 243.515625 255.441406 245.804688 260.109375 247.996094 264.539062 C 250.234375 269.164062 252.519531 274.117188 254.714844 278.929688 C 257.808594 285.695312 260.714844 292.128906 262.8125 295.652344 L 263.003906 295.558594 C 260.953125 291.984375 258 285.601562 254.902344 278.835938 C 252.710938 274.023438 250.425781 269.066406 248.1875 264.445312 C 246.042969 260.015625 243.707031 255.34375 241.277344 251.105469 C 238.273438 245.816406 234.84375 240.8125 230.984375 236.097656 C 235.320312 240.480469 239.179688 245.292969 242.515625 250.4375 C 245.230469 254.628906 247.710938 259.015625 249.902344 263.492188 C 255.953125 275.355469 261.144531 289.316406 263.003906 295.320312 L 263.195312 295.273438 C 261.335938 289.269531 256.140625 275.261719 250.089844 263.398438 C 247.851562 258.917969 245.375 254.535156 242.660156 250.34375 C 239.417969 245.339844 235.703125 240.671875 231.507812 236.429688 C 236.132812 240.382812 240.277344 244.863281 243.898438 249.722656 C 246.851562 253.773438 249.519531 258.011719 251.855469 262.492188 C 257.714844 273.5 262.621094 287.457031 263.289062 295.035156 L 263.480469 295.035156 C 262.8125 287.457031 257.90625 273.449219 252.042969 262.445312 C 249.710938 257.964844 247.042969 253.726562 244.089844 249.675781 C 240.5625 244.910156 236.511719 240.574219 232.035156 236.714844 C 236.941406 240.289062 241.421875 244.433594 245.375 249.054688 C 248.566406 252.914062 251.425781 257.109375 253.808594 261.492188 C 260.335938 273.117188 264.335938 286.792969 263.574219 294.75 L 263.765625 294.75 C 264.527344 286.792969 260.527344 273.070312 254 261.394531 C 251.570312 256.964844 248.757812 252.773438 245.515625 248.914062 C 241.707031 244.433594 237.417969 240.433594 232.699219 236.90625 C 237.847656 240.050781 242.609375 243.910156 246.804688 248.246094 C 250.234375 251.914062 253.285156 256.011719 255.761719 260.394531 C 262.667969 272.308594 265.957031 285.933594 263.859375 294.320312 L 264.050781 294.367188 C 266.148438 285.886719 262.90625 272.210938 255.953125 260.253906 C 253.425781 255.871094 250.425781 251.773438 246.945312 248.054688 C 242.898438 243.816406 238.324219 240.144531 233.367188 237.050781 C 238.75 239.8125 243.753906 243.339844 248.234375 247.484375 C 251.902344 250.960938 255.09375 254.964844 257.714844 259.347656 C 265.003906 271.402344 267.53125 284.980469 264.097656 293.984375 L 264.289062 294.082031 C 264.335938 293.9375 264.386719 293.796875 264.433594 293.699219 L 264.574219 293.746094 C 264.625 293.605469 264.671875 293.507812 264.765625 293.367188 L 264.863281 293.414062 C 274.4375 277.261719 265.289062 256.109375 251.378906 245.722656 Z M 66.511719 105.832031 C 67.464844 105.929688 68.417969 106.023438 69.371094 106.121094 C 69.417969 106.929688 69.46875 107.738281 69.46875 108.597656 L 66.5625 108.453125 L 66.417969 108.453125 C 66.464844 107.929688 66.464844 107.359375 66.464844 106.835938 C 66.511719 106.5 66.511719 106.167969 66.511719 105.832031 Z M 66.226562 100.117188 C 66.132812 99.355469 66.035156 98.640625 65.894531 97.875 C 66.65625 98.113281 67.371094 98.402344 68.132812 98.6875 C 68.324219 99.402344 68.515625 100.117188 68.65625 100.832031 C 67.847656 100.59375 67.039062 100.402344 66.226562 100.210938 C 66.226562 100.164062 66.226562 100.164062 66.226562 100.117188 Z M 64.605469 92.539062 C 64.417969 91.96875 64.226562 91.398438 64.035156 90.824219 C 64.558594 91.207031 65.035156 91.636719 65.558594 92.0625 C 65.847656 92.636719 66.132812 93.253906 66.417969 93.875 C 65.847656 93.492188 65.273438 93.160156 64.703125 92.777344 C 64.65625 92.730469 64.65625 92.636719 64.605469 92.539062 Z M 63.894531 90.492188 C 63.65625 89.921875 63.464844 89.347656 63.226562 88.777344 C 63.65625 89.207031 64.035156 89.632812 64.417969 90.0625 C 64.75 90.585938 65.035156 91.109375 65.273438 91.636719 C 64.84375 91.253906 64.371094 90.871094 63.894531 90.492188 Z M 68.179688 95.113281 C 67.703125 94.78125 67.226562 94.445312 66.75 94.113281 C 66.511719 93.589844 66.273438 93.015625 65.988281 92.492188 C 66.417969 92.875 66.847656 93.304688 67.277344 93.683594 C 67.5625 94.160156 67.894531 94.636719 68.179688 95.113281 Z M 73.804688 100.972656 L 74.089844 101.355469 C 73.613281 101.070312 73.136719 100.785156 72.660156 100.546875 C 72.421875 100.070312 72.136719 99.59375 71.847656 99.117188 C 72.277344 99.449219 72.707031 99.78125 73.136719 100.117188 C 73.375 100.402344 73.566406 100.6875 73.804688 100.972656 Z M 76.136719 103.070312 C 76.472656 103.453125 76.757812 103.832031 77.042969 104.214844 C 76.566406 103.929688 76.089844 103.691406 75.613281 103.453125 C 75.375 102.976562 75.089844 102.546875 74.804688 102.117188 C 75.230469 102.402344 75.660156 102.738281 76.136719 103.070312 Z M 79.089844 105.832031 C 79.425781 106.214844 79.710938 106.597656 80.042969 106.976562 C 79.566406 106.691406 79.089844 106.5 78.613281 106.261719 C 78.328125 105.832031 78.089844 105.355469 77.804688 104.929688 C 78.234375 105.214844 78.664062 105.5 79.089844 105.832031 Z M 82.046875 108.453125 C 82.378906 108.835938 82.710938 109.167969 83 109.550781 C 82.523438 109.3125 82.09375 109.074219 81.617188 108.882812 C 81.332031 108.453125 81.09375 108.023438 80.808594 107.644531 C 81.234375 107.929688 81.617188 108.167969 82.046875 108.453125 Z M 85.046875 111.121094 C 85.378906 111.457031 85.667969 111.789062 85.953125 112.171875 C 85.523438 111.933594 85.046875 111.695312 84.617188 111.503906 C 84.332031 111.074219 84.09375 110.695312 83.808594 110.3125 C 84.238281 110.550781 84.617188 110.835938 85.046875 111.121094 Z M 87.859375 113.503906 L 88 113.601562 C 88.335938 113.933594 88.621094 114.265625 88.953125 114.648438 C 88.527344 114.410156 88.097656 114.21875 87.667969 114.027344 C 87.382812 113.648438 87.144531 113.265625 86.859375 112.886719 C 87.144531 113.027344 87.476562 113.265625 87.859375 113.503906 Z M 91.003906 116.125 C 91.335938 116.457031 91.621094 116.792969 91.910156 117.125 C 91.480469 116.886719 91.050781 116.695312 90.574219 116.507812 C 90.289062 116.125 90.050781 115.742188 89.765625 115.363281 C 89.90625 115.457031 90.050781 115.503906 90.144531 115.601562 C 90.480469 115.742188 90.71875 115.933594 91.003906 116.125 Z M 93.910156 118.554688 C 95.578125 120.222656 97.007812 122.082031 98.148438 124.128906 C 99.816406 127.082031 100.960938 130.324219 101.628906 133.660156 C 103.105469 141.28125 102.199219 149.097656 101.105469 155.71875 C 100.152344 161.4375 98.863281 167.25 97.671875 172.824219 C 95.863281 181.113281 94.003906 189.640625 93.097656 198.171875 C 92.910156 199.933594 92.8125 201.695312 92.71875 203.460938 C 91.765625 202.792969 90.859375 202.125 89.953125 201.457031 C 90.003906 198.742188 90.144531 196.167969 90.382812 193.789062 C 91.195312 185.304688 93.050781 176.875 94.816406 168.679688 C 95.957031 163.4375 97.148438 158.003906 98.054688 152.621094 C 99.148438 146.1875 100.054688 138.613281 98.722656 131.132812 C 98.148438 127.894531 97.054688 124.75 95.53125 121.796875 C 94.765625 120.367188 93.863281 118.984375 92.859375 117.746094 C 93.148438 118.03125 93.527344 118.269531 93.910156 118.554688 Z M 87 211.605469 C 87.574219 212.273438 88.097656 212.941406 88.714844 213.558594 C 88.90625 214.324219 89.097656 215.085938 89.289062 215.847656 C 88.761719 215.179688 88.238281 214.511719 87.714844 213.847656 C 87.476562 213.082031 87.238281 212.320312 87 211.605469 Z M 85.046875 208.746094 C 84.761719 208.035156 84.523438 207.269531 84.285156 206.507812 C 84.808594 207.128906 85.332031 207.746094 85.90625 208.367188 C 86.09375 209.128906 86.285156 209.890625 86.476562 210.652344 C 86.046875 210.128906 85.617188 209.558594 85.191406 209.035156 Z M 69.132812 102.308594 C 69.085938 101.925781 68.992188 101.546875 68.894531 101.164062 C 69.65625 101.355469 70.371094 101.59375 71.136719 101.832031 C 71.324219 102.5 71.515625 103.164062 71.707031 103.878906 C 70.898438 103.691406 70.085938 103.5 69.277344 103.355469 C 69.277344 103.023438 69.230469 102.640625 69.132812 102.308594 Z M 70.421875 99.640625 C 70.660156 100.257812 70.898438 100.925781 71.085938 101.546875 C 70.371094 101.308594 69.609375 101.070312 68.894531 100.878906 C 68.753906 100.164062 68.5625 99.449219 68.371094 98.78125 C 69.085938 99.066406 69.753906 99.355469 70.421875 99.640625 Z M 68.324219 98.542969 C 68.132812 97.875 67.941406 97.210938 67.703125 96.542969 C 68.324219 96.875 68.894531 97.210938 69.515625 97.542969 C 69.800781 98.113281 70.039062 98.734375 70.324219 99.355469 C 69.65625 99.117188 68.992188 98.828125 68.324219 98.542969 Z M 173.238281 225.757812 L 173.859375 225.28125 C 174.144531 225.28125 174.429688 225.234375 174.765625 225.234375 L 174.191406 225.804688 Z M 79.378906 116.601562 C 79.328125 115.839844 79.234375 115.078125 79.140625 114.316406 C 79.996094 114.363281 80.808594 114.410156 81.664062 114.503906 C 81.996094 116.03125 82.285156 117.554688 82.425781 119.078125 C 83.046875 125.320312 82.1875 131.65625 81.234375 137.042969 C 80.570312 140.757812 79.804688 144.523438 79.042969 148.144531 C 77.472656 155.8125 75.804688 163.769531 75.375 171.726562 C 75.042969 177.730469 75.46875 183.734375 76.757812 189.59375 C 76.089844 188.878906 75.46875 188.164062 74.851562 187.402344 C 73.089844 180.875 72.375 174.0625 72.660156 167.296875 C 73.039062 159.484375 74.660156 151.667969 76.183594 144.09375 C 76.851562 140.757812 77.566406 137.328125 78.140625 133.945312 C 78.996094 128.75 79.855469 122.652344 79.378906 116.601562 Z M 76.136719 114.027344 C 76.089844 113.265625 75.996094 112.457031 75.945312 111.695312 C 76.804688 111.742188 77.664062 111.789062 78.472656 111.882812 C 78.613281 112.597656 78.757812 113.3125 78.851562 114.027344 C 77.949219 114.027344 77.042969 114.027344 76.136719 114.027344 Z M 74.851562 106.976562 C 75.042969 107.644531 75.183594 108.359375 75.328125 109.074219 C 74.46875 108.976562 73.613281 108.882812 72.753906 108.789062 C 72.660156 108.023438 72.613281 107.261719 72.46875 106.5 C 73.277344 106.644531 74.089844 106.785156 74.851562 106.976562 Z M 72.421875 106.308594 C 72.324219 105.691406 72.230469 105.070312 72.085938 104.453125 C 72.085938 104.355469 72.039062 104.261719 71.992188 104.117188 C 72.753906 104.308594 73.46875 104.5 74.183594 104.691406 C 74.375 105.308594 74.613281 105.976562 74.757812 106.644531 C 74.757812 106.644531 74.757812 106.644531 74.757812 106.691406 C 73.992188 106.597656 73.183594 106.453125 72.421875 106.308594 Z M 75.089844 107.023438 C 75.804688 107.167969 76.566406 107.359375 77.28125 107.550781 C 77.425781 107.976562 77.613281 108.453125 77.757812 108.882812 C 77.804688 109.074219 77.851562 109.265625 77.902344 109.453125 C 77.136719 109.3125 76.375 109.214844 75.566406 109.121094 C 75.375 108.40625 75.230469 107.691406 75.089844 107.023438 Z M 75.375 109.265625 C 75.519531 109.980469 75.613281 110.742188 75.707031 111.503906 C 74.804688 111.457031 73.851562 111.410156 72.945312 111.410156 C 72.898438 110.597656 72.851562 109.789062 72.800781 109.027344 C 73.613281 109.074219 74.46875 109.167969 75.375 109.265625 Z M 75.566406 109.3125 C 76.375 109.40625 77.136719 109.550781 77.949219 109.691406 C 78.140625 110.359375 78.328125 111.027344 78.472656 111.742188 C 77.613281 111.644531 76.804688 111.597656 75.945312 111.550781 C 75.804688 110.742188 75.707031 110.027344 75.566406 109.3125 Z M 78.140625 109.691406 C 78.851562 109.835938 79.566406 109.980469 80.28125 110.167969 C 80.378906 110.457031 80.519531 110.742188 80.617188 111.027344 C 80.710938 111.3125 80.855469 111.695312 80.949219 112.027344 C 80.1875 111.882812 79.425781 111.789062 78.664062 111.695312 C 78.519531 111.027344 78.328125 110.359375 78.140625 109.691406 Z M 78.710938 111.933594 C 79.472656 112.027344 80.28125 112.121094 81.046875 112.265625 C 81.234375 112.933594 81.425781 113.601562 81.570312 114.265625 C 80.757812 114.171875 79.902344 114.125 79.089844 114.125 C 78.949219 113.363281 78.851562 112.648438 78.710938 111.933594 Z M 83.570312 113.21875 C 83.761719 113.648438 83.902344 114.078125 84.046875 114.554688 C 83.285156 114.410156 82.570312 114.363281 81.808594 114.265625 C 81.664062 113.601562 81.472656 112.933594 81.285156 112.3125 C 81.996094 112.457031 82.710938 112.597656 83.378906 112.742188 C 83.425781 112.933594 83.476562 113.074219 83.570312 113.21875 Z M 75.519531 171.679688 C 75.945312 163.769531 77.613281 155.8125 79.1875 148.144531 C 79.949219 144.523438 80.710938 140.757812 81.378906 137.042969 C 82.332031 131.65625 83.1875 125.320312 82.570312 119.03125 C 82.425781 117.507812 82.1875 115.980469 81.808594 114.503906 C 82.570312 114.601562 83.332031 114.695312 84.09375 114.792969 C 84.808594 116.984375 85.285156 119.175781 85.570312 121.460938 C 86.332031 127.941406 85.476562 134.515625 84.523438 140.089844 C 83.808594 144.140625 82.949219 148.238281 82.140625 152.191406 C 80.519531 159.960938 78.804688 168.011719 78.28125 176.0625 C 77.949219 181.398438 78.1875 186.734375 79.042969 191.976562 C 78.328125 191.261719 77.664062 190.546875 76.949219 189.785156 C 75.660156 183.878906 75.183594 177.777344 75.519531 171.679688 Z M 86.476562 115.410156 C 87.621094 118.125 88.382812 120.984375 88.761719 123.890625 C 89.667969 130.609375 88.8125 137.421875 87.8125 143.234375 C 87.046875 147.617188 86.144531 152.050781 85.238281 156.289062 C 83.570312 164.199219 81.855469 172.347656 81.234375 180.496094 C 80.902344 185.117188 80.996094 189.785156 81.523438 194.40625 C 80.757812 193.691406 80.042969 192.976562 79.28125 192.261719 C 78.375 186.925781 78.140625 181.496094 78.472656 176.109375 C 78.996094 168.058594 80.664062 160.054688 82.332031 152.242188 C 83.140625 148.285156 84.046875 144.1875 84.714844 140.136719 C 85.667969 134.5625 86.570312 127.941406 85.761719 121.414062 C 85.523438 119.175781 85.046875 116.933594 84.332031 114.792969 C 85.046875 114.886719 85.714844 115.078125 86.382812 115.21875 C 86.429688 115.316406 86.476562 115.363281 86.476562 115.410156 Z M 79.140625 192.5 C 79.28125 193.3125 79.425781 194.121094 79.617188 194.929688 C 78.949219 194.214844 78.328125 193.5 77.710938 192.785156 C 77.519531 191.976562 77.28125 191.214844 77.136719 190.40625 C 77.757812 191.070312 78.425781 191.785156 79.140625 192.5 Z M 79.378906 192.738281 C 80.09375 193.453125 80.855469 194.167969 81.570312 194.835938 C 81.664062 195.644531 81.808594 196.503906 81.902344 197.3125 C 81.1875 196.597656 80.519531 195.882812 79.804688 195.167969 C 79.664062 194.359375 79.519531 193.550781 79.378906 192.738281 Z M 81.808594 195.074219 C 82.570312 195.789062 83.332031 196.457031 84.140625 197.171875 C 84.191406 197.980469 84.285156 198.835938 84.378906 199.695312 C 83.617188 199.027344 82.902344 198.3125 82.1875 197.597656 C 82.046875 196.742188 81.902344 195.929688 81.808594 195.074219 Z M 81.996094 197.695312 C 82.140625 198.503906 82.285156 199.3125 82.425781 200.125 C 81.757812 199.457031 81.140625 198.742188 80.519531 198.027344 C 80.332031 197.21875 80.140625 196.40625 79.949219 195.597656 C 80.617188 196.3125 81.285156 196.980469 81.996094 197.695312 Z M 82.234375 197.933594 C 82.949219 198.648438 83.664062 199.3125 84.378906 199.980469 C 84.476562 200.792969 84.570312 201.601562 84.714844 202.457031 C 84.046875 201.792969 83.332031 201.125 82.710938 200.410156 C 82.523438 199.550781 82.378906 198.742188 82.234375 197.933594 Z M 84.617188 200.171875 C 85.378906 200.886719 86.191406 201.554688 87 202.21875 C 87.046875 203.03125 87.144531 203.886719 87.191406 204.746094 C 86.429688 204.078125 85.667969 203.363281 84.953125 202.648438 C 84.855469 201.839844 84.714844 200.980469 84.617188 200.171875 Z M 84.761719 202.792969 C 84.90625 203.601562 85.046875 204.414062 85.191406 205.222656 C 84.570312 204.554688 83.953125 203.886719 83.332031 203.222656 C 83.140625 202.410156 82.949219 201.601562 82.761719 200.792969 C 83.425781 201.457031 84.09375 202.125 84.761719 202.792969 Z M 85 203.03125 C 85.714844 203.746094 86.476562 204.414062 87.238281 205.078125 C 87.335938 205.890625 87.429688 206.746094 87.574219 207.558594 C 86.859375 206.890625 86.144531 206.175781 85.476562 205.460938 C 85.285156 204.652344 85.144531 203.839844 85 203.03125 Z M 87.476562 205.269531 C 88.238281 205.9375 89.050781 206.605469 89.859375 207.269531 C 89.90625 208.128906 89.953125 208.9375 90.050781 209.796875 C 89.289062 209.128906 88.527344 208.460938 87.8125 207.796875 C 87.667969 206.9375 87.574219 206.078125 87.476562 205.269531 Z M 87.621094 207.890625 C 87.761719 208.699219 87.90625 209.558594 88.050781 210.367188 C 87.382812 209.699219 86.761719 208.984375 86.144531 208.273438 C 85.953125 207.460938 85.761719 206.652344 85.570312 205.839844 C 86.191406 206.554688 86.90625 207.222656 87.621094 207.890625 Z M 87.859375 208.128906 C 88.574219 208.796875 89.335938 209.460938 90.097656 210.128906 C 90.191406 210.988281 90.289062 211.84375 90.382812 212.703125 C 89.667969 212.035156 88.953125 211.367188 88.289062 210.652344 C 88.097656 209.796875 87.953125 208.9375 87.859375 208.128906 Z M 176.667969 223.613281 L 177.433594 223.46875 L 176.90625 224.042969 L 176.097656 224.136719 Z M 175.765625 224.183594 L 175.050781 224.28125 L 175.574219 223.851562 L 176.289062 223.707031 Z M 182.148438 220.898438 C 190.152344 218.46875 198.539062 217.847656 205.78125 219.132812 C 208.640625 219.660156 211.449219 220.5625 214.070312 221.851562 C 219.121094 224.328125 222.933594 227.949219 226.410156 231.378906 C 226.839844 231.808594 227.269531 232.238281 227.699219 232.667969 L 226.507812 231.664062 C 222.125 227.996094 218.214844 225.089844 213.453125 222.992188 C 210.734375 221.851562 207.878906 220.992188 204.972656 220.515625 C 197.824219 219.277344 189.34375 219.707031 181.148438 221.660156 C 180.671875 221.753906 180.242188 221.898438 179.8125 221.992188 L 180.339844 221.421875 C 180.957031 221.277344 181.53125 221.089844 182.148438 220.898438 Z M 180.671875 221.183594 L 181.148438 220.660156 C 181.769531 220.421875 182.433594 220.136719 183.054688 219.898438 C 190.820312 217.039062 199.398438 216.179688 206.589844 217.5625 C 209.449219 218.085938 212.261719 219.085938 214.832031 220.515625 C 219.644531 223.183594 223.078125 226.996094 226.507812 231 C 226.839844 231.378906 227.222656 231.808594 227.507812 232.238281 C 227.222656 231.953125 226.886719 231.617188 226.601562 231.332031 C 223.125 227.855469 219.265625 224.28125 214.214844 221.753906 C 211.546875 220.46875 208.734375 219.5625 205.828125 219.039062 C 198.585938 217.707031 190.152344 218.324219 182.101562 220.800781 C 181.578125 220.851562 181.101562 220.992188 180.671875 221.183594 Z M 227.984375 233.238281 C 227.507812 232.855469 226.984375 232.523438 226.507812 232.140625 C 222.550781 229.332031 218.167969 226.472656 212.785156 224.375 C 210.023438 223.328125 207.164062 222.566406 204.257812 222.136719 C 195.203125 220.707031 186.246094 221.660156 180.339844 222.707031 L 179.097656 222.898438 L 179.625 222.28125 C 180.148438 222.136719 180.71875 221.992188 181.242188 221.851562 C 189.390625 219.898438 197.824219 219.46875 204.972656 220.707031 C 207.878906 221.183594 210.6875 221.992188 213.355469 223.183594 C 218.121094 225.28125 222.027344 228.140625 226.363281 231.808594 C 226.886719 232.285156 227.460938 232.761719 227.984375 233.238281 Z M 179.527344 222.136719 L 178.863281 222.328125 L 179.386719 221.851562 L 180.003906 221.660156 Z M 179.289062 222.421875 L 178.8125 222.992188 L 178.097656 223.136719 C 178.289062 222.945312 178.433594 222.753906 178.625 222.613281 C 178.8125 222.519531 179.050781 222.46875 179.289062 222.421875 Z M 177.71875 223.183594 L 177.003906 223.328125 L 177.527344 222.898438 L 178.195312 222.707031 Z M 177.8125 223.375 L 178.574219 223.230469 L 178.050781 223.851562 L 177.242188 223.945312 Z M 178.910156 223.183594 L 180.386719 222.898438 C 186.292969 221.851562 195.15625 220.898438 204.207031 222.328125 C 207.113281 222.753906 209.925781 223.519531 212.691406 224.566406 C 218.074219 226.613281 222.457031 229.519531 226.363281 232.285156 C 226.984375 232.714844 227.601562 233.191406 228.222656 233.617188 C 227.648438 233.238281 227.03125 232.90625 226.460938 232.523438 C 222.789062 230.332031 217.835938 227.566406 212.070312 225.664062 C 209.257812 224.757812 206.402344 224.089844 203.492188 223.660156 C 196.347656 222.613281 188.246094 222.613281 179.527344 223.660156 L 178.433594 223.804688 C 178.527344 223.613281 178.71875 223.375 178.910156 223.183594 Z M 183.960938 218.898438 C 191.488281 215.609375 200.253906 214.511719 207.402344 215.941406 C 210.257812 216.515625 213.023438 217.5625 215.546875 219.132812 C 220.121094 221.992188 223.265625 225.949219 226.554688 230.523438 C 226.839844 230.902344 227.078125 231.238281 227.316406 231.617188 C 227.078125 231.332031 226.886719 231.09375 226.648438 230.808594 C 223.21875 226.804688 219.742188 222.992188 214.929688 220.324219 C 212.355469 218.898438 209.546875 217.894531 206.640625 217.324219 C 199.398438 215.941406 190.820312 216.800781 183.007812 219.660156 C 182.484375 219.847656 182.007812 220.039062 181.53125 220.230469 L 181.957031 219.800781 C 182.53125 219.515625 183.195312 219.183594 183.960938 218.898438 Z M 182.292969 219.421875 L 182.625 219.085938 C 183.339844 218.660156 184.054688 218.277344 184.816406 217.894531 C 192.203125 214.132812 200.921875 212.796875 208.164062 214.371094 C 211.070312 214.988281 213.785156 216.132812 216.214844 217.800781 C 220.644531 220.851562 223.503906 225.136719 226.554688 230.09375 C 226.746094 230.378906 226.9375 230.710938 227.125 231 C 226.984375 230.808594 226.839844 230.617188 226.699219 230.425781 C 223.363281 225.902344 220.265625 221.898438 215.644531 218.992188 C 213.117188 217.46875 210.308594 216.371094 207.402344 215.800781 C 200.207031 214.324219 191.390625 215.417969 183.863281 218.753906 C 183.292969 218.945312 182.769531 219.183594 182.292969 219.421875 Z M 181.003906 220.46875 L 180.578125 220.660156 L 180.957031 220.324219 L 181.339844 220.136719 Z M 180.671875 220.851562 L 180.242188 221.328125 L 179.671875 221.515625 L 180.101562 221.089844 Z M 179.242188 221.613281 C 179.097656 221.660156 178.910156 221.707031 178.765625 221.804688 L 179.148438 221.46875 L 179.574219 221.277344 Z M 178.910156 221.992188 L 178.480469 222.421875 L 177.859375 222.613281 L 178.335938 222.230469 C 178.480469 222.136719 178.671875 222.042969 178.910156 221.992188 Z M 177.382812 222.707031 L 176.90625 222.851562 L 177.335938 222.566406 L 177.765625 222.375 Z M 177.050781 223.042969 C 176.90625 223.183594 176.765625 223.328125 176.574219 223.46875 L 175.953125 223.613281 L 176.429688 223.230469 Z M 175.476562 223.660156 L 174.953125 223.757812 L 175.382812 223.519531 L 175.90625 223.375 Z M 175.097656 223.945312 L 174.621094 224.328125 L 173.953125 224.421875 L 174.429688 224.089844 Z M 174.289062 224.613281 L 173.761719 225.042969 L 173 225.089844 L 173.574219 224.710938 Z M 173.476562 224.519531 L 172.953125 224.613281 L 173.382812 224.375 L 173.90625 224.234375 C 173.714844 224.328125 173.574219 224.421875 173.476562 224.519531 Z M 173.046875 224.804688 L 172.570312 225.136719 L 171.859375 225.1875 L 172.382812 224.898438 Z M 172.238281 225.375 L 171.667969 225.757812 L 170.855469 225.757812 L 171.429688 225.425781 Z M 171.382812 225.234375 L 170.808594 225.28125 L 171.238281 225.089844 L 171.808594 224.996094 Z M 170.953125 225.472656 L 170.378906 225.757812 L 169.664062 225.757812 L 170.191406 225.519531 Z M 168.238281 226.472656 L 169.140625 226.519531 L 168.523438 226.902344 L 167.570312 226.804688 Z M 167.1875 226.757812 L 166.28125 226.664062 L 166.902344 226.425781 L 167.761719 226.472656 Z M 168.617188 226.28125 L 169.238281 225.996094 L 170.09375 225.996094 L 169.523438 226.328125 Z M 169.1875 225.804688 L 168.570312 225.804688 L 169.046875 225.613281 L 169.664062 225.566406 Z M 168.710938 226.042969 L 168.1875 226.28125 L 167.425781 226.234375 L 168 226.042969 Z M 166.902344 226.234375 L 166.28125 226.1875 L 166.757812 226.042969 L 167.378906 226.042969 Z M 166.425781 226.375 L 165.855469 226.566406 L 165.042969 226.472656 L 165.617188 226.328125 Z M 165.425781 226.757812 C 164.042969 227.28125 162.710938 227.804688 161.375 228.332031 C 158.707031 229.332031 156.183594 230.332031 153.609375 231.238281 C 144.9375 234.332031 135.457031 237 124.925781 236.050781 C 115.015625 235.144531 104.582031 230.285156 96.148438 222.945312 C 96.054688 222.089844 95.957031 221.230469 95.863281 220.324219 C 103.867188 226.757812 113.253906 231.140625 122.496094 232.476562 C 133.121094 234.046875 142.890625 232.238281 151.796875 230.046875 C 154.992188 229.285156 158.085938 228.378906 161.375 227.472656 L 164.472656 226.613281 Z M 164.519531 226.425781 L 163.851562 226.328125 L 164.328125 226.234375 L 164.996094 226.28125 Z M 163.996094 226.566406 L 161.375 227.28125 C 158.089844 228.1875 154.992188 229.046875 151.796875 229.855469 C 142.839844 232.046875 133.121094 233.855469 122.542969 232.285156 C 113.300781 230.902344 103.820312 226.519531 95.863281 220.039062 C 95.816406 219.183594 95.71875 218.277344 95.671875 217.417969 C 103.105469 222.992188 111.585938 226.996094 120.113281 228.757812 C 130.976562 230.949219 141.316406 229.949219 149.988281 228.757812 C 153.992188 228.1875 157.945312 227.472656 162.136719 226.710938 L 163.136719 226.519531 Z M 93.148438 215.371094 C 93.910156 215.988281 94.671875 216.609375 95.480469 217.230469 C 95.53125 218.085938 95.578125 218.992188 95.625 219.847656 C 94.863281 219.230469 94.148438 218.609375 93.433594 217.992188 C 93.335938 217.132812 93.242188 216.277344 93.148438 215.371094 Z M 93.195312 217.753906 C 92.480469 217.085938 91.765625 216.417969 91.050781 215.75 C 90.90625 214.894531 90.765625 214.085938 90.621094 213.226562 C 91.382812 213.894531 92.097656 214.5625 92.859375 215.179688 C 93.003906 216.039062 93.097656 216.894531 93.195312 217.753906 Z M 162.089844 226.472656 C 157.898438 227.234375 153.992188 227.949219 149.941406 228.519531 C 141.269531 229.757812 130.976562 230.710938 120.113281 228.519531 C 111.585938 226.757812 103.058594 222.753906 95.625 217.132812 C 95.578125 216.226562 95.578125 215.371094 95.578125 214.464844 C 102.246094 219.277344 109.726562 222.851562 117.683594 224.996094 C 128.785156 227.855469 139.316406 227.804688 148.128906 227.378906 C 152.65625 227.140625 157.136719 226.757812 161.757812 226.328125 L 162.421875 226.425781 Z M 95.480469 216.992188 C 94.671875 216.371094 93.910156 215.75 93.148438 215.132812 C 93.050781 214.273438 93.003906 213.371094 92.957031 212.464844 C 93.765625 213.082031 94.578125 213.703125 95.433594 214.324219 C 95.386719 215.179688 95.433594 216.085938 95.480469 216.992188 Z M 92.859375 214.894531 C 92.097656 214.226562 91.335938 213.558594 90.574219 212.894531 C 90.480469 212.035156 90.335938 211.179688 90.242188 210.273438 C 91.050781 210.941406 91.8125 211.605469 92.621094 212.226562 C 92.71875 213.179688 92.8125 214.035156 92.859375 214.894531 Z M 90.429688 212.988281 C 90.527344 213.796875 90.667969 214.65625 90.8125 215.464844 C 90.144531 214.800781 89.527344 214.132812 88.90625 213.417969 C 88.714844 212.605469 88.527344 211.796875 88.382812 210.988281 C 89.050781 211.703125 89.714844 212.367188 90.429688 212.988281 Z M 93.195312 218.085938 C 93.289062 218.945312 93.433594 219.753906 93.574219 220.613281 C 92.910156 219.945312 92.242188 219.277344 91.621094 218.609375 C 91.433594 217.800781 91.242188 216.941406 91.097656 216.132812 C 91.8125 216.753906 92.527344 217.417969 93.195312 218.085938 Z M 93.433594 218.277344 C 94.148438 218.898438 94.863281 219.515625 95.625 220.136719 C 95.671875 220.992188 95.765625 221.851562 95.863281 222.707031 C 95.148438 222.089844 94.480469 221.46875 93.8125 220.851562 C 93.71875 219.992188 93.574219 219.132812 93.433594 218.277344 Z M 95.910156 223.042969 C 96.003906 223.898438 96.148438 224.757812 96.292969 225.613281 C 95.671875 224.996094 95.054688 224.375 94.433594 223.757812 C 94.242188 222.945312 94.101562 222.089844 93.910156 221.230469 C 94.578125 221.851562 95.242188 222.421875 95.910156 223.042969 Z M 96.148438 223.230469 C 98.675781 225.425781 101.34375 227.378906 104.152344 229.09375 C 110.871094 233.140625 118.019531 235.621094 124.925781 236.238281 C 135.503906 237.191406 144.984375 234.476562 153.703125 231.425781 C 156.277344 230.523438 158.898438 229.519531 161.472656 228.519531 C 162.949219 227.949219 164.425781 227.378906 165.902344 226.851562 L 166.855469 226.949219 C 165.1875 227.757812 163.519531 228.617188 161.898438 229.425781 C 159.804688 230.472656 157.613281 231.570312 155.46875 232.617188 C 147.082031 236.574219 137.886719 240.195312 127.355469 239.8125 C 116.636719 239.433594 105.34375 234.191406 96.578125 225.851562 C 96.386719 224.996094 96.292969 224.136719 96.148438 223.230469 Z M 127.308594 240.003906 C 137.886719 240.382812 147.128906 236.761719 155.515625 232.761719 C 157.660156 231.761719 159.851562 230.617188 161.945312 229.570312 C 163.664062 228.710938 165.425781 227.804688 167.1875 226.949219 L 168.1875 227.042969 C 166.332031 228.1875 164.472656 229.332031 162.660156 230.472656 C 160.851562 231.617188 159.039062 232.761719 157.183594 233.90625 C 149.128906 238.765625 140.171875 243.292969 129.644531 243.527344 L 129.023438 243.527344 C 117.875 243.527344 105.820312 237.8125 97.007812 228.664062 C 96.816406 227.855469 96.671875 226.996094 96.53125 226.136719 C 105.34375 234.429688 116.636719 239.621094 127.308594 240.003906 Z M 108.726562 238.050781 C 115.589844 241.910156 122.832031 243.910156 129.691406 243.765625 C 140.269531 243.578125 149.226562 239.003906 157.324219 234.144531 C 159.136719 233.046875 160.996094 231.855469 162.804688 230.710938 C 164.710938 229.519531 166.617188 228.332031 168.523438 227.140625 L 169.570312 227.234375 C 167.617188 228.710938 165.664062 230.1875 163.757812 231.664062 C 162.234375 232.855469 160.613281 234.09375 159.039062 235.285156 C 151.371094 241.050781 142.792969 246.484375 132.121094 247.292969 C 120.066406 248.199219 106.820312 241.957031 97.769531 231.523438 C 97.578125 230.710938 97.339844 229.902344 97.195312 229.09375 C 100.578125 232.617188 104.488281 235.621094 108.726562 238.050781 Z M 168.855469 226.949219 L 169.523438 226.566406 L 170.476562 226.613281 L 169.855469 227.089844 Z M 169.808594 226.375 L 170.429688 225.996094 L 171.332031 225.996094 L 170.714844 226.425781 Z M 171.714844 225.949219 L 172.621094 225.949219 L 172 226.472656 L 171.046875 226.425781 Z M 172 225.757812 L 172.621094 225.328125 L 173.476562 225.28125 L 172.90625 225.757812 Z M 174.097656 224.996094 L 174.667969 224.519531 L 175.480469 224.421875 L 174.953125 224.949219 Z M 175.859375 224.375 L 176.71875 224.28125 L 176.144531 224.898438 L 175.289062 224.949219 Z M 177.003906 224.234375 L 177.859375 224.136719 C 177.671875 224.375 177.480469 224.566406 177.335938 224.804688 L 176.429688 224.851562 Z M 178.148438 224.042969 L 179.433594 223.851562 C 188.152344 222.804688 196.203125 222.804688 203.351562 223.851562 C 206.257812 224.28125 209.117188 224.949219 211.925781 225.851562 C 217.691406 227.757812 222.648438 230.472656 226.269531 232.667969 C 226.9375 233.046875 227.601562 233.476562 228.222656 233.855469 L 228.222656 233.90625 C 227.601562 233.570312 226.984375 233.238281 226.316406 232.953125 C 221.503906 230.472656 216.453125 228.519531 211.261719 227.042969 C 208.402344 226.28125 205.496094 225.664062 202.589844 225.28125 C 195.585938 224.328125 187.484375 224.089844 178.527344 224.660156 L 177.574219 224.710938 Z M 226.699219 229.949219 C 223.648438 224.996094 220.789062 220.660156 216.3125 217.609375 C 213.832031 215.941406 211.070312 214.75 208.164062 214.179688 C 200.921875 212.605469 192.105469 213.941406 184.722656 217.707031 C 184.199219 217.945312 183.722656 218.230469 183.195312 218.515625 L 183.386719 218.371094 C 184.148438 217.847656 184.914062 217.371094 185.722656 216.894531 C 192.867188 212.703125 201.777344 211.128906 208.972656 212.796875 C 211.878906 213.417969 214.59375 214.65625 216.929688 216.464844 C 221.550781 219.992188 224.363281 225.328125 226.601562 229.664062 L 226.9375 230.332031 C 226.839844 230.140625 226.746094 230.046875 226.699219 229.949219 Z M 181.957031 219.46875 L 181.769531 219.660156 L 181.53125 219.753906 L 181.769531 219.5625 Z M 180.242188 220.660156 L 180.050781 220.851562 L 179.8125 220.945312 L 180.050781 220.753906 Z M 178.433594 221.753906 L 178.195312 221.945312 L 177.910156 222.042969 L 178.148438 221.851562 Z M 176.574219 222.804688 L 176.335938 222.992188 C 176.242188 223.042969 176.144531 223.042969 176.050781 223.089844 C 176.144531 223.042969 176.191406 222.992188 176.289062 222.945312 Z M 174.621094 223.757812 L 174.382812 223.898438 L 174.050781 223.996094 L 174.289062 223.851562 Z M 172.621094 224.566406 L 172.332031 224.710938 L 172 224.757812 L 172.285156 224.613281 Z M 170.476562 225.234375 L 170.191406 225.375 L 169.808594 225.425781 L 170.09375 225.328125 Z M 168.238281 225.710938 L 167.949219 225.804688 L 167.523438 225.804688 L 167.808594 225.710938 Z M 165.902344 226.089844 L 165.617188 226.1875 L 165.234375 226.1875 L 165.519531 226.136719 Z M 163.425781 226.234375 L 163.1875 226.28125 L 162.804688 226.234375 Z M 160.851562 226.1875 C 156.5625 226.566406 152.371094 226.949219 148.175781 227.140625 C 139.363281 227.566406 128.882812 227.617188 117.78125 224.757812 C 109.824219 222.613281 102.296875 218.992188 95.578125 214.179688 C 95.578125 213.320312 95.578125 212.464844 95.578125 211.558594 C 101.628906 215.703125 108.25 218.945312 115.253906 221.183594 C 124.257812 223.996094 133.789062 225.472656 146.273438 225.996094 C 150.941406 226.1875 155.609375 226.1875 160.375 226.136719 Z M 95.386719 214.035156 C 94.527344 213.417969 93.71875 212.796875 92.910156 212.179688 C 92.859375 211.320312 92.8125 210.464844 92.8125 209.605469 C 93.671875 210.226562 94.527344 210.84375 95.433594 211.464844 C 95.386719 212.320312 95.386719 213.179688 95.386719 214.035156 Z M 92.671875 211.988281 C 91.859375 211.367188 91.050781 210.703125 90.242188 209.988281 C 90.144531 209.128906 90.097656 208.273438 90.050781 207.414062 C 90.859375 208.082031 91.71875 208.746094 92.574219 209.367188 C 92.621094 210.273438 92.621094 211.128906 92.671875 211.988281 Z M 90.050781 207.175781 C 90.003906 206.316406 89.953125 205.460938 89.953125 204.652344 C 90.8125 205.316406 91.71875 205.984375 92.621094 206.605469 C 92.621094 207.460938 92.621094 208.320312 92.621094 209.175781 C 91.71875 208.511719 90.859375 207.84375 90.050781 207.175781 Z M 89.8125 206.984375 C 89 206.316406 88.191406 205.652344 87.429688 204.9375 C 87.335938 204.078125 87.285156 203.269531 87.191406 202.410156 C 88 203.078125 88.859375 203.792969 89.667969 204.414062 C 89.714844 205.269531 89.765625 206.128906 89.8125 206.984375 Z M 87.191406 202.171875 C 87.144531 201.316406 87.097656 200.457031 87.046875 199.601562 C 87.90625 200.316406 88.8125 200.980469 89.667969 201.648438 C 89.667969 202.507812 89.667969 203.316406 89.667969 204.222656 C 88.859375 203.507812 88 202.839844 87.191406 202.171875 Z M 86.953125 201.980469 C 86.144531 201.316406 85.332031 200.601562 84.570312 199.886719 C 84.476562 199.027344 84.378906 198.21875 84.332031 197.359375 C 85.144531 198.074219 86 198.742188 86.808594 199.457031 C 86.859375 200.265625 86.90625 201.125 86.953125 201.980469 Z M 84.332031 196.980469 C 84.046875 192.976562 84.09375 188.976562 84.429688 184.972656 C 85.09375 176.730469 86.859375 168.488281 88.574219 160.484375 C 89.574219 155.863281 90.574219 151.144531 91.382812 146.425781 C 92.382812 140.425781 93.289062 133.324219 92.242188 126.320312 C 91.8125 123.273438 90.90625 120.316406 89.621094 117.507812 C 89.382812 116.984375 89.097656 116.457031 88.859375 115.980469 C 89.429688 116.171875 89.953125 116.410156 90.527344 116.648438 C 91.195312 117.648438 91.859375 118.699219 92.382812 119.792969 C 93.765625 122.652344 94.765625 125.652344 95.292969 128.800781 C 96.480469 135.992188 95.578125 143.28125 94.527344 149.523438 C 93.671875 154.574219 92.574219 159.671875 91.527344 164.582031 C 89.765625 172.679688 88 181.019531 87.238281 189.402344 C 86.953125 192.644531 86.859375 195.882812 86.953125 199.125 C 86 198.410156 85.191406 197.695312 84.332031 196.980469 Z M 89.382812 117.601562 C 90.667969 120.367188 91.527344 123.320312 91.957031 126.367188 C 93.003906 133.324219 92.097656 140.375 91.097656 146.378906 C 90.289062 151.097656 89.289062 155.863281 88.289062 160.433594 C 86.570312 168.441406 84.808594 176.683594 84.140625 184.972656 C 83.808594 188.925781 83.808594 192.882812 84.046875 196.789062 C 83.238281 196.074219 82.472656 195.40625 81.710938 194.644531 C 81.140625 189.976562 81.046875 185.210938 81.378906 180.542969 C 81.949219 172.394531 83.714844 164.246094 85.378906 156.386719 C 86.285156 152.097656 87.238281 147.667969 87.953125 143.28125 C 88.953125 137.46875 89.8125 130.609375 88.90625 123.890625 C 88.527344 120.9375 87.714844 118.078125 86.570312 115.363281 C 87.191406 115.503906 87.8125 115.695312 88.429688 115.933594 C 88.8125 116.410156 89.144531 116.984375 89.382812 117.601562 Z M 86.523438 115.078125 C 86.285156 114.503906 86.046875 113.980469 85.761719 113.503906 C 86.332031 113.695312 86.90625 113.933594 87.476562 114.171875 C 87.761719 114.648438 88.097656 115.125 88.335938 115.601562 C 87.761719 115.410156 87.144531 115.21875 86.523438 115.078125 Z M 86.285156 115.027344 C 85.617188 114.886719 84.953125 114.742188 84.238281 114.601562 C 84.09375 114.125 83.902344 113.648438 83.714844 113.171875 C 83.664062 113.074219 83.617188 112.933594 83.570312 112.835938 C 84.191406 112.980469 84.855469 113.21875 85.476562 113.410156 C 85.761719 113.933594 86.046875 114.457031 86.285156 115.027344 Z M 83.476562 112.597656 C 83.238281 112.027344 83 111.503906 82.710938 110.980469 C 83.285156 111.171875 83.855469 111.410156 84.429688 111.644531 C 84.761719 112.121094 85.046875 112.597656 85.332031 113.125 C 84.761719 112.933594 84.140625 112.742188 83.476562 112.597656 Z M 83.238281 112.503906 C 82.570312 112.359375 81.855469 112.171875 81.1875 112.074219 C 81.09375 111.695312 80.949219 111.359375 80.808594 110.980469 C 80.710938 110.742188 80.617188 110.503906 80.519531 110.21875 C 81.1875 110.40625 81.808594 110.597656 82.472656 110.789062 C 82.761719 111.410156 83 111.933594 83.238281 112.503906 Z M 80.472656 110.027344 C 80.234375 109.453125 79.996094 108.882812 79.757812 108.359375 C 80.332031 108.597656 80.949219 108.835938 81.523438 109.074219 C 81.808594 109.550781 82.09375 110.074219 82.378906 110.597656 C 81.710938 110.359375 81.09375 110.167969 80.472656 110.027344 Z M 80.1875 109.929688 C 79.472656 109.742188 78.757812 109.597656 78.089844 109.453125 C 78.042969 109.214844 77.996094 109.027344 77.902344 108.789062 C 77.757812 108.359375 77.613281 107.976562 77.472656 107.550781 C 78.140625 107.738281 78.804688 107.929688 79.425781 108.167969 C 79.710938 108.789062 79.996094 109.359375 80.1875 109.929688 Z M 77.425781 107.359375 C 77.1875 106.738281 76.949219 106.167969 76.710938 105.59375 C 77.28125 105.832031 77.902344 106.070312 78.472656 106.359375 C 78.757812 106.882812 79.042969 107.40625 79.328125 107.929688 C 78.710938 107.738281 78.042969 107.550781 77.425781 107.359375 Z M 77.136719 107.3125 C 76.421875 107.121094 75.707031 106.929688 74.992188 106.785156 C 74.992188 106.738281 74.945312 106.691406 74.945312 106.644531 C 74.804688 106.023438 74.613281 105.40625 74.375 104.832031 C 75.042969 105.023438 75.707031 105.261719 76.375 105.5 C 76.710938 106.070312 76.949219 106.691406 77.136719 107.3125 Z M 74.375 104.59375 C 74.183594 103.976562 73.945312 103.355469 73.707031 102.785156 C 74.328125 103.023438 74.898438 103.308594 75.519531 103.59375 C 75.804688 104.117188 76.089844 104.691406 76.375 105.261719 C 75.660156 105.023438 75.042969 104.785156 74.375 104.59375 Z M 74.136719 104.546875 C 73.421875 104.355469 72.707031 104.167969 71.945312 103.976562 C 71.800781 103.308594 71.609375 102.59375 71.371094 101.925781 C 72.039062 102.164062 72.707031 102.402344 73.375 102.6875 C 73.660156 103.261719 73.898438 103.878906 74.136719 104.546875 Z M 71.324219 101.6875 C 71.136719 101.070312 70.898438 100.402344 70.660156 99.78125 C 71.277344 100.070312 71.898438 100.355469 72.46875 100.6875 C 72.753906 101.257812 73.039062 101.785156 73.277344 102.402344 C 72.660156 102.117188 71.992188 101.878906 71.324219 101.6875 Z M 71.753906 104.117188 L 71.847656 104.546875 C 71.992188 105.117188 72.085938 105.691406 72.183594 106.308594 C 71.324219 106.167969 70.421875 106.070312 69.5625 105.976562 C 69.515625 105.167969 69.417969 104.40625 69.324219 103.640625 C 70.183594 103.738281 70.992188 103.929688 71.753906 104.117188 Z M 72.230469 106.5 C 72.324219 107.261719 72.421875 108.023438 72.515625 108.789062 C 71.5625 108.691406 70.660156 108.644531 69.707031 108.597656 C 69.707031 107.789062 69.65625 106.976562 69.609375 106.121094 C 70.46875 106.261719 71.371094 106.359375 72.230469 106.5 Z M 72.5625 108.976562 C 72.660156 109.789062 72.707031 110.550781 72.707031 111.359375 C 71.707031 111.359375 70.707031 111.359375 69.707031 111.359375 C 69.707031 110.644531 69.753906 109.980469 69.753906 109.265625 C 69.753906 109.121094 69.753906 108.976562 69.753906 108.789062 C 70.660156 108.882812 71.609375 108.929688 72.5625 108.976562 Z M 72.707031 111.597656 C 72.707031 111.644531 72.707031 111.695312 72.707031 111.695312 C 72.753906 112.503906 72.753906 113.265625 72.707031 114.078125 C 71.660156 114.125 70.5625 114.171875 69.46875 114.21875 C 69.5625 113.3125 69.609375 112.457031 69.609375 111.550781 C 70.707031 111.597656 71.707031 111.597656 72.707031 111.597656 Z M 72.945312 111.695312 C 72.945312 111.644531 72.945312 111.597656 72.945312 111.597656 C 73.898438 111.597656 74.804688 111.644531 75.707031 111.695312 C 75.804688 112.457031 75.851562 113.21875 75.898438 114.027344 C 74.898438 114.027344 73.898438 114.078125 72.945312 114.125 C 72.945312 113.3125 72.945312 112.503906 72.945312 111.695312 Z M 75.945312 114.21875 C 76.28125 119.984375 75.421875 125.796875 74.566406 130.703125 C 74.042969 133.753906 73.421875 136.851562 72.800781 139.804688 C 71.277344 147.285156 69.707031 155.050781 69.417969 162.769531 C 69.132812 170.058594 70.085938 177.300781 72.277344 184.257812 C 71.707031 183.542969 71.183594 182.828125 70.660156 182.066406 C 67.800781 174.492188 66.464844 166.4375 66.703125 158.339844 C 66.894531 150.714844 68.464844 143.09375 69.945312 135.660156 C 70.46875 132.992188 71.039062 130.277344 71.515625 127.558594 C 72.375 123.175781 72.851562 118.699219 73.039062 114.21875 C 73.945312 114.265625 74.945312 114.265625 75.945312 114.21875 Z M 69.609375 162.816406 C 69.894531 155.097656 71.46875 147.378906 72.992188 139.898438 C 73.613281 136.898438 74.230469 133.800781 74.757812 130.753906 C 75.613281 125.84375 76.472656 119.984375 76.136719 114.21875 C 77.042969 114.21875 77.949219 114.21875 78.902344 114.265625 C 78.996094 115.027344 79.089844 115.792969 79.140625 116.554688 C 79.617188 122.605469 78.757812 128.65625 77.851562 133.800781 C 77.28125 137.183594 76.566406 140.613281 75.851562 143.949219 C 74.28125 151.527344 72.707031 159.386719 72.324219 167.199219 C 71.992188 173.871094 72.707031 180.496094 74.375 186.925781 C 73.753906 186.210938 73.183594 185.496094 72.613281 184.78125 C 70.371094 177.730469 69.324219 170.296875 69.609375 162.816406 Z M 73.566406 186.355469 C 73.898438 186.785156 74.28125 187.164062 74.613281 187.59375 C 74.804688 188.355469 75.042969 189.070312 75.28125 189.832031 C 74.757812 189.164062 74.230469 188.449219 73.707031 187.785156 C 73.421875 187.070312 73.183594 186.308594 72.945312 185.59375 C 73.136719 185.832031 73.328125 186.117188 73.566406 186.355469 Z M 74.898438 187.972656 C 75.519531 188.6875 76.136719 189.402344 76.757812 190.070312 C 76.949219 190.832031 77.136719 191.644531 77.328125 192.40625 C 76.851562 191.832031 76.375 191.308594 75.945312 190.738281 C 75.851562 190.59375 75.707031 190.453125 75.613281 190.308594 C 75.375 189.5 75.136719 188.738281 74.898438 187.972656 Z M 75.804688 190.832031 C 76.375 191.5 76.898438 192.167969 77.472656 192.835938 C 77.664062 193.597656 77.902344 194.3125 78.089844 195.074219 C 77.566406 194.40625 77.042969 193.691406 76.519531 193.023438 C 76.28125 192.308594 76.042969 191.59375 75.804688 190.832031 Z M 77.804688 193.214844 C 78.425781 193.929688 79.042969 194.597656 79.664062 195.3125 C 79.855469 196.121094 79.996094 196.882812 80.234375 197.648438 C 79.664062 196.933594 79.042969 196.265625 78.472656 195.550781 C 78.234375 194.789062 77.996094 193.976562 77.804688 193.214844 Z M 80.332031 198.074219 C 80.519531 198.835938 80.757812 199.550781 80.949219 200.316406 L 80.570312 199.839844 C 80.1875 199.3125 79.757812 198.789062 79.378906 198.265625 C 79.089844 197.550781 78.851562 196.789062 78.613281 196.074219 C 79.1875 196.742188 79.757812 197.410156 80.332031 198.074219 Z M 80.664062 198.457031 C 81.285156 199.171875 81.902344 199.839844 82.523438 200.503906 C 82.664062 201.316406 82.855469 202.078125 83.046875 202.886719 C 82.472656 202.21875 81.855469 201.507812 81.285156 200.792969 C 81.09375 200.027344 80.808594 199.21875 80.664062 198.457031 Z M 83.1875 203.316406 C 83.378906 204.078125 83.570312 204.839844 83.808594 205.601562 C 83.523438 205.222656 83.238281 204.839844 82.949219 204.460938 L 82.285156 203.554688 C 81.996094 202.839844 81.757812 202.078125 81.523438 201.316406 C 82.046875 201.980469 82.570312 202.648438 83.1875 203.316406 Z M 83.476562 203.648438 C 84.046875 204.316406 84.667969 204.9375 85.285156 205.601562 C 85.429688 206.414062 85.617188 207.175781 85.808594 207.984375 C 85.238281 207.320312 84.667969 206.652344 84.140625 206.03125 C 83.902344 205.222656 83.664062 204.414062 83.476562 203.648438 Z M 86.238281 208.746094 C 86.859375 209.414062 87.476562 210.082031 88.144531 210.75 C 88.289062 211.558594 88.476562 212.320312 88.667969 213.132812 C 88.050781 212.464844 87.476562 211.796875 86.90625 211.082031 C 86.621094 210.320312 86.382812 209.511719 86.238281 208.746094 Z M 89 213.894531 C 89.621094 214.5625 90.242188 215.226562 90.90625 215.847656 C 91.050781 216.65625 91.195312 217.46875 91.382812 218.277344 C 90.765625 217.609375 90.191406 216.941406 89.621094 216.277344 C 89.382812 215.464844 89.144531 214.65625 89 213.894531 Z M 91.480469 218.707031 C 91.671875 219.46875 91.859375 220.277344 92.050781 221.039062 C 91.527344 220.375 91.003906 219.707031 90.480469 219.039062 C 90.242188 218.277344 90.003906 217.515625 89.765625 216.753906 C 90.289062 217.417969 90.859375 218.039062 91.480469 218.707031 Z M 91.765625 218.992188 C 92.382812 219.660156 93.050781 220.324219 93.671875 220.945312 C 93.8125 221.804688 93.957031 222.613281 94.148438 223.421875 C 93.527344 222.753906 92.910156 222.089844 92.335938 221.375 C 92.148438 220.613281 91.957031 219.800781 91.765625 218.992188 Z M 94.242188 223.851562 C 94.433594 224.660156 94.625 225.425781 94.816406 226.234375 C 94.242188 225.566406 93.71875 224.898438 93.195312 224.234375 C 92.957031 223.46875 92.71875 222.707031 92.480469 221.945312 C 93.050781 222.566406 93.625 223.230469 94.242188 223.851562 Z M 94.527344 224.136719 C 95.148438 224.757812 95.71875 225.375 96.339844 225.949219 C 96.480469 226.804688 96.625 227.617188 96.816406 228.425781 C 96.242188 227.804688 95.671875 227.1875 95.148438 226.566406 C 94.910156 225.757812 94.71875 224.949219 94.527344 224.136719 Z M 96.910156 228.808594 C 97.101562 229.617188 97.292969 230.425781 97.484375 231.1875 C 96.957031 230.570312 96.480469 229.949219 96.003906 229.332031 C 95.765625 228.570312 95.53125 227.804688 95.292969 226.996094 C 95.765625 227.617188 96.339844 228.234375 96.910156 228.808594 Z M 97.578125 231.664062 C 97.769531 232.429688 98.007812 233.140625 98.199219 233.855469 C 97.769531 233.285156 97.339844 232.667969 96.910156 232.046875 C 96.625 231.332031 96.386719 230.617188 96.148438 229.902344 C 96.578125 230.523438 97.054688 231.09375 97.578125 231.664062 Z M 97.863281 232 C 106.917969 242.289062 120.113281 248.390625 132.121094 247.53125 C 142.839844 246.722656 151.464844 241.242188 159.230469 235.476562 C 160.804688 234.285156 162.421875 233.046875 163.949219 231.855469 C 165.902344 230.332031 167.902344 228.808594 169.902344 227.28125 L 170.953125 227.378906 C 168.949219 229.140625 166.949219 231 165.042969 232.808594 C 163.664062 234.09375 162.28125 235.429688 160.851562 236.667969 C 153.847656 243.003906 145.222656 249.675781 134.457031 251.058594 C 121.878906 252.675781 107.441406 245.863281 98.53125 234.285156 C 98.292969 233.570312 98.054688 232.761719 97.863281 232 Z M 170.191406 227.089844 C 170.429688 226.949219 170.617188 226.757812 170.855469 226.613281 L 171.859375 226.664062 L 171.238281 227.1875 Z M 172.144531 226.710938 L 173.144531 226.757812 L 172.523438 227.378906 L 171.476562 227.28125 Z M 172.382812 226.519531 L 173 225.996094 L 173.953125 225.996094 L 173.382812 226.566406 Z M 174.238281 225.949219 L 175.191406 225.949219 C 175.003906 226.1875 174.8125 226.375 174.621094 226.613281 L 174.382812 226.613281 L 173.621094 226.566406 Z M 174.476562 225.757812 L 175.097656 225.1875 L 176.003906 225.136719 C 175.8125 225.375 175.621094 225.566406 175.429688 225.757812 Z M 176.242188 225.089844 L 177.195312 225.042969 C 177.003906 225.28125 176.8125 225.519531 176.667969 225.757812 L 175.714844 225.757812 Z M 177.480469 224.996094 C 177.859375 224.996094 178.242188 224.949219 178.625 224.898438 C 187.582031 224.328125 195.679688 224.566406 202.636719 225.519531 C 205.542969 225.898438 208.449219 226.519531 211.261719 227.28125 C 216.453125 228.757812 221.503906 230.710938 226.316406 233.191406 C 227.03125 233.523438 227.699219 233.90625 228.363281 234.238281 L 228.363281 234.285156 C 227.699219 234 227.03125 233.714844 226.316406 233.429688 C 221.21875 231.332031 215.976562 229.664062 210.59375 228.425781 C 207.878906 227.804688 204.921875 227.28125 201.828125 226.902344 C 194.917969 226.042969 187.199219 225.664062 177.671875 225.710938 L 176.859375 225.710938 C 177.050781 225.472656 177.242188 225.234375 177.480469 224.996094 Z M 228.601562 234.382812 Z M 226.746094 229.472656 C 224.503906 225.136719 221.695312 219.753906 217.027344 216.226562 C 214.644531 214.417969 211.878906 213.179688 208.972656 212.558594 C 201.730469 210.890625 192.773438 212.511719 185.578125 216.703125 C 185.199219 216.941406 184.816406 217.179688 184.386719 217.417969 C 185.101562 216.894531 185.816406 216.371094 186.53125 215.894531 C 193.582031 211.273438 202.445312 209.460938 209.640625 211.179688 C 212.546875 211.84375 215.214844 213.179688 217.550781 215.039062 C 222.027344 218.800781 224.410156 224.28125 226.554688 229.140625 Z M 146.320312 225.757812 C 133.882812 225.28125 124.308594 223.804688 115.351562 220.992188 C 108.347656 218.753906 101.675781 215.464844 95.625 211.320312 C 95.671875 210.464844 95.671875 209.605469 95.71875 208.746094 C 101.105469 212.273438 106.867188 215.179688 112.921875 217.46875 C 122.117188 220.898438 132.121094 223.183594 144.460938 224.660156 C 149.226562 225.234375 153.992188 225.664062 158.800781 225.949219 C 154.609375 225.949219 150.464844 225.949219 146.320312 225.757812 Z M 95.433594 211.179688 C 94.527344 210.558594 93.671875 209.9375 92.8125 209.320312 C 92.8125 208.460938 92.8125 207.605469 92.8125 206.746094 C 93.71875 207.367188 94.625 207.984375 95.578125 208.605469 C 95.480469 209.460938 95.433594 210.320312 95.433594 211.179688 Z M 92.765625 206.507812 C 92.765625 205.652344 92.8125 204.792969 92.859375 203.9375 C 93.8125 204.601562 94.765625 205.222656 95.71875 205.839844 C 95.671875 206.699219 95.578125 207.558594 95.53125 208.414062 C 94.625 207.746094 93.71875 207.128906 92.765625 206.507812 Z M 92.574219 206.367188 C 91.671875 205.699219 90.765625 205.03125 89.90625 204.363281 C 89.90625 203.507812 89.859375 202.648438 89.90625 201.792969 C 90.8125 202.457031 91.71875 203.125 92.671875 203.792969 C 92.621094 204.652344 92.574219 205.507812 92.574219 206.367188 Z M 95.242188 121.9375 C 96.769531 124.84375 97.863281 127.988281 98.4375 131.179688 C 99.769531 138.566406 98.863281 146.140625 97.769531 152.574219 C 96.863281 157.957031 95.671875 163.390625 94.527344 168.628906 C 92.765625 176.824219 90.90625 185.304688 90.097656 193.738281 C 89.859375 196.074219 89.714844 198.597656 89.667969 201.269531 C 88.761719 200.601562 87.90625 199.886719 87.046875 199.21875 C 86.953125 195.929688 87.046875 192.644531 87.335938 189.355469 C 88.097656 181.019531 89.859375 172.632812 91.621094 164.582031 C 92.671875 159.671875 93.765625 154.574219 94.625 149.523438 C 95.671875 143.28125 96.578125 135.945312 95.386719 128.75 C 94.863281 125.605469 93.910156 122.558594 92.480469 119.699219 C 91.957031 118.699219 91.433594 117.746094 90.8125 116.792969 C 91.289062 117.03125 91.765625 117.269531 92.242188 117.507812 C 93.386719 118.886719 94.386719 120.367188 95.242188 121.9375 Z M 90.242188 116.316406 C 89.714844 116.078125 89.191406 115.886719 88.667969 115.695312 C 88.382812 115.21875 88.144531 114.742188 87.8125 114.316406 C 88.335938 114.554688 88.8125 114.792969 89.289062 115.078125 C 89.621094 115.457031 89.953125 115.886719 90.242188 116.316406 Z M 87.238281 113.839844 C 86.714844 113.601562 86.191406 113.410156 85.617188 113.21875 C 85.332031 112.742188 85.09375 112.265625 84.808594 111.789062 C 85.285156 112.027344 85.808594 112.265625 86.285156 112.550781 C 86.621094 112.980469 86.953125 113.410156 87.238281 113.839844 Z M 84.285156 111.3125 C 83.761719 111.074219 83.1875 110.882812 82.664062 110.695312 C 82.425781 110.167969 82.140625 109.691406 81.855469 109.214844 C 82.378906 109.453125 82.902344 109.742188 83.378906 110.027344 C 83.664062 110.40625 83.953125 110.835938 84.285156 111.3125 Z M 81.285156 108.738281 C 80.710938 108.5 80.1875 108.261719 79.617188 108.074219 C 79.378906 107.550781 79.089844 107.023438 78.804688 106.546875 C 79.328125 106.785156 79.855469 107.074219 80.332031 107.40625 C 80.664062 107.789062 80.996094 108.261719 81.285156 108.738281 Z M 78.28125 106.070312 C 77.710938 105.785156 77.136719 105.546875 76.566406 105.355469 C 76.328125 104.785156 76.042969 104.261719 75.757812 103.785156 C 76.28125 104.070312 76.804688 104.355469 77.328125 104.691406 C 77.710938 105.117188 77.996094 105.59375 78.28125 106.070312 Z M 75.28125 103.261719 C 74.707031 102.976562 74.136719 102.738281 73.566406 102.5 C 73.328125 101.925781 73.089844 101.402344 72.800781 100.832031 C 73.328125 101.117188 73.851562 101.449219 74.375 101.785156 C 74.707031 102.261719 74.992188 102.785156 75.28125 103.261719 Z M 71.46875 98.878906 C 71.753906 99.355469 72.039062 99.832031 72.324219 100.355469 C 71.753906 100.070312 71.183594 99.78125 70.609375 99.496094 C 70.371094 98.925781 70.132812 98.351562 69.847656 97.78125 C 70.371094 98.113281 70.898438 98.449219 71.421875 98.828125 Z M 69.65625 97.449219 C 69.5625 97.210938 69.417969 96.972656 69.277344 96.734375 C 69.132812 96.496094 68.992188 96.210938 68.847656 95.972656 C 69.277344 96.304688 69.707031 96.6875 70.132812 97.066406 C 70.46875 97.496094 70.753906 97.925781 71.085938 98.402344 C 70.609375 98.019531 70.132812 97.734375 69.65625 97.449219 Z M 69.132812 96.828125 L 69.371094 97.257812 C 68.800781 96.925781 68.226562 96.589844 67.65625 96.304688 C 67.464844 95.734375 67.226562 95.207031 67.039062 94.636719 L 66.941406 94.445312 C 67.464844 94.78125 67.988281 95.160156 68.464844 95.542969 C 68.65625 95.972656 68.894531 96.398438 69.132812 96.828125 Z M 66.5625 94.253906 L 66.75 94.730469 C 66.941406 95.207031 67.132812 95.683594 67.324219 96.160156 C 66.65625 95.828125 65.988281 95.542969 65.320312 95.207031 C 65.179688 94.492188 64.988281 93.828125 64.75 93.113281 C 65.417969 93.492188 65.988281 93.875 66.5625 94.253906 Z M 67.417969 96.449219 C 67.65625 97.113281 67.847656 97.78125 68.039062 98.496094 C 67.324219 98.210938 66.5625 97.972656 65.847656 97.6875 C 65.703125 96.925781 65.558594 96.210938 65.371094 95.496094 C 66.085938 95.78125 66.75 96.113281 67.417969 96.449219 Z M 68.703125 101.070312 C 68.800781 101.496094 68.894531 101.925781 68.941406 102.308594 C 68.992188 102.640625 69.039062 102.976562 69.085938 103.308594 C 68.226562 103.164062 67.324219 102.976562 66.464844 102.832031 C 66.417969 102.023438 66.371094 101.210938 66.273438 100.402344 C 67.085938 100.640625 67.894531 100.878906 68.703125 101.070312 Z M 69.132812 103.546875 C 69.230469 104.308594 69.324219 105.117188 69.371094 105.929688 C 68.417969 105.832031 67.464844 105.738281 66.511719 105.644531 C 66.511719 104.785156 66.511719 103.929688 66.464844 103.117188 C 67.371094 103.214844 68.226562 103.402344 69.132812 103.546875 Z M 66.5625 108.691406 L 69.515625 108.835938 C 69.515625 108.976562 69.515625 109.167969 69.515625 109.3125 C 69.515625 110.027344 69.515625 110.695312 69.46875 111.410156 L 66.226562 111.410156 C 66.324219 110.503906 66.371094 109.597656 66.417969 108.691406 Z M 67.65625 111.597656 L 69.515625 111.597656 C 69.46875 112.503906 69.417969 113.410156 69.371094 114.265625 L 68.703125 114.316406 C 67.800781 114.363281 66.894531 114.410156 65.941406 114.457031 C 66.035156 113.503906 66.179688 112.597656 66.273438 111.597656 Z M 68.65625 114.503906 L 69.277344 114.457031 C 68.992188 117.984375 68.417969 121.414062 67.894531 124.464844 C 67.464844 126.796875 66.988281 129.179688 66.5625 131.515625 C 65.132812 138.851562 63.605469 146.425781 63.464844 153.957031 C 63.320312 162.339844 64.894531 170.726562 68.132812 178.492188 C 67.753906 177.921875 67.371094 177.300781 66.988281 176.683594 C 62.84375 168.25 60.652344 158.957031 60.699219 149.523438 C 60.75 142.042969 62.226562 134.5625 63.65625 127.273438 C 64.035156 125.320312 64.417969 123.320312 64.796875 121.367188 C 65.179688 119.269531 65.558594 116.984375 65.894531 114.601562 Z M 63.703125 154.003906 C 63.84375 146.476562 65.320312 138.898438 66.800781 131.5625 C 67.277344 129.273438 67.703125 126.894531 68.132812 124.511719 C 68.703125 121.460938 69.230469 118.03125 69.515625 114.457031 C 70.609375 114.410156 71.660156 114.363281 72.753906 114.316406 C 72.613281 118.792969 72.085938 123.222656 71.230469 127.609375 C 70.753906 130.324219 70.183594 133.039062 69.65625 135.707031 C 68.179688 143.09375 66.65625 150.761719 66.417969 158.386719 C 66.179688 166.25 67.464844 174.0625 70.132812 181.445312 C 69.65625 180.78125 69.179688 180.113281 68.753906 179.445312 C 65.273438 171.441406 63.558594 162.722656 63.703125 154.003906 Z M 70.515625 182.398438 C 70.707031 182.925781 70.945312 183.496094 71.136719 184.019531 C 70.800781 183.496094 70.46875 182.972656 70.132812 182.398438 C 69.800781 181.828125 69.609375 181.304688 69.371094 180.78125 C 69.753906 181.351562 70.132812 181.875 70.515625 182.398438 Z M 70.992188 183.019531 C 71.46875 183.6875 71.992188 184.351562 72.515625 185.019531 C 72.753906 185.6875 72.992188 186.355469 73.230469 187.023438 C 72.753906 186.355469 72.277344 185.640625 71.800781 184.972656 C 71.515625 184.355469 71.230469 183.734375 70.992188 183.019531 Z M 73.46875 187.785156 C 73.660156 188.355469 73.898438 188.925781 74.136719 189.5 C 73.753906 188.925781 73.375 188.308594 73.039062 187.6875 C 72.800781 187.164062 72.5625 186.640625 72.277344 186.117188 C 72.660156 186.6875 73.039062 187.210938 73.46875 187.785156 Z M 73.992188 188.5 C 74.46875 189.117188 74.945312 189.738281 75.421875 190.40625 C 75.660156 191.070312 75.898438 191.785156 76.136719 192.453125 C 75.707031 191.832031 75.28125 191.214844 74.851562 190.546875 C 74.519531 189.878906 74.230469 189.164062 73.992188 188.5 Z M 76.375 193.121094 C 76.566406 193.691406 76.804688 194.265625 77.042969 194.835938 C 76.710938 194.3125 76.375 193.835938 76.089844 193.3125 C 75.804688 192.738281 75.519531 192.121094 75.28125 191.546875 C 75.613281 192.070312 75.996094 192.597656 76.375 193.121094 Z M 76.851562 193.738281 C 77.28125 194.3125 77.710938 194.882812 78.140625 195.40625 L 78.328125 195.644531 C 78.519531 196.359375 78.757812 197.027344 78.996094 197.695312 C 78.519531 197.074219 78.089844 196.40625 77.664062 195.789062 C 77.375 195.121094 77.089844 194.40625 76.851562 193.738281 Z M 79.234375 198.359375 C 79.425781 198.933594 79.664062 199.503906 79.902344 200.078125 C 79.566406 199.503906 79.1875 198.980469 78.851562 198.410156 C 78.613281 197.886719 78.375 197.3125 78.089844 196.789062 C 78.472656 197.3125 78.851562 197.886719 79.234375 198.359375 Z M 79.664062 198.980469 C 79.902344 199.3125 80.1875 199.648438 80.425781 199.980469 C 80.664062 200.316406 80.902344 200.554688 81.140625 200.886719 C 81.332031 201.601562 81.570312 202.269531 81.808594 202.933594 C 81.378906 202.316406 80.902344 201.648438 80.472656 201.03125 C 80.1875 200.363281 79.902344 199.695312 79.664062 198.980469 Z M 82.046875 203.601562 C 82.234375 204.175781 82.472656 204.746094 82.710938 205.316406 C 82.378906 204.792969 82.046875 204.222656 81.664062 203.648438 C 81.378906 203.078125 81.140625 202.554688 80.902344 201.980469 C 81.285156 202.554688 81.664062 203.125 82.046875 203.601562 Z M 82.472656 204.222656 C 82.570312 204.316406 82.664062 204.460938 82.761719 204.554688 C 83.140625 205.078125 83.570312 205.554688 83.953125 206.078125 C 84.140625 206.792969 84.378906 207.460938 84.617188 208.175781 C 84.140625 207.558594 83.714844 206.890625 83.285156 206.222656 C 83 205.554688 82.710938 204.890625 82.472656 204.222656 Z M 84.855469 208.84375 C 85.046875 209.414062 85.285156 210.035156 85.523438 210.605469 C 85.144531 210.035156 84.808594 209.511719 84.476562 208.9375 C 84.191406 208.367188 83.953125 207.796875 83.714844 207.269531 C 84.09375 207.796875 84.476562 208.320312 84.855469 208.84375 Z M 85.285156 209.414062 C 85.714844 209.988281 86.191406 210.605469 86.667969 211.179688 C 86.859375 211.894531 87.097656 212.558594 87.335938 213.273438 C 86.90625 212.703125 86.523438 212.082031 86.09375 211.511719 C 85.808594 210.796875 85.523438 210.128906 85.285156 209.414062 Z M 87.382812 213.703125 C 87.429688 213.75 87.476562 213.847656 87.523438 213.894531 C 87.714844 214.464844 87.953125 215.039062 88.144531 215.609375 C 87.8125 215.132812 87.523438 214.609375 87.238281 214.132812 C 86.953125 213.65625 86.714844 212.988281 86.476562 212.417969 C 86.761719 212.894531 87.046875 213.320312 87.382812 213.703125 Z M 87.953125 214.464844 C 88.429688 215.085938 88.90625 215.703125 89.429688 216.324219 C 89.621094 217.039062 89.859375 217.753906 90.097656 218.46875 L 89.90625 218.183594 C 89.527344 217.65625 89.144531 217.085938 88.761719 216.515625 C 88.429688 215.847656 88.191406 215.179688 87.953125 214.464844 Z M 89.714844 218.277344 C 89.90625 218.5625 90.097656 218.800781 90.289062 219.085938 C 90.480469 219.660156 90.667969 220.277344 90.90625 220.851562 C 90.527344 220.277344 90.144531 219.660156 89.8125 219.085938 C 89.574219 218.5625 89.335938 217.992188 89.097656 217.46875 C 89.289062 217.753906 89.476562 218.039062 89.714844 218.277344 Z M 90.71875 219.609375 C 91.195312 220.230469 91.671875 220.851562 92.195312 221.46875 C 92.382812 222.183594 92.621094 222.898438 92.8125 223.613281 C 92.621094 223.328125 92.382812 223.042969 92.195312 222.707031 C 92.003906 222.375 91.71875 221.992188 91.480469 221.660156 C 91.195312 221.039062 90.957031 220.324219 90.71875 219.609375 Z M 92.050781 222.851562 C 92.382812 223.328125 92.71875 223.757812 93.050781 224.234375 C 93.242188 224.851562 93.480469 225.472656 93.71875 226.042969 C 93.335938 225.472656 93.003906 224.898438 92.671875 224.328125 C 92.382812 223.757812 92.148438 223.183594 91.910156 222.566406 Z M 93.480469 224.757812 C 93.957031 225.375 94.480469 225.996094 95.003906 226.613281 C 95.195312 227.378906 95.433594 228.09375 95.671875 228.808594 C 95.292969 228.332031 94.910156 227.804688 94.578125 227.28125 L 94.242188 226.804688 C 93.957031 226.136719 93.671875 225.472656 93.433594 224.757812 Z M 95.816406 229.378906 C 96.003906 229.996094 96.242188 230.617188 96.480469 231.285156 C 96.101562 230.664062 95.71875 230.09375 95.339844 229.472656 C 95.054688 228.902344 94.816406 228.332031 94.578125 227.757812 C 94.957031 228.332031 95.339844 228.902344 95.816406 229.378906 Z M 98.386719 234.382812 C 98.578125 235.046875 98.816406 235.667969 99.054688 236.289062 C 98.722656 235.761719 98.386719 235.238281 98.054688 234.667969 C 97.722656 234.09375 97.53125 233.476562 97.292969 232.90625 C 97.625 233.429688 97.960938 233.90625 98.386719 234.382812 Z M 98.769531 234.859375 C 102.769531 239.859375 107.726562 243.957031 113.394531 246.960938 C 120.398438 250.628906 127.691406 252.105469 134.550781 251.246094 C 145.367188 249.820312 154.039062 243.148438 161.089844 236.761719 C 162.472656 235.476562 163.902344 234.191406 165.28125 232.90625 C 167.234375 231.046875 169.238281 229.1875 171.332031 227.378906 L 172.429688 227.472656 C 170.378906 229.570312 168.476562 231.714844 166.519531 233.855469 C 165.28125 235.191406 164.042969 236.621094 162.804688 237.953125 C 156.132812 245.148438 147.84375 252.726562 136.933594 254.773438 C 123.640625 257.203125 108.347656 249.914062 99.53125 236.953125 C 99.246094 236.335938 98.960938 235.621094 98.769531 234.859375 Z M 115.683594 251.484375 C 122.78125 255.058594 130.121094 256.296875 136.933594 255.058594 C 147.890625 253.011719 156.183594 245.386719 162.898438 238.191406 C 164.140625 236.859375 165.425781 235.429688 166.664062 234.09375 C 168.617188 231.902344 170.570312 229.710938 172.667969 227.617188 L 173.761719 227.710938 C 171.761719 230.09375 169.855469 232.570312 168 235.046875 C 166.902344 236.476562 165.757812 237.953125 164.617188 239.433594 C 158.660156 246.960938 150.417969 255.964844 139.316406 258.632812 C 125.976562 261.824219 110.0625 254.441406 101.484375 241.097656 C 101.199219 240.621094 100.914062 240.144531 100.578125 239.671875 C 100.339844 239.097656 100.101562 238.527344 99.863281 237.953125 C 103.960938 243.625 109.394531 248.292969 115.683594 251.484375 Z M 172.761719 227.378906 L 173.382812 226.757812 L 174.335938 226.804688 L 174.429688 226.804688 C 174.238281 227.042969 174.050781 227.28125 173.859375 227.519531 Z M 174.667969 226.804688 L 175.714844 226.851562 L 175.144531 227.617188 L 174.050781 227.519531 Z M 174.859375 226.613281 L 175.429688 225.949219 L 176.429688 225.949219 C 176.242188 226.1875 176.050781 226.425781 175.859375 226.664062 Z M 176.667969 225.902344 L 177.621094 225.902344 C 187.152344 225.851562 194.824219 226.234375 201.730469 227.089844 C 204.828125 227.472656 207.78125 227.996094 210.449219 228.617188 C 215.835938 229.855469 221.074219 231.523438 226.171875 233.617188 C 226.886719 233.90625 227.648438 234.238281 228.363281 234.523438 L 228.363281 234.570312 C 227.648438 234.332031 226.9375 234.046875 226.222656 233.808594 C 220.835938 232.046875 215.359375 230.710938 209.785156 229.710938 C 207.066406 229.234375 204.160156 228.808594 200.96875 228.425781 C 192.867188 227.472656 184.53125 226.996094 176.71875 226.613281 L 176.097656 226.566406 Z M 228.601562 234.667969 Z M 228.890625 234.808594 Z M 187.4375 214.847656 C 196.015625 208.511719 209.785156 205.9375 218.265625 213.65625 C 222.648438 217.609375 224.742188 223.46875 226.554688 228.664062 C 226.554688 228.710938 226.554688 228.710938 226.554688 228.757812 C 224.457031 223.945312 222.074219 218.5625 217.644531 214.894531 C 215.308594 212.988281 212.59375 211.65625 209.6875 210.988281 C 202.398438 209.222656 193.488281 211.035156 186.390625 215.75 C 186.199219 215.847656 186.054688 215.988281 185.863281 216.132812 C 186.4375 215.65625 186.960938 215.277344 187.4375 214.847656 Z M 110.488281 213.65625 C 124.972656 219.847656 140.410156 223.28125 156.085938 225.519531 C 152.226562 225.234375 148.367188 224.851562 144.507812 224.421875 C 132.167969 222.945312 122.164062 220.660156 113.015625 217.230469 C 106.964844 214.941406 101.199219 212.035156 95.765625 208.460938 C 95.816406 207.605469 95.863281 206.746094 95.957031 205.890625 C 100.578125 208.890625 105.441406 211.511719 110.488281 213.65625 Z M 104.820312 136.089844 C 106.441406 143.949219 105.535156 152.003906 104.390625 158.863281 C 103.390625 164.914062 102.058594 171.058594 100.722656 176.96875 C 98.863281 185.355469 96.957031 193.976562 96.003906 202.648438 C 95.910156 203.601562 95.816406 204.601562 95.71875 205.554688 C 94.765625 204.9375 93.8125 204.316406 92.859375 203.648438 C 92.957031 201.886719 93.050781 200.078125 93.242188 198.265625 C 94.148438 189.738281 96.003906 181.160156 97.816406 172.917969 C 99.054688 167.296875 100.292969 161.53125 101.246094 155.8125 C 102.34375 149.144531 103.296875 141.328125 101.769531 133.660156 C 101.105469 130.324219 99.960938 127.082031 98.292969 124.082031 C 97.339844 122.367188 96.148438 120.746094 94.816406 119.269531 C 99.769531 122.984375 103.34375 128.941406 104.820312 136.089844 Z M 93.097656 117.746094 L 92.621094 117.460938 L 92.382812 117.363281 C 92.242188 117.171875 92.050781 116.984375 91.859375 116.792969 C 92.289062 117.078125 92.71875 117.410156 93.097656 117.746094 Z M 90.144531 115.316406 C 89.90625 115.171875 89.667969 115.027344 89.429688 114.886719 C 89.238281 114.648438 89.050781 114.410156 88.8125 114.171875 C 89.289062 114.554688 89.714844 114.933594 90.144531 115.316406 Z M 87.238281 112.886719 C 86.953125 112.742188 86.714844 112.550781 86.429688 112.410156 C 86.238281 112.171875 86.046875 111.980469 85.855469 111.742188 C 86.382812 112.074219 86.808594 112.457031 87.238281 112.886719 Z M 83.140625 109.3125 C 83.523438 109.644531 83.902344 109.980469 84.285156 110.3125 C 84 110.121094 83.761719 109.980469 83.476562 109.835938 C 83.285156 109.597656 83.09375 109.359375 82.902344 109.121094 Z M 80.808594 107.214844 C 80.996094 107.359375 81.140625 107.550781 81.332031 107.738281 C 81.046875 107.550781 80.757812 107.40625 80.472656 107.214844 C 80.28125 106.929688 80.042969 106.691406 79.855469 106.40625 C 80.1875 106.691406 80.519531 106.976562 80.808594 107.214844 Z M 77.519531 104.5 C 77.328125 104.214844 77.136719 103.976562 76.949219 103.691406 C 77.425781 104.117188 77.949219 104.546875 78.425781 105.023438 C 78.089844 104.878906 77.804688 104.691406 77.519531 104.5 Z M 75.421875 102.261719 C 75.136719 102.070312 74.851562 101.878906 74.566406 101.640625 C 74.375 101.355469 74.183594 101.117188 73.992188 100.832031 L 73.945312 100.785156 C 74.421875 101.257812 74.945312 101.734375 75.421875 102.261719 Z M 72.421875 99.304688 C 72.136719 99.066406 71.847656 98.878906 71.515625 98.640625 C 71.324219 98.304688 71.136719 98.019531 70.898438 97.734375 C 71.46875 98.257812 71.945312 98.734375 72.421875 99.304688 Z M 69.515625 96.160156 C 69.230469 95.921875 68.941406 95.683594 68.609375 95.445312 C 68.417969 95.113281 68.226562 94.78125 67.988281 94.445312 C 68.515625 95.019531 69.039062 95.589844 69.515625 96.160156 Z M 66.65625 92.777344 C 66.371094 92.492188 66.035156 92.207031 65.75 91.96875 C 65.558594 91.585938 65.371094 91.253906 65.179688 90.871094 C 65.65625 91.492188 66.179688 92.160156 66.65625 92.777344 Z M 63.84375 89.109375 C 63.558594 88.824219 63.273438 88.539062 62.988281 88.253906 C 62.84375 87.871094 62.652344 87.488281 62.464844 87.109375 C 62.988281 87.777344 63.417969 88.441406 63.84375 89.109375 Z M 60.035156 82.964844 C 60.511719 83.679688 60.890625 84.441406 61.273438 85.203125 C 61.035156 84.871094 60.75 84.535156 60.460938 84.25 C 60.367188 83.820312 60.222656 83.394531 60.035156 82.964844 Z M 60.699219 84.773438 C 61.082031 85.25 61.460938 85.726562 61.796875 86.203125 C 62.082031 86.726562 62.320312 87.300781 62.558594 87.824219 C 62.128906 87.394531 61.699219 86.964844 61.222656 86.585938 C 61.082031 85.964844 60.890625 85.394531 60.699219 84.773438 Z M 61.367188 86.964844 C 61.84375 87.441406 62.320312 87.917969 62.796875 88.347656 C 63.082031 88.96875 63.320312 89.585938 63.558594 90.207031 C 63.035156 89.777344 62.511719 89.394531 61.9375 88.96875 C 61.75 88.347656 61.605469 87.632812 61.367188 86.964844 Z M 61.988281 89.300781 C 62.558594 89.730469 63.128906 90.160156 63.703125 90.585938 C 63.941406 91.253906 64.179688 91.921875 64.417969 92.589844 C 64.417969 92.589844 64.417969 92.636719 64.417969 92.636719 C 63.796875 92.253906 63.128906 91.875 62.464844 91.539062 C 62.367188 90.824219 62.226562 90.0625 61.988281 89.300781 Z M 62.511719 91.824219 C 63.179688 92.207031 63.84375 92.589844 64.464844 92.96875 C 64.65625 93.683594 64.84375 94.398438 65.035156 95.113281 C 64.320312 94.78125 63.605469 94.492188 62.84375 94.160156 C 62.84375 93.351562 62.703125 92.589844 62.511719 91.824219 Z M 62.941406 94.351562 C 63.703125 94.683594 64.417969 94.96875 65.132812 95.304688 C 65.320312 96.066406 65.464844 96.78125 65.609375 97.542969 C 64.796875 97.257812 64.035156 97.019531 63.179688 96.734375 C 63.179688 96.019531 63.082031 95.207031 62.941406 94.351562 Z M 63.273438 97.972656 C 63.273438 97.636719 63.226562 97.351562 63.226562 97.019531 C 64.035156 97.257812 64.84375 97.542969 65.65625 97.828125 C 65.796875 98.589844 65.894531 99.355469 65.988281 100.164062 C 65.132812 99.972656 64.226562 99.734375 63.320312 99.542969 C 63.367188 99.019531 63.320312 98.496094 63.273438 97.972656 Z M 63.367188 99.734375 C 64.273438 99.925781 65.132812 100.164062 66.035156 100.355469 C 66.132812 101.164062 66.179688 101.972656 66.226562 102.785156 L 64.320312 102.5 L 63.367188 102.355469 C 63.417969 101.496094 63.417969 100.640625 63.367188 99.734375 Z M 63.367188 102.59375 L 64.320312 102.738281 L 66.273438 103.070312 C 66.324219 103.929688 66.324219 104.738281 66.324219 105.59375 L 65.511719 105.5 L 63.273438 105.261719 C 63.320312 104.40625 63.367188 103.5 63.367188 102.59375 Z M 63.226562 105.5 C 63.988281 105.59375 64.75 105.644531 65.464844 105.738281 L 66.324219 105.832031 C 66.324219 106.167969 66.324219 106.5 66.324219 106.882812 C 66.324219 107.40625 66.273438 107.976562 66.273438 108.5 C 65.179688 108.453125 64.132812 108.40625 63.035156 108.359375 C 63.082031 107.359375 63.179688 106.453125 63.226562 105.5 Z M 62.941406 108.5 C 64.035156 108.550781 65.132812 108.597656 66.226562 108.644531 C 66.179688 109.550781 66.132812 110.457031 66.035156 111.410156 C 64.894531 111.410156 63.75 111.410156 62.605469 111.410156 C 62.75 110.457031 62.84375 109.453125 62.941406 108.5 Z M 65.988281 111.597656 C 65.894531 112.550781 65.796875 113.503906 65.65625 114.457031 C 64.464844 114.503906 63.273438 114.554688 62.082031 114.554688 C 62.226562 113.550781 62.414062 112.597656 62.511719 111.597656 C 63.75 111.597656 64.894531 111.597656 65.988281 111.597656 Z M 57.792969 145.140625 C 57.792969 137.707031 59.222656 130.226562 60.605469 122.984375 C 61.128906 120.269531 61.652344 117.554688 62.128906 114.792969 C 63.320312 114.792969 64.511719 114.742188 65.703125 114.695312 C 65.371094 117.078125 64.988281 119.316406 64.65625 121.414062 C 64.273438 123.367188 63.894531 125.367188 63.511719 127.320312 C 62.082031 134.5625 60.652344 142.09375 60.558594 149.621094 C 60.511719 158.292969 62.320312 166.867188 65.894531 174.777344 C 60.84375 165.773438 57.839844 155.8125 57.792969 145.140625 Z M 68.324219 179.253906 C 68.417969 179.445312 68.5625 179.636719 68.703125 179.828125 L 68.941406 180.398438 C 68.753906 180.019531 68.515625 179.636719 68.324219 179.253906 Z M 71.183594 184.496094 L 71.609375 185.117188 C 71.707031 185.355469 71.800781 185.542969 71.898438 185.78125 C 71.660156 185.355469 71.421875 184.925781 71.183594 184.496094 Z M 74.042969 189.785156 C 74.183594 190.023438 74.375 190.261719 74.519531 190.546875 C 74.660156 190.832031 74.707031 191.023438 74.851562 191.261719 C 74.613281 190.738281 74.328125 190.261719 74.042969 189.785156 Z M 77.089844 195.3125 L 77.472656 195.882812 L 77.757812 196.550781 Z M 79.855469 200.457031 C 79.996094 200.695312 80.140625 200.933594 80.28125 201.125 C 80.425781 201.316406 80.472656 201.554688 80.570312 201.792969 C 80.332031 201.363281 80.09375 200.933594 79.855469 200.457031 Z M 82.664062 205.652344 C 82.808594 205.890625 82.949219 206.128906 83.140625 206.367188 L 83.476562 207.128906 C 83.140625 206.652344 82.902344 206.128906 82.664062 205.652344 Z M 85.378906 210.84375 C 85.523438 211.082031 85.714844 211.367188 85.855469 211.605469 C 86 211.84375 86.046875 212.132812 86.191406 212.417969 C 85.953125 211.894531 85.667969 211.367188 85.378906 210.84375 Z M 88.144531 215.988281 L 88.574219 216.609375 C 88.667969 216.847656 88.761719 217.085938 88.859375 217.324219 C 88.574219 216.894531 88.335938 216.417969 88.144531 215.988281 Z M 90.71875 220.992188 C 90.90625 221.277344 91.097656 221.566406 91.289062 221.851562 C 91.382812 222.136719 91.527344 222.421875 91.621094 222.707031 C 91.289062 222.136719 91.003906 221.566406 90.71875 220.992188 Z M 93.433594 226.136719 L 94.003906 226.949219 C 94.148438 227.28125 94.289062 227.617188 94.386719 227.902344 C 94.050781 227.328125 93.71875 226.710938 93.433594 226.136719 Z M 96.054688 231.1875 C 96.242188 231.476562 96.433594 231.761719 96.625 232.046875 L 96.71875 232.140625 C 96.863281 232.523438 97.007812 232.855469 97.148438 233.238281 C 96.769531 232.570312 96.433594 231.855469 96.054688 231.1875 Z M 98.769531 236.335938 C 98.816406 236.429688 98.863281 236.523438 98.960938 236.621094 C 99.054688 236.8125 99.199219 236.953125 99.292969 237.144531 C 99.386719 237.476562 99.53125 237.765625 99.675781 238.097656 C 99.386719 237.527344 99.054688 236.953125 98.769531 236.335938 Z M 169.476562 236.097656 C 168.476562 237.621094 167.425781 239.242188 166.378906 240.765625 C 160.757812 249.105469 152.847656 259.109375 141.648438 262.347656 C 126.5 266.78125 111.109375 257.296875 103.773438 245.671875 C 102.867188 244.242188 102.058594 242.765625 101.34375 241.289062 C 105.488281 247.578125 111.203125 252.675781 117.96875 256.011719 C 125.117188 259.492188 132.503906 260.445312 139.316406 258.824219 C 150.464844 256.15625 158.753906 247.101562 164.710938 239.527344 C 165.855469 238.097656 166.996094 236.574219 168.09375 235.144531 C 170 232.667969 171.90625 230.140625 173.953125 227.710938 L 175.050781 227.804688 C 173.097656 230.523438 171.285156 233.332031 169.476562 236.097656 Z M 200.253906 230.09375 C 195.777344 229.617188 191.203125 229.1875 186.769531 228.757812 C 183.007812 228.425781 179.242188 228.042969 175.429688 227.664062 L 176.003906 226.902344 L 176.765625 226.949219 C 184.578125 227.328125 192.917969 227.804688 201.015625 228.757812 C 204.207031 229.140625 207.113281 229.570312 209.832031 230.046875 C 215.359375 231.046875 220.835938 232.378906 226.222656 234.144531 C 226.984375 234.382812 227.746094 234.667969 228.507812 234.90625 C 228.507812 234.953125 228.507812 234.953125 228.507812 235 C 219.121094 232.285156 209.355469 231.046875 200.253906 230.09375 Z M 228.746094 235 C 228.746094 235 228.746094 234.953125 228.746094 234.953125 L 228.792969 234.953125 L 228.792969 235 Z M 229.078125 235.097656 L 229.078125 235.046875 L 229.128906 235.046875 C 229.128906 235.046875 229.128906 235.097656 229.128906 235.097656 Z M 229.367188 235.191406 Z M 258 259.15625 C 255.378906 254.773438 252.1875 250.769531 248.472656 247.246094 C 244.183594 243.242188 239.371094 239.859375 234.179688 237.144531 C 239.800781 239.574219 245.039062 242.765625 249.757812 246.675781 C 253.664062 250.007812 257.046875 253.914062 259.761719 258.25 C 267.292969 270.210938 269.195312 283.550781 264.71875 293.222656 C 267.71875 284.125 265.148438 270.878906 258 259.15625 Z M 266.910156 276.117188 C 265.863281 269.6875 263.480469 263.589844 260 258.109375 C 257.285156 253.726562 253.902344 249.820312 249.996094 246.484375 C 245.515625 242.765625 240.515625 239.671875 235.179688 237.289062 C 240.945312 239.335938 246.375 242.242188 251.332031 245.863281 C 264.910156 256.058594 273.960938 276.59375 265.339844 292.460938 C 267.242188 287.746094 267.816406 282.121094 266.910156 276.117188 Z M 266.910156 276.117188 " fill-opacity="1" fill-rule="nonzero"/></g></svg>