<svg xmlns="http://www.w3.org/2000/svg" xmlns:xlink="http://www.w3.org/1999/xlink" width="1080" zoomAndPan="magnify" viewBox="0 0 810 809.999993" height="1080" preserveAspectRatio="xMidYMid meet" version="1.0"><defs><filter x="0%" y="0%" width="100%" height="100%" id="fb45a54bb2"><feColorMatrix values="0 0 0 0 1 0 0 0 0 1 0 0 0 0 1 0 0 0 1 0" color-interpolation-filters="sRGB"/></filter><mask id="75e5749d64"><g filter="url(#fb45a54bb2)"><rect x="-81" width="972" fill="#000000" y="-80.999999" height="971.999992" fill-opacity="0.54"/></g></mask><clipPath id="bf47f04432"><path d="M 0.679688 114 L 731.480469 114 L 731.480469 674 L 0.679688 674 Z M 0.679688 114 " clip-rule="nonzero"/></clipPath><clipPath id="a451600c64"><rect x="0" width="732" y="0" height="719"/></clipPath></defs><g mask="url(#75e5749d64)"><g transform="matrix(1, 0, 0, 1, 43, 47)"><g clip-path="url(#a451600c64)"><path fill="#ffb257" d="M 50.109375 717.8125 C 37.289062 717.8125 20.679688 715.0625 10.242188 702.808594 C -7.28125 682.21875 4.433594 648.894531 25.074219 626.621094 C 29.28125 622.09375 33.835938 617.589844 38.246094 613.234375 C 53.925781 597.757812 70.140625 581.753906 74.375 560.507812 C 80.117188 531.738281 61.824219 503.882812 45.253906 482.824219 C 43.988281 481.207031 42.695312 479.589844 41.398438 477.960938 C 24.453125 456.578125 6.941406 434.480469 4.945312 407.640625 C 2.464844 374.191406 25.816406 345.367188 48.503906 329.550781 C 70.046875 314.535156 95.378906 305.691406 119.890625 297.144531 C 124.433594 295.566406 128.964844 293.972656 133.480469 292.355469 C 214.019531 263.453125 262.1875 224.679688 280.753906 173.839844 C 285.824219 159.941406 288.558594 145.015625 291.203125 130.578125 C 294.546875 112.296875 298.011719 93.378906 306.261719 76.421875 C 323.246094 41.53125 361.441406 15.320312 408.410156 6.300781 C 450.757812 -1.828125 494.046875 3.390625 535.921875 8.417969 L 535.761719 9.753906 C 493.992188 4.726562 450.796875 -0.464844 408.667969 7.625 C 362.117188 16.5625 324.285156 42.488281 307.472656 77 C 299.289062 93.796875 295.851562 112.605469 292.523438 130.804688 C 289.867188 145.296875 287.128906 160.277344 282.019531 174.285156 C 263.308594 225.527344 214.867188 264.558594 133.9375 293.609375 C 129.421875 295.226562 124.890625 296.820312 120.335938 298.398438 C 95.917969 306.917969 70.667969 315.71875 49.273438 330.632812 C 26.894531 346.242188 3.839844 374.636719 6.292969 407.515625 C 8.261719 433.941406 25.640625 455.890625 42.464844 477.109375 C 43.757812 478.742188 45.039062 480.359375 46.320312 481.976562 C 63.078125 503.265625 81.5625 531.453125 75.710938 560.765625 C 71.382812 582.414062 55.03125 598.578125 39.203125 614.191406 C 34.808594 618.53125 30.25 623.023438 26.070312 627.539062 C 5.835938 649.367188 -5.746094 681.9375 11.28125 701.929688 C 24.171875 717.070312 47.007812 717.230469 59.476562 715.980469 C 92.871094 712.621094 124.835938 696.347656 147.175781 671.300781 L 148.1875 672.203125 C 125.621094 697.496094 93.34375 713.941406 59.613281 717.328125 C 56.875 717.597656 53.640625 717.8125 50.121094 717.8125 Z M 50.109375 717.8125 " fill-opacity="1" fill-rule="nonzero"/><path fill="#ffb257" d="M 52.496094 710.613281 C 39.390625 710.613281 20.164062 707.902344 9.230469 693.71875 C -7.175781 672.460938 6.050781 639.96875 27.582031 618.871094 C 31.960938 614.570312 36.707031 610.335938 41.292969 606.222656 C 57.578125 591.625 74.429688 576.539062 79.648438 555.652344 C 86.726562 527.410156 69.914062 498.894531 54.492188 477.21875 C 53.304688 475.558594 52.105469 473.886719 50.902344 472.203125 C 35.128906 450.1875 18.804688 427.429688 18.117188 400.710938 C 17.253906 367.421875 41.804688 339.960938 65.058594 325.347656 C 87.144531 311.472656 112.691406 303.925781 137.402344 296.628906 C 141.988281 295.28125 146.558594 293.921875 151.101562 292.53125 C 232.355469 267.726562 281.980469 231.582031 302.824219 182.050781 C 308.527344 168.515625 311.949219 153.84375 315.253906 139.648438 C 319.445312 121.679688 323.789062 103.085938 332.792969 86.667969 C 351.316406 52.882812 390.441406 28.707031 437.453125 22.023438 C 479.835938 15.996094 522.519531 23.234375 563.800781 30.230469 L 563.574219 31.566406 C 522.398438 24.582031 479.8125 17.355469 437.625 23.355469 C 391.035156 29.988281 352.273438 53.890625 333.953125 87.3125 C 325.039062 103.574219 320.714844 122.070312 316.546875 139.960938 C 313.230469 154.195312 309.792969 168.933594 304.050781 182.574219 C 283.046875 232.496094 233.136719 268.898438 151.476562 293.824219 C 146.921875 295.214844 142.351562 296.5625 137.765625 297.925781 C 113.136719 305.203125 87.683594 312.726562 65.746094 326.492188 C 42.800781 340.902344 18.589844 367.949219 19.4375 400.683594 C 20.113281 426.984375 36.316406 449.582031 51.96875 471.421875 C 53.167969 473.09375 54.367188 474.765625 55.554688 476.4375 C 71.152344 498.34375 88.128906 527.195312 80.929688 555.976562 C 75.601562 577.25 58.601562 592.484375 42.15625 607.222656 C 37.585938 611.320312 32.851562 615.554688 28.496094 619.828125 C 7.386719 640.507812 -5.652344 672.242188 10.269531 692.882812 C 22.324219 708.507812 44.957031 709.761719 57.390625 709.128906 C 90.660156 707.402344 123.140625 692.789062 146.503906 669.023438 L 147.460938 669.964844 C 123.867188 693.960938 91.066406 708.738281 57.457031 710.476562 C 55.933594 710.558594 54.261719 710.613281 52.46875 710.613281 Z M 52.496094 710.613281 " fill-opacity="1" fill-rule="nonzero"/><path fill="#ffb257" d="M 55.082031 703.644531 C 42.382812 703.644531 19.707031 701.136719 8.207031 684.632812 C -7.066406 662.699219 7.65625 631.042969 30.089844 611.117188 C 34.660156 607.058594 39.578125 603.070312 44.324219 599.214844 C 61.230469 585.503906 78.703125 571.304688 84.90625 550.8125 C 93.304688 523.082031 77.988281 493.921875 63.710938 471.621094 C 62.621094 469.910156 61.5 468.199219 60.394531 466.472656 C 45.78125 443.824219 30.667969 420.40625 31.273438 393.804688 C 32.042969 360.667969 57.765625 334.566406 81.601562 321.179688 C 104.222656 308.46875 129.988281 302.210938 154.914062 296.144531 C 159.527344 295.027344 164.152344 293.90625 168.734375 292.746094 C 250.703125 272.039062 301.785156 238.523438 324.917969 190.300781 C 331.242188 177.113281 335.355469 162.703125 339.34375 148.761719 C 344.386719 131.101562 349.605469 112.835938 359.351562 96.953125 C 379.414062 64.273438 419.480469 42.148438 466.53125 37.78125 C 508.957031 33.84375 551.035156 43.121094 591.734375 52.085938 L 591.453125 53.40625 C 550.859375 44.46875 508.890625 35.207031 466.667969 39.128906 C 420.03125 43.457031 380.34375 65.339844 360.511719 97.652344 C 350.859375 113.386719 345.667969 131.558594 340.652344 149.128906 C 336.664062 163.121094 332.523438 177.601562 326.160156 190.878906 C 302.851562 239.480469 251.472656 273.238281 169.085938 294.054688 C 164.488281 295.214844 159.875 296.332031 155.253906 297.464844 C 130.417969 303.507812 104.75 309.75 82.289062 322.367188 C 58.789062 335.578125 33.40625 361.289062 32.648438 393.847656 C 32.042969 420.027344 47.046875 443.269531 61.554688 465.746094 C 62.671875 467.46875 63.777344 469.195312 64.871094 470.910156 C 79.308594 493.449219 94.785156 522.949219 86.226562 551.207031 C 79.902344 572.089844 62.253906 586.40625 45.203125 600.25 C 40.457031 604.105469 35.546875 608.085938 31.003906 612.117188 C 9.015625 631.652344 -5.488281 662.550781 9.339844 683.851562 C 20.476562 699.855469 42.679688 702.28125 55.109375 702.28125 C 55.203125 702.28125 55.285156 702.28125 55.378906 702.28125 C 88.546875 702.1875 121.535156 689.230469 145.910156 666.742188 L 146.828125 667.742188 C 122.207031 690.457031 88.882812 703.535156 55.394531 703.628906 C 55.300781 703.628906 55.203125 703.628906 55.109375 703.628906 Z M 55.082031 703.644531 " fill-opacity="1" fill-rule="nonzero"/><path fill="#ffb257" d="M 59.261719 696.929688 C 57.253906 696.929688 55.246094 696.886719 53.238281 696.792969 C 40.644531 696.214844 17.902344 692.667969 7.195312 675.535156 C -6.945312 652.925781 9.273438 622.117188 32.609375 603.367188 C 37.355469 599.550781 42.449219 595.816406 47.386719 592.203125 C 64.898438 579.367188 83.003906 566.089844 90.203125 545.972656 C 99.9375 518.753906 86.105469 488.960938 72.972656 466.042969 C 71.960938 464.273438 70.9375 462.507812 69.914062 460.742188 C 56.457031 437.460938 42.558594 413.382812 44.472656 386.917969 C 46.859375 353.941406 73.78125 329.1875 98.183594 317.015625 C 121.347656 305.460938 147.339844 300.484375 172.457031 295.671875 C 177.105469 294.785156 181.757812 293.894531 186.394531 292.964844 C 269.078125 276.355469 321.628906 245.46875 347.042969 198.550781 C 353.984375 185.730469 358.800781 171.5625 363.449219 157.875 C 369.34375 140.527344 375.4375 122.582031 385.925781 107.226562 C 407.507812 75.636719 448.519531 55.578125 495.625 53.527344 C 538.105469 51.679688 579.5625 62.992188 619.671875 73.925781 L 619.320312 75.21875 C 579.320312 64.3125 537.945312 53.042969 495.691406 54.863281 C 449.019531 56.886719 408.398438 76.730469 387.058594 107.96875 C 376.664062 123.175781 370.609375 141.023438 364.746094 158.28125 C 360.078125 172.03125 355.253906 186.242188 348.242188 199.171875 C 322.628906 246.453125 269.78125 277.566406 186.679688 294.257812 C 182.039062 295.1875 177.390625 296.078125 172.726562 296.96875 C 147.6875 301.765625 121.804688 306.714844 98.804688 318.1875 C 74.738281 330.1875 48.179688 354.5625 45.835938 386.972656 C 43.949219 413.019531 57.753906 436.921875 71.101562 460.027344 C 72.125 461.808594 73.148438 463.574219 74.160156 465.339844 C 87.441406 488.5 101.40625 518.660156 91.496094 546.40625 C 84.164062 566.910156 65.882812 580.3125 48.207031 593.269531 C 43.285156 596.867188 38.203125 600.601562 33.484375 604.390625 C 10.621094 622.765625 -5.339844 652.855469 8.371094 674.792969 C 18.765625 691.402344 41.007812 694.839844 53.332031 695.417969 C 86.375 696.957031 119.890625 685.671875 145.277344 664.453125 L 146.140625 665.488281 C 122.046875 685.617188 90.6875 696.902344 59.304688 696.902344 Z M 59.261719 696.929688 " fill-opacity="1" fill-rule="nonzero"/><path fill="#ffb257" d="M 63.644531 690.539062 C 59.464844 690.539062 55.285156 690.335938 51.121094 689.945312 C 38.570312 688.746094 16.039062 684.082031 6.171875 666.445312 C -6.839844 643.175781 10.890625 613.195312 35.105469 595.613281 C 40.039062 592.042969 45.308594 588.5625 50.40625 585.191406 C 68.523438 573.234375 87.277344 560.871094 95.449219 541.132812 C 106.515625 514.425781 94.167969 483.984375 82.183594 460.445312 C 81.265625 458.640625 80.335938 456.820312 79.390625 455 C 67.109375 431.082031 54.394531 406.34375 57.617188 380 C 61.621094 347.1875 89.730469 323.78125 114.699219 312.835938 C 138.414062 302.441406 164.609375 298.746094 189.941406 295.175781 C 194.632812 294.515625 199.324219 293.851562 203.988281 293.152344 C 287.386719 280.640625 341.394531 252.382812 369.085938 206.789062 C 376.664062 194.316406 382.164062 180.417969 387.476562 166.964844 C 394.214844 149.921875 401.1875 132.300781 412.414062 117.484375 C 435.535156 87.003906 477.425781 68.953125 524.625 69.261719 C 567.117188 69.519531 607.996094 82.851562 647.507812 95.753906 L 647.089844 97.035156 C 607.671875 84.171875 566.902344 70.867188 524.609375 70.609375 C 524.246094 70.609375 523.867188 70.609375 523.503906 70.609375 C 477.222656 70.609375 436.15625 88.390625 413.480469 118.292969 C 402.359375 132.960938 395.414062 150.503906 388.714844 167.449219 C 383.375 180.945312 377.847656 194.910156 370.21875 207.476562 C 342.296875 253.449219 287.980469 281.910156 204.164062 294.472656 C 199.484375 295.175781 194.792969 295.835938 190.101562 296.496094 C 164.863281 300.054688 138.75 303.722656 115.210938 314.046875 C 90.582031 324.847656 62.863281 347.886719 58.925781 380.136719 C 55.757812 406.0625 68.363281 430.613281 80.5625 454.351562 C 81.492188 456.171875 82.4375 457.992188 83.355469 459.800781 C 95.476562 483.59375 107.945312 514.398438 96.675781 541.621094 C 88.34375 561.734375 69.429688 574.21875 51.132812 586.285156 C 46.050781 589.640625 40.78125 593.105469 35.871094 596.679688 C 12.128906 613.910156 -5.300781 643.164062 7.316406 665.757812 C 16.875 682.867188 38.917969 687.398438 51.214844 688.582031 C 84.136719 691.738281 118.164062 682.125 144.574219 662.199219 L 145.382812 663.277344 C 122.0625 680.886719 92.832031 690.523438 63.605469 690.523438 Z M 63.644531 690.539062 " fill-opacity="1" fill-rule="nonzero"/><path fill="#ffb257" d="M 68.105469 684.457031 C 61.714844 684.457031 55.324219 684 49.003906 683.082031 C 36.492188 681.261719 14.167969 675.492188 5.160156 657.332031 C -6.714844 633.390625 12.507812 604.253906 37.625 587.847656 C 42.734375 584.503906 48.195312 581.28125 53.464844 578.167969 C 72.207031 567.085938 91.578125 555.628906 100.734375 536.28125 C 113.121094 510.085938 102.269531 478.996094 91.417969 454.839844 C 90.582031 452.976562 89.746094 451.117188 88.894531 449.257812 C 77.773438 424.707031 66.273438 399.308594 70.789062 373.097656 C 76.425781 340.445312 105.722656 318.402344 131.253906 308.667969 C 155.507812 299.433594 181.917969 297.019531 207.453125 294.703125 C 212.1875 294.269531 216.902344 293.839844 221.621094 293.367188 C 305.75 284.957031 361.210938 259.328125 391.195312 215.039062 C 399.390625 202.933594 405.582031 189.277344 411.578125 176.078125 C 419.171875 159.347656 427.015625 142.050781 439 127.773438 C 463.644531 98.394531 506.519531 82.40625 553.730469 85.035156 C 596.277344 87.394531 636.535156 102.761719 675.457031 117.621094 L 674.972656 118.875 C 636.144531 104.042969 595.984375 88.714844 553.648438 86.382812 C 506.867188 83.792969 464.414062 99.59375 440.027344 128.648438 C 428.164062 142.789062 420.355469 159.992188 412.808594 176.644531 C 406.792969 189.894531 400.578125 203.605469 392.316406 215.808594 C 362.101562 260.457031 306.316406 286.261719 221.769531 294.730469 C 217.050781 295.203125 212.335938 295.632812 207.601562 296.0625 C 182.148438 298.382812 155.832031 300.769531 131.753906 309.949219 C 106.554688 319.550781 77.664062 341.253906 72.136719 373.355469 C 67.6875 399.160156 79.09375 424.355469 90.136719 448.730469 C 90.984375 450.605469 91.820312 452.464844 92.65625 454.324219 C 103.617188 478.742188 114.578125 510.207031 101.960938 536.902344 C 92.628906 556.625 73.066406 568.191406 54.152344 579.382812 C 48.894531 582.496094 43.449219 585.703125 38.367188 589.035156 C 13.75 605.117188 -5.152344 633.550781 6.375 656.792969 C 15.097656 674.386719 36.949219 680.023438 49.191406 681.800781 C 82.007812 686.589844 116.546875 678.632812 143.96875 659.988281 L 144.722656 661.109375 C 122.316406 676.355469 95.191406 684.527344 68.105469 684.527344 Z M 68.105469 684.457031 " fill-opacity="1" fill-rule="nonzero"/><path fill="#ffb257" d="M 72.648438 678.714844 C 64.007812 678.714844 55.378906 677.894531 46.898438 676.234375 C 34.441406 673.792969 12.304688 666.90625 4.175781 648.246094 C -6.566406 623.628906 14.152344 595.332031 40.171875 580.109375 C 45.472656 577.007812 51.09375 574.042969 56.539062 571.171875 C 75.886719 560.964844 95.890625 550.421875 106.03125 531.441406 C 119.753906 505.757812 110.386719 474.023438 100.691406 449.242188 C 99.949219 447.34375 99.195312 445.429688 98.441406 443.511719 C 88.492188 418.328125 78.191406 392.28125 84.015625 366.195312 C 91.269531 333.691406 121.75 313.011719 147.863281 304.503906 C 172.65625 296.414062 199.285156 295.308594 225.019531 294.230469 C 229.792969 294.027344 234.550781 293.824219 239.3125 293.582031 C 324.152344 289.269531 381.085938 266.269531 413.332031 223.289062 C 422.148438 211.546875 429.039062 198.148438 435.699219 185.191406 C 444.136719 168.769531 452.859375 151.796875 465.585938 138.058594 C 491.769531 109.789062 535.597656 95.847656 582.824219 100.796875 C 625.398438 105.246094 665.050781 122.648438 703.390625 139.472656 L 702.851562 140.714844 C 664.605469 123.929688 625.050781 106.578125 582.691406 102.144531 C 535.882812 97.25 492.46875 111.027344 466.585938 138.988281 C 453.980469 152.605469 445.296875 169.484375 436.910156 185.824219 C 430.226562 198.835938 423.308594 212.273438 414.425781 224.125 C 381.90625 267.457031 324.648438 290.617188 239.390625 294.957031 C 234.632812 295.203125 229.875 295.402344 225.101562 295.605469 C 199.445312 296.683594 172.914062 297.789062 148.308594 305.8125 C 122.546875 314.210938 92.480469 334.566406 85.363281 366.519531 C 79.632812 392.203125 89.851562 418.046875 99.734375 443.054688 C 100.488281 444.96875 101.246094 446.882812 102 448.785156 C 111.800781 473.832031 121.265625 505.933594 107.285156 532.113281 C 96.945312 551.460938 76.75 562.097656 57.226562 572.398438 C 51.792969 575.257812 46.171875 578.222656 40.914062 581.308594 C 15.40625 596.246094 -4.949219 623.859375 5.472656 647.746094 C 13.371094 665.839844 35.023438 672.554688 47.222656 674.953125 C 79.917969 681.371094 114.984375 675.089844 143.414062 657.710938 L 144.117188 658.855469 C 122.773438 671.90625 97.726562 678.753906 72.71875 678.753906 Z M 72.648438 678.714844 " fill-opacity="1" fill-rule="nonzero"/><g clip-path="url(#bf47f04432)"><path fill="#ffb257" d="M 77.246094 673.28125 C 66.3125 673.28125 55.394531 671.988281 44.785156 669.371094 C 32.367188 666.3125 10.445312 658.304688 3.164062 639.144531 C -6.445312 613.867188 15.769531 586.40625 42.679688 572.359375 C 48.152344 569.5 53.964844 566.789062 59.585938 564.160156 C 79.554688 554.84375 100.191406 545.207031 111.316406 526.601562 C 126.375 501.429688 118.488281 469.046875 109.925781 443.648438 C 109.265625 441.695312 108.605469 439.738281 107.933594 437.769531 C 99.140625 411.953125 90.054688 385.246094 97.171875 359.292969 C 106.058594 326.949219 137.726562 307.632812 164.40625 300.335938 C 189.738281 293.410156 216.566406 293.582031 242.53125 293.746094 C 247.347656 293.773438 252.144531 293.8125 256.929688 293.800781 C 342.5 293.582031 400.875 273.210938 435.429688 231.539062 C 444.867188 220.148438 452.457031 207.003906 459.777344 194.289062 C 469.066406 178.195312 478.664062 161.542969 492.132812 148.332031 C 519.839844 121.167969 564.609375 109.273438 611.878906 116.542969 C 654.492188 123.09375 693.535156 142.519531 731.285156 161.316406 L 730.679688 162.527344 C 693.011719 143.789062 654.074219 124.402344 611.660156 117.890625 C 564.8125 110.691406 520.472656 122.433594 493.0625 149.316406 C 479.730469 162.394531 470.171875 178.960938 460.9375 194.992188 C 453.574219 207.746094 445.972656 220.945312 436.453125 232.429688 C 401.644531 274.425781 342.917969 294.957031 256.929688 295.175781 C 252.144531 295.175781 247.332031 295.160156 242.519531 295.121094 C 216.660156 294.957031 189.914062 294.785156 164.757812 301.660156 C 138.441406 308.859375 107.203125 327.882812 98.46875 359.671875 C 91.457031 385.230469 100.476562 411.738281 109.199219 437.367188 C 109.875 439.335938 110.535156 441.289062 111.195312 443.242188 C 119.835938 468.914062 127.789062 501.671875 112.460938 527.316406 C 101.125 546.269531 80.292969 555.992188 60.152344 565.402344 C 54.542969 568.015625 48.761719 570.726562 43.300781 573.570312 C 16.917969 587.351562 -4.910156 614.152344 4.417969 638.6875 C 11.484375 657.277344 32.945312 665.085938 45.105469 668.089844 C 77.691406 676.140625 113.269531 671.515625 142.714844 655.417969 L 143.363281 656.605469 C 123.207031 667.621094 100.21875 673.308594 77.246094 673.324219 Z M 77.246094 673.28125 " fill-opacity="1" fill-rule="nonzero"/></g></g></g></g></svg>