<svg width="615" height="472" viewBox="0 0 615 472" fill="none" xmlns="http://www.w3.org/2000/svg">
<path d="M67.2837 205.995C25.6208 252.179 -4.01638 315.471 1.45508 379.88C3.96284 409.325 15.3617 440.073 38.8434 454.951C48.9122 460.833 59.8487 464.756 71.1593 466.543C124.628 477.299 179.778 472.093 230.744 451.479C293.438 426.001 336.981 432.138 402.981 433.44C455.754 434.355 507.607 418.358 552.079 387.443C573.465 373.508 591.435 354.154 604.457 331.031C635.291 271.582 585.477 163.656 556.752 109.786C538.544 76.5558 512.765 48.9943 481.905 29.7631C451.045 10.5319 416.147 0.280816 380.582 0C282.609 0.433936 133.967 132.164 67.2837 205.995Z" fill="url(#paint0_linear_17_989)"/>
<defs>
<linearGradient id="paint0_linear_17_989" x1="175" y1="74.5" x2="415.5" y2="472" gradientUnits="userSpaceOnUse">
<stop stop-color="#2D2119"/>
<stop offset="0.245" stop-color="#33221D"/>
<stop offset="0.605" stop-color="#383230"/>
<stop offset="1" stop-color="#382D29"/>
</linearGradient>
</defs>
</svg>
