<svg width="436" height="400" viewBox="0 0 436 400" fill="none" xmlns="http://www.w3.org/2000/svg">
<path d="M386.535 55.9815C389.689 60.1959 393.632 63.7966 396.11 68.5838C403.245 81.493 411.544 93.6656 418.303 106.841C420.815 114.049 424.597 120.652 429.437 126.276C432.479 129.406 433.361 133.989 435.07 137.958C434.281 143.522 432.16 148.985 431.521 154.57C430.299 167.132 428.005 179.542 424.668 191.64C423.562 199.597 421.783 207.424 419.355 215.024C418.215 220.595 416.521 226.015 414.304 231.186C411.352 236.754 407.98 242.043 404.221 247C395.791 259.828 384.77 270.63 373.955 281.575C362.126 293.175 350.654 305.695 336.272 313.776C329.194 316.865 322.509 321.448 315.112 323.392C309.047 325.437 302.645 326.828 297.275 331.022C287.023 336.894 280.057 347 271.233 354.836C260.662 365.372 247.707 373.003 234.733 379.181C228.122 382.827 221.305 386.012 214.324 388.715C206.141 394.14 196.733 396.974 187.155 396.898C180.715 396.325 174.575 394.341 167.891 395.036C160.719 397.45 153.415 396.693 146.599 395.384C137.212 397.082 127.448 400.908 118.079 399.476C111.845 398.903 106.044 396.059 99.5474 396.939C94.5342 398.105 90.4224 395.466 86.0664 394.157C78.0679 391.231 69.1682 390.822 60.8506 389.185C55.8374 388.04 52.3076 384.357 48.4773 381.411L46.9565 379.713C37.5418 372.051 28.9003 363.32 21.1774 353.67C18.9636 349.877 16.4973 346.267 13.7985 342.868C8.69152 332.966 3.64084 322.982 0.655497 311.976C-1.22208 302.524 1.3502 292.418 3.15267 282.659C9.70541 255.736 8.25968 227.299 22.6231 201.869C26.0966 196.039 27.9554 189.594 30.2836 183.457C33.1939 172.982 39.6715 163.694 44.0838 153.752C47.839 145.977 50.1671 137.753 54.1101 130.061C55.4431 127.851 56.7574 125.662 58.1844 123.555C63.0285 116.436 69.8066 111.055 75.5895 104.774C80.6402 99.5372 83.6255 92.8678 87.3244 86.7508L91.6052 80.8383C99.1742 72.1731 108.698 65.8241 119.224 62.4259C121.102 61.9963 122.98 61.628 124.857 61.403C127.617 60.8506 130.49 60.4005 133.175 60.0732C144.722 58.1706 155.293 51.6035 165.976 46.3252C178.03 38.817 188.882 28.8334 201.65 22.9414C212.615 16.8039 224.406 13.1828 236.066 9.56172C238.338 9.05026 240.572 8.37513 242.825 7.72047C245.998 7.14764 249.153 6.20657 252.326 5.49053L266.896 1.84896C271.513 0.179375 276.41 -0.368952 281.243 0.242462C286.076 0.853875 290.728 2.61021 294.871 5.38823C304.616 10.6665 315.224 14.5535 324.087 21.2843C333.099 24.7213 341.623 29.1403 350.373 32.9864C356.005 36.6485 358.165 44.4431 364.83 46.9594C371.89 50.3964 381.334 49.5167 386.535 55.9815Z" fill="#5B544C"/>
</svg>
